<svg width="129" height="129" viewBox="0 0 129 129" fill="none" xmlns="http://www.w3.org/2000/svg">
<path d="M113.95 0C115.936 3.52042e-05 117.901 0.397664 119.73 1.16992C121.559 1.94237 123.215 3.07389 124.6 4.49707C127.421 7.37542 129 11.2452 129 15.2754C129 19.3055 127.421 23.1754 124.6 26.0537C122.322 28.3919 119.336 29.9115 116.105 30.377V88.1494C116.105 100.19 109.037 112.043 99.302 116.339L66.9778 128.469C66.2149 128.823 65.3825 129.005 64.5413 129C63.6155 129.003 62.7006 128.802 61.8606 128.413L34.4788 115.96L23.7864 126.452C23.069 127.174 22.1178 127.615 21.1038 127.697L4.63403 128.987C4.51593 129 4.41053 129 4.30103 129C3.16659 128.997 2.07904 128.545 1.27759 127.742C0.832601 127.298 0.488998 126.763 0.270752 126.174C0.0525336 125.584 -0.035659 124.955 0.0129395 124.328L1.29028 107.575C1.36394 106.55 1.79893 105.583 2.51782 104.849L13.2239 94.3438C13.0189 93.0052 12.9104 91.6529 12.9006 90.2988V16.5527C12.8969 14.9742 13.4661 13.4477 14.5022 12.2568C15.5385 11.0659 16.9723 10.2906 18.5364 10.0762C25.6705 9.20967 49.8331 5.9677 61.968 0.530273C62.763 0.188132 63.6191 0.010459 64.4846 0.0078125C65.3503 0.00522613 66.2079 0.178157 67.0051 0.515625C75.4227 4.29756 89.4763 7.01242 100.388 8.68945C101.115 7.13745 102.1 5.7197 103.301 4.49707C104.685 3.07397 106.341 1.94233 108.17 1.16992C109.999 0.397526 111.965 0 113.95 0ZM107.504 35.0771V79.5234H107.474C107.583 80.4172 107.583 81.321 107.474 82.2148H107.504V88.1494C107.504 95.4423 103.43 104.99 95.8938 108.327L66.1135 119.342C65.6117 119.551 65.0724 119.659 64.5286 119.656C63.9378 119.656 63.3532 119.537 62.8088 119.308L40.6086 109.953L37.7776 112.73L63.6731 124.507C63.9276 124.63 64.2066 124.695 64.4895 124.697C64.7725 124.699 65.0526 124.638 65.3088 124.518L97.676 112.374V112.367C105.681 108.824 111.804 98.3943 111.804 88.1494V30.3799L111.699 30.3643L107.504 35.0771ZM33.7952 80.1875L33.7571 80.2236L5.55396 107.896L4.30103 124.652L20.762 123.41L79.2415 66.0039L76.1731 62.8906L24.0471 113.823C23.4499 114.426 22.7388 114.903 21.9553 115.229C21.1718 115.554 20.331 115.719 19.4827 115.717C18.6345 115.714 17.7953 115.543 17.0139 115.213C16.2325 114.883 15.5244 114.401 14.9309 113.795C13.7317 112.564 13.0599 110.913 13.0598 109.194C13.0598 107.475 13.7316 105.824 14.9309 104.593L67.0833 53.6367L64.0149 50.5234L33.7952 80.1875ZM43.9348 106.687L64.4768 115.343L94.2688 104.341C99.2782 102.122 102.596 95.3298 103.122 89.6797C101.307 91.0219 99.1104 91.7493 96.8528 91.7549H96.8352C95.4203 91.7546 94.0197 91.4709 92.7161 90.9209C91.4122 90.3707 90.231 89.5644 89.2434 88.5508C87.4984 86.7515 86.4162 84.4127 86.1741 81.918C85.932 79.4233 86.5441 76.9205 87.9104 74.8193L82.262 69.0742L43.9348 106.687ZM17.969 107.638C17.5676 108.064 17.3459 108.628 17.3518 109.214C17.3578 109.799 17.591 110.36 18.0012 110.778C18.4031 111.172 18.9434 111.393 19.5061 111.393C20.0688 111.393 20.6091 111.172 21.011 110.778L73.1584 59.8242L70.5959 57.2188L70.093 56.7051L17.969 107.638ZM64.4836 4.30078C64.212 4.30375 63.9439 4.36178 63.6946 4.46973C51.3875 9.9846 28.3812 13.2117 19.0735 14.3447C18.5477 14.4251 18.0689 14.6929 17.7249 15.0986C17.3807 15.5044 17.1948 16.0207 17.2014 16.5527V90.2988C17.2014 90.344 17.2012 90.3879 17.2034 90.4287L21.5032 86.2139V22.3301C21.4941 21.2808 21.8696 20.2637 22.5579 19.4717C23.2461 18.6799 24.2004 18.1667 25.2405 18.0293C36.5519 16.4555 52.2986 13.7038 62.9973 9.55859C63.9764 9.16529 65.0709 9.17039 66.0461 9.57324C76.7627 13.2537 87.8212 15.8539 99.0549 17.335C98.8545 15.841 98.8726 14.3256 99.1086 12.8369C88.0164 11.1169 73.9285 8.34159 65.2766 4.45215C65.025 4.34964 64.7553 4.29783 64.4836 4.30078ZM49.4524 26.0576C48.6092 26.0616 47.7752 26.2344 46.9993 26.5645C46.2233 26.8945 45.5207 27.3758 44.9329 27.9805C43.7162 29.2352 43.0354 30.9144 43.0354 32.6621C43.0355 34.4098 43.7162 36.0891 44.9329 37.3438C45.5223 37.9497 46.2273 38.4317 47.0061 38.7607C47.7848 39.0897 48.6217 39.2586 49.467 39.2588C50.3176 39.2585 51.1598 39.0889 51.9436 38.7588C52.7274 38.4287 53.437 37.9451 54.0315 37.3369C54.2309 37.1335 54.4693 36.9721 54.7317 36.8613C54.9941 36.7506 55.276 36.6933 55.5608 36.6924C55.8459 36.693 56.1281 36.7497 56.3909 36.8604C56.6536 36.971 56.8915 37.1334 57.0911 37.3369L92.3186 73.1631C92.7124 73.5649 92.9328 74.1054 92.9329 74.668C92.9329 75.2308 92.7126 75.7719 92.3186 76.1738C91.1013 77.4287 90.4202 79.1081 90.4202 80.8564C90.4202 82.6047 91.1013 84.2842 92.3186 85.5391C92.9085 86.1445 93.6133 86.6258 94.3918 86.9551C95.1705 87.2844 96.0073 87.4555 96.8528 87.457C97.7027 87.4566 98.544 87.2867 99.3274 86.957C100.111 86.6274 100.821 86.1445 101.415 85.5371C102.634 84.2815 103.314 82.6001 103.313 80.8506C103.312 79.1011 102.628 77.421 101.408 76.167L83.8381 58.2939C83.8253 58.2811 83.8061 58.2765 83.7932 58.2637L71.6262 45.8984C71.6155 45.8855 71.6108 45.8664 71.5979 45.8535L54.0129 27.9736C53.4186 27.3669 52.7081 26.8846 51.925 26.5557C51.1422 26.2269 50.3015 26.0574 49.4524 26.0576ZM64.4641 13.5703C53.4686 17.8618 37.362 20.6826 25.801 22.293V82L30.1018 77.7793V28.0127C30.1018 27.4425 30.3285 26.8954 30.7317 26.4922C31.1348 26.0891 31.6812 25.8624 32.2512 25.8623C32.8215 25.8623 33.3685 26.089 33.7717 26.4922C34.1749 26.8954 34.4016 27.4425 34.4016 28.0127V73.5586L61.0071 47.4512L55.4036 41.751C53.6488 42.9302 51.5813 43.5577 49.467 43.5527H49.4524C48.0365 43.5541 46.6343 43.2721 45.3293 42.7227C44.0243 42.1732 42.8423 41.3674 41.8538 40.3535C39.8543 38.291 38.7366 35.5308 38.7366 32.6582C38.7367 29.7858 39.8545 27.0263 41.8538 24.9639C42.8423 23.9495 44.0244 23.1433 45.3293 22.5928C46.6342 22.0423 48.0361 21.7581 49.4524 21.7578H49.4651C50.8843 21.7561 52.29 22.0383 53.5989 22.5869C54.9075 23.1356 56.0935 23.9401 57.0872 24.9531L73.2454 41.3916L95.2942 21.0957C84.7987 19.5887 74.4736 17.0683 64.4641 13.5703ZM88.2756 56.6807L103.204 71.8643V39.9082L88.2756 56.6807ZM76.262 44.46L85.2551 53.6064L89.8264 48.4697L81.3137 39.8096L76.262 44.46ZM84.4768 36.8945L92.6926 45.251L99.4719 37.6338L91.9661 29.999L84.4768 36.8945ZM95.1301 27.0879L102.344 34.415L107.216 28.9395C104.306 27.4554 101.953 25.0713 100.506 22.1426L95.1301 27.0879ZM113.952 4.29395C112.538 4.29395 111.138 4.5789 109.835 5.13086C108.533 5.68276 107.355 6.49063 106.371 7.50684C104.34 9.57904 103.201 12.3657 103.201 15.2676C103.201 18.1696 104.34 20.956 106.371 23.0283C107.355 24.0447 108.533 24.8533 109.835 25.4053C111.138 25.9572 112.538 26.2412 113.952 26.2412C115.367 26.2412 116.767 25.9572 118.07 25.4053C119.372 24.8533 120.55 24.0447 121.533 23.0283C123.567 20.9568 124.705 18.1701 124.705 15.2676C124.705 12.3652 123.567 9.57824 121.533 7.50684C120.55 6.49063 119.372 5.68277 118.07 5.13086C116.767 4.57891 115.367 4.29395 113.952 4.29395ZM113.954 8.75195C114.806 8.75077 115.648 8.92045 116.433 9.25098C117.217 9.58152 117.927 10.0667 118.521 10.6768C118.732 10.8751 118.901 11.1137 119.018 11.3789C119.134 11.6441 119.195 11.9301 119.198 12.2197C119.202 12.5093 119.147 12.7968 119.036 13.0645C118.926 13.3321 118.762 13.5744 118.555 13.7773C118.348 13.9802 118.103 14.1395 117.833 14.2451C117.564 14.3508 117.275 14.4011 116.986 14.3926C116.696 14.3841 116.412 14.3175 116.149 14.1963C115.886 14.075 115.65 13.9012 115.455 13.6865C115.26 13.4836 115.026 13.3217 114.768 13.2109C114.509 13.1003 114.231 13.0432 113.95 13.042C113.669 13.0424 113.39 13.0991 113.131 13.21C112.873 13.3208 112.639 13.4831 112.445 13.6865C112.244 13.8906 112.006 14.0533 111.742 14.1641C111.479 14.2748 111.195 14.332 110.909 14.332L110.916 14.3291C110.493 14.329 110.078 14.2041 109.726 13.9697C109.373 13.7354 109.098 13.4019 108.934 13.0117C108.77 12.6214 108.725 12.1911 108.805 11.7754C108.884 11.3596 109.085 10.9761 109.381 10.6738C109.976 10.0639 110.687 9.58012 111.473 9.25C112.258 8.91983 113.102 8.75011 113.954 8.75195Z" fill="white"/>
</svg>
