<svg width="128" height="128" viewBox="0 0 128 128" fill="none" xmlns="http://www.w3.org/2000/svg">
<path fill-rule="evenodd" clip-rule="evenodd" d="M38.0778 87.5229C44.3323 87.5231 49.4046 92.6651 49.4046 98.9969V116.502C49.4044 117.998 48.1978 119.223 46.7164 119.223H29.4383C27.9571 119.223 26.7502 117.998 26.75 116.502V98.9969C26.75 92.6651 31.8234 87.5231 38.0778 87.5229ZM38.0778 92.9667C34.808 92.9669 32.1265 95.6804 32.1265 98.9979V113.781H44.0281V98.9979C44.0281 95.6804 41.3477 92.9668 38.0778 92.9667Z" fill="white"/>
<path fill-rule="evenodd" clip-rule="evenodd" d="M89.9131 87.5229C96.1677 87.5229 101.241 92.665 101.241 98.9969V116.502C101.241 117.998 100.034 119.223 98.5527 119.223H81.2736C79.7925 119.222 78.5865 117.998 78.5863 116.502V98.9969C78.5864 92.6652 83.6587 87.5232 89.9131 87.5229ZM89.9131 92.9667C86.6433 92.9669 83.9618 95.6804 83.9618 98.9979V113.781H95.8644V98.9979C95.8644 95.6803 93.1831 92.9667 89.9131 92.9667Z" fill="white"/>
<path fill-rule="evenodd" clip-rule="evenodd" d="M109.351 0C112.021 0 114.199 2.20976 114.199 4.90938V9.28542C114.199 11.8046 112.302 13.8959 109.879 14.1646V27.7198L117.708 32.6615C118.686 33.2781 119.412 34.2145 119.76 35.325L119.8 35.3281L119.886 35.7094C120.523 38.5033 118.339 40.9449 116.992 43.1344L116.988 43.1406C116.291 44.2361 115.226 45.0243 113.962 45.3198C112.473 45.6678 111.134 45.2241 109.878 44.4417V125.278C109.878 126.774 108.672 128 107.19 128H20.7987C19.3176 128 18.1115 126.774 18.1115 125.278V44.4719L17.7111 44.726L17.7049 44.7302C16.9098 45.2184 16.0151 45.4635 15.1405 45.4635C13.4351 45.4634 11.952 44.5639 11.0199 43.1552L8.73098 39.4354C8.05295 38.3312 7.83553 37.0061 8.12522 35.7323C8.41591 34.4322 9.19231 33.3495 10.282 32.6625L60.3021 1.08854C62.5471 -0.332965 65.4655 -0.332824 67.7105 1.08854L91.5446 16.1344V14.1646C89.1222 13.8958 87.2249 11.8045 87.2249 9.28542V4.90938C87.225 2.20989 89.4038 0.000212553 92.073 0H109.351ZM23.488 122.534H52.6677V92.4344C52.6677 89.7349 54.8466 87.5243 57.5158 87.524H70.4751C73.1445 87.5241 75.3223 89.7348 75.3223 92.4344V122.534H104.503V82.026H23.488V122.534ZM58.0442 107.218H59.4383C60.9197 107.218 62.1264 108.443 62.1266 109.939C62.1266 111.435 60.9198 112.66 59.4383 112.66H58.0442V122.533H69.9468V92.9667H58.0442V107.218ZM23.488 76.5844H104.503V73.275H23.488V76.5844ZM23.488 67.8323H33.2297V60.1469H23.488V67.8323ZM38.6062 67.8323H41.8692V60.1469H38.6062V67.8323ZM47.2457 67.8323H56.9885V60.1469H47.2457V67.8323ZM62.365 67.8323H65.628V60.1469H62.365V67.8323ZM71.0045 67.8323H80.7473V60.1469H71.0045V67.8323ZM86.1227 67.8323H89.3858V60.1469H86.1227V67.8323ZM94.7613 67.8323H104.503V60.1469H94.7613V67.8323ZM23.489 54.7031H104.504V51.3938H23.489V54.7031ZM63.9965 29.5125C60.7267 29.5127 58.0453 32.2263 58.0452 35.5438V45.951H69.9468V35.5438C69.9467 32.2263 67.2663 29.5127 63.9965 29.5125ZM23.488 41.0448V45.95H52.6677V35.5427C52.6677 29.211 57.741 24.069 63.9955 24.0688C70.2501 24.0688 75.3223 29.2108 75.3223 35.5427V45.95H104.503V41.0229L63.9955 15.449L23.488 41.0448ZM64.8644 5.69271C64.3223 5.36012 63.6724 5.35801 63.1297 5.68854L13.5771 37.0021L15.3076 39.8156L62.5703 9.94896L62.5755 9.94479C63.4541 9.40528 64.5553 9.40117 65.4206 9.94896L112.68 39.7948L114.411 36.9813L64.8644 5.69271ZM96.9212 19.5365L104.504 24.3188V14.1958H96.9212V19.5365ZM92.6014 8.75208H108.824V5.44271H92.6014V8.75208Z" fill="white"/>
</svg>
