<svg width="136" height="131" viewBox="0 0 136 131" fill="none" xmlns="http://www.w3.org/2000/svg">
<path fill-rule="evenodd" clip-rule="evenodd" d="M89.3359 114.044C89.7427 112.836 91.0516 112.188 92.2591 112.593C93.4684 112.999 94.1175 114.307 93.7116 115.515L89.0141 129.428C88.4357 131.14 86.1982 131.553 85.0444 130.158L79.7333 123.707L69.2751 130.616C68.5068 131.128 67.4995 131.128 66.7309 130.616L56.2652 123.707L50.9556 130.156C49.8126 131.54 47.5666 131.153 46.9859 129.428L42.2884 115.516C41.8829 114.309 42.5321 113 43.7409 112.594C44.9492 112.189 46.2573 112.837 46.6641 114.044L50.0279 124.016L54.0202 119.173L54.0217 119.17C54.7741 118.266 56.0954 118.063 57.0772 118.715L68.0015 125.927L78.9228 118.715C79.9062 118.066 81.2282 118.263 81.9783 119.173L85.9706 124.016L89.3359 114.044Z" fill="white"/>
<path fill-rule="evenodd" clip-rule="evenodd" d="M15.5301 16.6151C16.7238 16.6151 17.7092 17.5249 17.8278 18.6868L17.8398 18.9226C17.8396 19.8851 17.2508 20.702 16.4143 21.0484V91.8275H119.586V21.0514C118.746 20.7054 118.16 19.8807 118.16 18.9226C118.16 17.6505 119.197 16.6152 120.47 16.6151H121.895C123.169 16.6151 124.205 17.6505 124.205 18.9226V91.8335H131.381V78.583H128.969C127.696 78.5827 126.659 77.5473 126.659 76.2754C126.66 75.004 127.696 73.9681 128.969 73.9678H131.381V51.9738H128.969C127.696 51.9736 126.659 50.9382 126.659 49.6662C126.659 48.3946 127.696 47.3589 128.969 47.3587H131.381V40.5802H128.969C127.696 40.5799 126.659 39.5445 126.659 38.2726C126.659 37.0011 127.696 35.9653 128.969 35.965H133.69C134.884 35.965 135.869 36.8753 135.988 38.0367L136 38.2726C136 61.0385 136 83.8045 136 106.57C135.999 107.841 134.963 108.877 133.69 108.877H77.1695C76.214 113.447 72.4809 116.96 67.8947 116.96C63.3142 116.96 59.5778 113.442 58.6215 108.877H2.30967C1.11615 108.877 0.131127 107.967 0.0120295 106.806L0 106.57V38.2726C0.000277912 37.0014 1.03552 35.9658 2.30817 35.965L7.02976 35.959C8.22349 35.959 9.21018 36.8691 9.32891 38.0307L9.34094 38.2666C9.34067 39.5385 8.30437 40.5742 7.03127 40.5742H4.61934V47.3526H7.03127C8.22498 47.3527 9.21021 48.2627 9.32891 49.4244L9.34094 49.6602C9.34067 50.9321 8.30437 51.9678 7.03127 51.9678H4.61934V73.9618H7.03127C8.22502 73.9618 9.21013 74.872 9.32891 76.0335L9.34094 76.2694C9.34067 77.5413 8.30437 78.577 7.03127 78.577H4.61934V91.8275H11.795V18.9226C11.795 17.6505 12.8314 16.6151 14.1046 16.6151H15.5301ZM4.62085 104.262L60.665 104.268C61.9383 104.268 62.9747 105.304 62.9747 106.576V106.582C62.975 109.859 65.2829 112.344 67.9008 112.345C70.4983 112.345 72.7839 109.898 72.8193 106.649C72.817 106.626 72.815 106.601 72.8148 106.576V106.57L72.8269 106.334C72.9455 105.172 73.9315 104.263 75.1245 104.262H131.388V96.4441H4.62085V104.262Z" fill="white"/>
<path fill-rule="evenodd" clip-rule="evenodd" d="M59.1147 44.8648C60.3078 44.8652 61.2936 45.7748 61.4123 46.9365L61.4244 47.1724V66.6064C61.4241 67.8864 60.3852 68.9136 59.1147 68.914H31.4828C30.2097 68.914 29.1734 67.8783 29.1731 66.6064V47.1724C29.1734 45.9006 30.2095 44.8648 31.4828 44.8648H59.1147ZM33.7925 64.2989H56.805V49.4799H33.7925V64.2989Z" fill="white"/>
<path fill-rule="evenodd" clip-rule="evenodd" d="M97.1325 62.6418C98.3262 62.6418 99.3116 63.5516 99.4302 64.7135L99.4422 64.9494C99.4414 66.2204 98.4058 67.257 97.1325 67.257H78.6431C77.4495 67.257 76.4647 66.3462 76.3455 65.1852L76.3335 64.9494C76.3335 63.6773 77.3699 62.6418 78.6431 62.6418H97.1325Z" fill="white"/>
<path fill-rule="evenodd" clip-rule="evenodd" d="M102.762 62.6103C104.036 62.6103 105.072 63.6457 105.072 64.9178C105.072 66.1897 104.035 67.2254 102.762 67.2254C101.501 67.2254 100.435 66.2013 100.435 64.9178C100.435 63.6576 101.441 62.6103 102.726 62.6103H102.762Z" fill="white"/>
<path fill-rule="evenodd" clip-rule="evenodd" d="M97.1325 48.8249C98.3262 48.8249 99.3116 49.7347 99.4302 50.8966L99.4422 51.1325C99.4419 52.4043 98.4057 53.4401 97.1325 53.4401H78.6431C77.37 53.4401 76.3338 52.4043 76.3335 51.1325C76.3335 49.8604 77.3699 48.8249 78.6431 48.8249H97.1325Z" fill="white"/>
<path fill-rule="evenodd" clip-rule="evenodd" d="M102.762 48.7964C103.956 48.7964 104.941 49.7062 105.06 50.8681L105.072 51.104C105.071 52.3749 104.036 53.4115 102.762 53.4115C101.58 53.4115 100.569 52.5107 100.447 51.3413L100.435 51.104C100.435 49.8437 101.441 48.7964 102.726 48.7964H102.762Z" fill="white"/>
<path fill-rule="evenodd" clip-rule="evenodd" d="M97.1325 35.0095C98.3264 35.0095 99.3113 35.9199 99.4302 37.0812L99.4422 37.3171C99.4419 38.589 98.4057 39.6247 97.1325 39.6247H78.6431C77.37 39.6247 76.3337 38.589 76.3335 37.3171C76.334 36.0459 77.3698 35.0095 78.6431 35.0095H97.1325Z" fill="white"/>
<path fill-rule="evenodd" clip-rule="evenodd" d="M102.762 34.9795C103.956 34.9795 104.941 35.8893 105.06 37.0512L105.072 37.2871C105.072 38.5589 104.036 39.5946 102.762 39.5946C101.501 39.5946 100.435 38.5704 100.435 37.2871C100.435 36.0268 101.441 34.9795 102.726 34.9795H102.762Z" fill="white"/>
<path fill-rule="evenodd" clip-rule="evenodd" d="M35.7097 20.0223C36.6169 19.2839 37.9541 19.3367 38.7998 20.1816L44.3033 25.6801C45.205 26.5815 45.2048 28.042 44.3033 28.9432L38.7998 34.4417C37.8976 35.3426 36.4358 35.3425 35.5338 34.4417L30.0303 28.9432C29.1283 28.0418 29.1283 26.5815 30.0303 25.6801L35.5338 20.1816L35.7097 20.0223ZM34.9293 27.3056L37.1668 29.5411L39.4043 27.3056L37.1668 25.0702L34.9293 27.3056Z" fill="white"/>
<path fill-rule="evenodd" clip-rule="evenodd" d="M58.9327 30.468C60.1264 30.468 61.1118 31.3778 61.2304 32.5397L61.2424 32.7756C61.2417 34.0467 60.206 35.0832 58.9327 35.0832H50.4278C49.2347 35.0829 48.2494 34.1725 48.1302 33.0115L48.1182 32.7756C48.1182 31.5034 49.1551 30.4683 50.4278 30.468H58.9327Z" fill="white"/>
<path fill-rule="evenodd" clip-rule="evenodd" d="M58.9327 21.2182C60.1265 21.2182 61.1116 22.1284 61.2304 23.2899L61.2424 23.5258C61.2421 24.7977 60.2058 25.8333 58.9327 25.8333H50.4278C49.1552 25.833 48.1185 24.7977 48.1182 23.5258C48.1186 22.2542 49.155 21.2185 50.4278 21.2182H58.9327Z" fill="white"/>
<path fill-rule="evenodd" clip-rule="evenodd" d="M97.1325 21.1942C98.3262 21.1942 99.3116 22.104 99.4302 23.2659L99.4422 23.5017C99.4418 24.7734 98.4057 25.8093 97.1325 25.8093H78.6431C77.37 25.8093 76.3338 24.7734 76.3335 23.5017C76.3335 22.2296 77.3699 21.1942 78.6431 21.1942H97.1325Z" fill="white"/>
<path fill-rule="evenodd" clip-rule="evenodd" d="M102.762 21.1641C103.956 21.1641 104.941 22.0745 105.06 23.2358L105.072 23.4717C105.072 24.7436 104.035 25.7793 102.762 25.7793C101.501 25.7793 100.435 24.7552 100.435 23.4717C100.435 22.2123 101.441 21.1641 102.726 21.1641H102.762Z" fill="white"/>
<path fill-rule="evenodd" clip-rule="evenodd" d="M20.2803 2.31294C20.2803 0.742979 21.8285 -0.401079 23.3508 0.133067C29.9413 2.44418 36.2649 3.33344 42.6944 2.86129H42.6989C53.1468 2.15563 61.6675 4.4843 67.9955 9.88466C74.3074 4.48365 82.8275 2.16162 93.262 2.86129H93.2681C99.6976 3.33351 106.034 2.44456 112.643 0.133067L112.646 0.131564C114.158 -0.38956 115.718 0.734343 115.718 2.31294L115.724 78.0842C115.724 79.4802 114.503 80.5231 113.169 80.3813L112.902 80.3362C98.131 76.9897 83.8924 80.1412 69.3022 90.0652L69.3007 90.0667C68.5167 90.5975 67.4888 90.5968 66.7053 90.0667L66.7038 90.0652C52.1142 80.1412 37.869 76.99 23.1042 80.3362L23.0997 80.3377C21.6355 80.6603 20.2808 79.5449 20.2803 78.0842V2.31294ZM111.103 5.46933C104.986 7.24822 99.0151 7.91138 92.9463 7.46592C83.0634 6.79492 75.7142 9.01042 70.3112 14.0521V79.0637L70.2991 79.2996C70.1882 80.3836 69.3227 81.2486 68.2376 81.3593L68.0015 81.3713C66.7293 81.3707 65.6921 80.3357 65.6918 79.0637V14.0536C60.2646 9.00525 52.8871 6.79631 43.0267 7.46742L43.0252 7.46592C37.0515 7.90502 30.9648 7.22826 24.9012 5.47083L24.9057 75.2764C40.5049 72.525 54.6781 76.6511 68.009 85.3855C82.2826 76.0335 96.4313 72.6872 111.103 75.2704V5.46933Z" fill="white"/>
</svg>
