<svg width="128" height="128" viewBox="0 0 128 128" fill="none" xmlns="http://www.w3.org/2000/svg">
<path fill-rule="evenodd" clip-rule="evenodd" d="M89.9131 89.0225C95.3209 89.0225 99.7412 93.4751 99.7412 98.9971V116.502L99.7343 116.629C99.671 117.253 99.1477 117.722 98.5527 117.723H81.2744C80.64 117.722 80.086 117.188 80.0859 116.502V98.9971C80.0859 93.4752 84.5056 89.0227 89.9131 89.0225ZM89.9131 91.4668C85.7968 91.4671 82.4619 94.8704 82.4619 98.998V115.281H97.3642V98.998C97.3642 94.9994 94.235 91.6802 90.2968 91.4766L89.9131 91.4668Z" fill="white"/>
<path fill-rule="evenodd" clip-rule="evenodd" d="M38.0781 89.0225C43.4855 89.0228 47.9042 93.4752 47.9043 98.9971V116.502L47.8984 116.629C47.8352 117.253 47.3116 117.722 46.7168 117.723H29.4384C28.8035 117.722 28.2501 117.188 28.25 116.502V98.9971C28.25 93.4753 32.6704 89.0227 38.0781 89.0225ZM38.0781 91.4668C33.9618 91.4671 30.6269 94.8704 30.6269 98.998V115.281H45.5283V98.998C45.5283 94.8708 42.1947 91.4671 38.0781 91.4668Z" fill="white"/>
<path fill-rule="evenodd" clip-rule="evenodd" d="M109.352 1.5C111.174 1.50026 112.699 3.01967 112.699 4.90918V9.28516C112.699 11.0449 111.372 12.49 109.714 12.6738L108.38 12.8213V28.5469L116.907 33.9297L116.908 33.9307C117.587 34.3587 118.088 35.0054 118.329 35.7744L118.441 36.1328C118.614 37.0105 118.39 37.9128 117.85 38.9619C117.571 39.5031 117.229 40.0456 116.852 40.6152C116.497 41.1515 116.082 41.7524 115.731 42.3193L115.728 42.3242L115.722 42.3359C115.223 43.1199 114.48 43.6583 113.62 43.8594C112.663 44.0828 111.739 43.8342 110.672 43.1689L108.379 41.7393V125.278C108.379 125.965 107.824 126.5 107.19 126.5H20.7988C20.1651 126.5 19.6114 125.965 19.6113 125.278V41.7432L17.3076 43.2051L16.9199 43.4521C16.3604 43.7956 15.7372 43.9638 15.1406 43.9639C14.0038 43.9637 12.971 43.3743 12.2822 42.3438L10.0078 38.6494C9.53704 37.8819 9.38465 36.958 9.58786 36.0645L9.58884 36.0596C9.79198 35.1511 10.3286 34.4067 11.082 33.9316L11.083 33.9307L61.1025 2.35742L61.1045 2.35547C62.8593 1.24438 65.1531 1.24439 66.9082 2.35547L66.9101 2.35742L93.0449 18.8555V12.8223L91.7099 12.6738C90.0521 12.4899 88.7246 11.0447 88.7246 9.28516V4.90918C88.7248 3.01976 90.2507 1.50015 92.0732 1.5H109.352ZM21.9883 80.5264V124.034H54.1679V92.4346C54.1679 90.545 55.6935 89.0249 57.5156 89.0244H70.4746L70.6445 89.0283C72.3905 89.1192 73.8222 90.6031 73.8222 92.4346V124.034H106.003V80.5264H21.9883ZM56.5439 91.4668V108.718H59.4384C60.073 108.718 60.6267 109.253 60.6269 109.938C60.6269 110.625 60.0726 111.16 59.4384 111.16H56.5439V124.033H71.4472V91.4668H56.5439ZM21.9883 71.7754V78.084H106.003V71.7754H21.9883ZM21.9883 58.6465V69.332H34.7295V58.6465H21.9883ZM37.1064 58.6465V69.332H43.3691V58.6465H37.1064ZM45.7461 58.6465V69.332H58.4883V58.6465H45.7461ZM60.8652 58.6465V69.332H67.1279V58.6465H60.8652ZM69.5049 58.6465V69.332H82.247V58.6465H69.5049ZM84.623 58.6465V69.332H90.8857V58.6465H84.623ZM93.2617 58.6465V69.332H106.003V58.6465H93.2617ZM21.9892 49.8936V56.2031H106.004V49.8936H21.9892ZM63.997 28.0127C59.8808 28.013 56.545 31.4164 56.5449 35.5439V47.4512H71.4472V35.5439C71.4471 31.4169 68.1134 28.0132 63.997 28.0127ZM21.9883 40.2178V47.4502H54.1679V35.543C54.1679 30.0214 58.5875 25.5688 63.9951 25.5684C69.4028 25.5684 73.8222 30.0209 73.8222 35.543V47.4502H106.003V40.1963L63.9951 13.6748L21.9883 40.2178ZM65.6484 4.41406C64.6287 3.78856 63.3748 3.78295 62.3496 4.40723L62.3281 4.4209L11.5234 36.5254L14.8252 41.8945L63.372 11.2168L63.374 11.2148C63.7758 10.9749 64.2541 10.9863 64.6181 11.2168H64.6201L113.163 41.874L116.465 36.5049L65.665 4.4248L65.6572 4.41895L65.6484 4.41406ZM95.4209 12.6963V20.3643L106.004 27.0381V12.6963H95.4209ZM91.1015 3.94238V10.252H110.324V3.94238H91.1015Z" fill="white"/>
</svg>
