<svg width="128" height="128" viewBox="0 0 128 128" fill="none" xmlns="http://www.w3.org/2000/svg">
<path d="M113.07 8.6841C113.914 8.68292 114.751 8.85136 115.529 9.17926C116.308 9.50724 117.013 9.98866 117.602 10.594C117.811 10.7907 117.979 11.0277 118.094 11.2907C118.21 11.5538 118.271 11.8376 118.274 12.125C118.278 12.4124 118.222 12.6975 118.113 12.9632C118.003 13.2286 117.841 13.4693 117.636 13.6705C117.431 13.8719 117.186 14.0298 116.919 14.1347C116.651 14.2395 116.365 14.2894 116.078 14.281C115.791 14.2725 115.508 14.2065 115.247 14.0862C114.986 13.9658 114.752 13.7935 114.559 13.5804C114.366 13.3792 114.134 13.2185 113.878 13.1085C113.622 12.9986 113.345 12.942 113.066 12.9409C112.787 12.9413 112.511 12.9976 112.254 13.1075C111.997 13.2175 111.766 13.3786 111.573 13.5804C111.374 13.783 111.137 13.9444 110.875 14.0543C110.614 14.164 110.333 14.2208 110.05 14.2209L110.055 14.218C109.635 14.2179 109.225 14.0939 108.875 13.8614C108.525 13.6289 108.252 13.2982 108.089 12.9108C107.927 12.5235 107.882 12.0967 107.96 11.6841C108.039 11.2716 108.238 10.891 108.532 10.5911C109.122 9.9859 109.828 9.50587 110.608 9.17829C111.387 8.85071 112.224 8.6823 113.07 8.6841Z" fill="white"/>
<path fill-rule="evenodd" clip-rule="evenodd" d="M113.066 0C115.036 0 116.987 0.394397 118.801 1.16085C120.616 1.9273 122.259 3.05009 123.633 4.46221C126.432 7.31825 128 11.158 128 15.157C128 19.1559 126.432 22.9957 123.633 25.8517C121.373 28.1719 118.409 29.6797 115.204 30.1415V87.466C115.204 99.4129 108.191 111.174 98.5312 115.437L66.4577 127.473C65.7007 127.825 64.8747 128.005 64.04 128C63.1215 128.002 62.2136 127.804 61.3802 127.418L34.2116 115.061L23.6022 125.472C22.8903 126.188 21.9458 126.626 20.9394 126.707L4.59738 127.987C4.48014 128 4.37567 128 4.26695 128C3.14132 127.997 2.0622 127.549 1.26696 126.752C0.8255 126.311 0.484464 125.78 0.267936 125.196C0.0514297 124.611 -0.035136 123.986 0.0130914 123.364L1.28053 106.741C1.35362 105.724 1.78512 104.765 2.49855 104.036L13.1206 93.6123C12.9172 92.2842 12.8105 90.9424 12.8008 89.5988V16.4244C12.7972 14.858 13.3617 13.3435 14.39 12.1618C15.4183 10.9802 16.84 10.2109 18.3919 9.99805C25.4705 9.1383 49.4458 5.92148 61.4867 0.526162C62.2758 0.186548 63.1258 0.0103184 63.9848 0.00775193C64.8438 0.00521647 65.6947 0.176763 66.4858 0.511628C74.8381 4.26414 88.7819 6.95808 99.6087 8.62209C100.33 7.08207 101.307 5.67539 102.499 4.46221C103.873 3.05009 105.516 1.9273 107.331 1.16085C109.146 0.394401 111.096 4.89468e-06 113.066 0ZM106.67 34.8052V78.9069H106.641C106.749 79.7938 106.749 80.6906 106.641 81.5775H106.67V87.466C106.67 94.7024 102.627 104.176 95.1494 107.487L65.6001 118.417C65.1021 118.625 64.5671 118.731 64.0274 118.729C63.4413 118.728 62.8612 118.61 62.321 118.383L40.294 109.101L37.4839 111.857L63.1786 123.542C63.4311 123.664 63.708 123.729 63.9887 123.731C64.2694 123.732 64.5475 123.671 64.8017 123.552L96.9188 111.503V111.496C104.861 107.98 110.937 97.6313 110.937 87.466V30.1444L110.833 30.1289L106.67 34.8052ZM33.5324 79.5658L33.4946 79.6017L5.51017 107.059L4.26695 123.686L20.6002 122.453L78.6262 65.4922L75.5826 62.4031L23.8599 112.941C23.2674 113.539 22.5617 114.013 21.7843 114.335C21.0071 114.658 20.1734 114.822 19.3318 114.82C18.4901 114.817 17.6567 114.647 16.8813 114.32C16.1059 113.992 15.4033 113.514 14.8144 112.913C13.6245 111.691 12.9589 110.053 12.9588 108.348C12.9588 106.642 13.6243 105.004 14.8144 103.782L66.5623 53.2209L63.5177 50.1317L33.5324 79.5658ZM43.5944 105.859L63.9761 114.449L93.537 103.532C98.5077 101.33 101.799 94.5909 102.322 88.9844C100.521 90.3162 98.3411 91.038 96.101 91.0435H96.0845C94.6803 91.0433 93.2901 90.7619 91.9963 90.216C90.7026 89.6701 89.5315 88.8701 88.5516 87.8643C86.8199 86.0789 85.7454 83.7584 85.5051 81.2829C85.2649 78.8075 85.8731 76.3242 87.2289 74.2393L81.6243 68.5387L43.5944 105.859ZM17.8289 106.803C17.4307 107.226 17.2117 107.786 17.2175 108.367C17.2235 108.948 17.4539 109.505 17.8609 109.919C18.2597 110.31 18.7957 110.529 19.3541 110.529C19.9125 110.529 20.4485 110.31 20.8473 109.919L72.5914 59.3604L70.0478 56.7752L69.5487 56.2655L17.8289 106.803ZM63.9829 4.26744C63.7134 4.27043 63.4472 4.32798 63.1999 4.43507C50.9884 9.90708 28.1615 13.1092 18.9258 14.2335C18.4039 14.3132 17.9282 14.579 17.5867 14.9816C17.2453 15.3842 17.0607 15.8966 17.0673 16.4244V89.5988C17.0673 89.6436 17.0671 89.6871 17.0692 89.7276L21.3357 85.5455V22.157C21.3267 21.1158 21.6993 20.1066 22.3822 19.3207C23.0651 18.535 24.0119 18.0259 25.044 17.8895C36.2679 16.3279 51.8932 13.5976 62.509 9.48449C63.4806 9.09427 64.5666 9.09917 65.5342 9.49902C76.1676 13.1509 87.1395 15.731 98.2861 17.2006C98.0872 15.7182 98.1051 14.2145 98.3394 12.7374C87.3331 11.0307 73.3545 8.27692 64.7697 4.41763C64.5201 4.31599 64.2524 4.26451 63.9829 4.26744ZM49.0682 25.8556C48.2315 25.8596 47.404 26.031 46.6341 26.3585C45.8642 26.686 45.1669 27.1636 44.5837 27.7635C43.3766 29.0086 42.7009 30.6748 42.7009 32.4089C42.701 34.143 43.3765 35.8093 44.5837 37.0542C45.1686 37.6556 45.8681 38.1338 46.6409 38.4602C47.4136 38.7867 48.2448 38.9543 49.0837 38.9544C49.9274 38.9541 50.7625 38.7857 51.5401 38.4583C52.3178 38.1308 53.0229 37.651 53.6127 37.0475C53.8105 36.8458 54.0463 36.6854 54.3065 36.5756C54.5669 36.4657 54.8466 36.4088 55.1292 36.4079C55.4121 36.4085 55.6922 36.4648 55.9528 36.5746C56.2136 36.6845 56.4505 36.8454 56.6486 37.0475L91.602 72.5959C91.9928 72.9946 92.2114 73.5308 92.2115 74.0891C92.2115 74.6475 91.9929 75.1845 91.602 75.5833C90.3942 76.8284 89.7183 78.4949 89.7183 80.2296C89.7183 81.9643 90.3941 83.6308 91.602 84.8759C92.1873 85.4766 92.8867 85.9542 93.6591 86.2809C94.4317 86.6077 95.2622 86.7774 96.101 86.779C96.9442 86.7786 97.7792 86.6099 98.5564 86.2829C99.3337 85.9558 100.038 85.4766 100.628 84.874C101.837 83.628 102.513 81.9597 102.512 80.2238C102.511 78.4879 101.833 76.8207 100.622 75.5765L83.1882 57.842C83.1754 57.8292 83.1555 57.8248 83.1427 57.812L71.0701 45.5426C71.0594 45.5298 71.0547 45.5108 71.042 45.498L53.5934 27.7568C53.0036 27.1548 52.2996 26.6762 51.5226 26.3498C50.7456 26.0234 49.911 25.8554 49.0682 25.8556ZM63.9635 13.4651C53.0534 17.7233 37.0724 20.5222 25.6012 22.1201V81.3643L29.8677 77.1763V27.7955C29.8677 27.2297 30.0926 26.6869 30.4927 26.2868C30.8927 25.8867 31.4356 25.6618 32.0014 25.6618C32.5671 25.6619 33.1101 25.8868 33.5101 26.2868C33.91 26.6869 34.1341 27.2299 34.1341 27.7955V72.9883L60.5333 47.0833L54.9732 41.4273C53.2322 42.5973 51.1813 43.22 49.0837 43.2151H49.0682C47.6632 43.2165 46.272 42.9367 44.9771 42.3914C43.6822 41.8462 42.5094 41.0467 41.5285 40.0407C39.5446 37.9941 38.4355 35.2553 38.4355 32.405C38.4356 29.555 39.5448 26.8168 41.5285 24.7703C42.5093 23.7639 43.6823 22.9639 44.9771 22.4176C46.2719 21.8713 47.6628 21.5894 49.0682 21.5891H49.0808C50.489 21.5874 51.8838 21.8674 53.1825 22.4118C54.4811 22.9562 55.6578 23.7544 56.6437 24.7597L72.6766 41.0707L94.5545 20.9322C84.1404 19.4368 73.8954 16.936 63.9635 13.4651ZM87.5913 56.2412L102.403 71.3071V39.5988L87.5913 56.2412ZM75.6698 44.1153L84.5933 53.1909L89.1291 48.094L80.6834 39.5009L75.6698 44.1153ZM83.821 36.6085L91.9731 44.9002L98.6998 37.342L91.2522 29.7665L83.821 36.6085ZM94.3927 26.8779L101.55 34.1482L106.384 28.7151C103.496 27.2426 101.162 24.8769 99.726 21.9709L94.3927 26.8779ZM113.068 4.26066C111.665 4.26069 110.275 4.54343 108.983 5.09108C107.691 5.63873 106.522 6.44031 105.546 7.44864C103.53 9.50478 102.4 12.2698 102.4 15.1492C102.4 18.0287 103.53 20.7936 105.546 22.8498C106.522 23.8582 107.691 24.6606 108.983 25.2083C110.275 25.756 111.665 26.0377 113.068 26.0378C114.472 26.0378 115.861 25.756 117.153 25.2083C118.445 24.6606 119.614 23.8583 120.59 22.8498C122.608 20.7944 123.739 18.0292 123.739 15.1492C123.738 12.2693 122.608 9.50398 120.59 7.44864C119.614 6.44031 118.445 5.63869 117.153 5.09108C115.861 4.5434 114.472 4.26066 113.068 4.26066Z" fill="white"/>
</svg>
