<svg width="128" height="128" viewBox="0 0 128 128" fill="none" xmlns="http://www.w3.org/2000/svg">
<path d="M113.07 8.68456C113.915 8.68338 114.752 8.8517 115.53 9.17968C116.308 9.50763 117.013 9.98861 117.602 10.5937C117.811 10.7905 117.979 11.0278 118.095 11.291C118.21 11.5541 118.271 11.8377 118.274 12.125C118.278 12.4123 118.223 12.6973 118.113 12.9629C118.004 13.2285 117.841 13.4695 117.636 13.6709C117.431 13.8721 117.187 14.0299 116.92 14.1348C116.652 14.2396 116.365 14.2897 116.078 14.2812C115.791 14.2727 115.509 14.2061 115.248 14.0859C114.987 13.9655 114.753 13.7931 114.56 13.5801C114.366 13.3789 114.134 13.2183 113.878 13.1084C113.621 12.9985 113.345 12.9416 113.066 12.9404C112.787 12.9408 112.511 12.9974 112.254 13.1074C111.997 13.2173 111.766 13.3783 111.573 13.5801C111.375 13.7826 111.137 13.9438 110.876 14.0537C110.614 14.1636 110.333 14.2206 110.05 14.2207L110.056 14.2187C109.636 14.2186 109.225 14.0938 108.875 13.8613C108.525 13.6288 108.253 13.2982 108.09 12.9111C107.927 12.5239 107.882 12.0971 107.961 11.6846C108.04 11.2719 108.239 10.8918 108.533 10.5918C109.124 9.98651 109.829 9.50532 110.608 9.17773C111.388 8.85018 112.225 8.68277 113.07 8.68456Z" fill="#1B1B1B"/>
<path fill-rule="evenodd" clip-rule="evenodd" d="M113.066 0C115.037 0 116.987 0.39468 118.802 1.16113C120.616 1.9275 122.259 3.04998 123.633 4.46191C126.432 7.31797 128 11.1582 128 15.1572C128 19.1561 126.432 22.9955 123.633 25.8515C121.373 28.1716 118.41 29.6798 115.204 30.1416V87.4658C115.204 99.4127 108.191 111.174 98.5313 115.436L66.4581 127.474C65.7012 127.825 64.8757 128.005 64.0411 128C63.1226 128.002 62.2144 127.804 61.381 127.418L34.2121 115.061L23.6017 125.472C22.8899 126.188 21.946 126.626 20.9396 126.707L4.59785 127.987C4.48051 128 4.3756 128 4.26679 128C3.14129 127.997 2.06293 127.548 1.26777 126.752C0.826319 126.312 0.485326 125.781 0.268752 125.196C0.0521875 124.611 -0.0353478 123.986 0.0128929 123.364L1.28047 106.741C1.35355 105.724 1.78498 104.765 2.49824 104.036L13.1203 93.6122C12.9169 92.2842 12.8107 90.943 12.801 89.5995V16.4238C12.7974 14.8575 13.3616 13.3427 14.3898 12.1611C15.4181 10.9795 16.8408 10.2108 18.3927 9.99804C25.4719 9.13821 49.4467 5.92158 61.4874 0.526367C62.2763 0.18686 63.1256 0.0104405 63.9845 0.00781249C64.8435 0.00524614 65.6944 0.176858 66.4854 0.511718C74.8377 4.26433 88.7824 6.95803 99.6094 8.62206C100.331 7.08209 101.308 5.67506 102.5 4.46191C103.874 3.04998 105.516 1.92752 107.331 1.16113C109.146 0.394688 111.096 1.19596e-05 113.066 0ZM106.671 34.8056V78.9062H106.641C106.749 79.7932 106.749 80.6911 106.641 81.5781H106.671V87.4658C106.671 94.7021 102.628 104.176 95.1504 107.487L65.6007 118.417C65.1028 118.625 64.568 118.731 64.0284 118.728C63.4422 118.728 62.8616 118.61 62.3214 118.383L40.2941 109.101L37.4845 111.856L63.1788 123.541C63.4315 123.664 63.7085 123.729 63.9894 123.73C64.2703 123.732 64.5485 123.671 64.8028 123.552L96.919 111.503V111.496C104.862 107.98 110.938 97.6312 110.938 87.4658V30.1435L110.833 30.1289L106.671 34.8056ZM33.5333 79.5663L33.4943 79.6025L5.51093 107.059L4.26679 123.686L20.6008 122.453L78.627 65.4921L75.5821 62.4033L23.8605 112.94C23.2679 113.538 22.5618 114.012 21.7843 114.335C21.007 114.657 20.1729 114.823 19.3312 114.82C18.4898 114.818 17.6572 114.647 16.882 114.32C16.1066 113.993 15.4035 113.514 14.8146 112.913C13.6246 111.691 12.9583 110.053 12.9582 108.348C12.9582 106.642 13.6247 105.004 14.8146 103.782L66.5626 53.2207L63.5187 50.1318L33.5333 79.5663ZM43.5939 105.86L63.9767 114.449L93.5372 103.532C98.508 101.331 101.8 94.5908 102.322 88.9843C100.521 90.3161 98.3417 91.0383 96.1016 91.0439H96.085C94.6808 91.0436 93.2899 90.7617 91.9961 90.2158C90.7027 89.6699 89.5316 88.8707 88.5518 87.8652C86.8201 86.0798 85.7462 83.7587 85.5059 81.2831C85.2657 78.8078 85.8728 76.3242 87.2286 74.2392L81.6241 68.538L43.5939 105.86ZM17.8293 106.803C17.4308 107.226 17.212 107.787 17.2179 108.368C17.224 108.949 17.4546 109.505 17.8615 109.92C18.2603 110.311 18.7964 110.529 19.3547 110.529C19.913 110.529 20.4491 110.311 20.8478 109.92L72.5919 59.3603L70.0489 56.7754L69.5489 56.2656L17.8293 106.803ZM63.9835 4.26758C63.7139 4.27053 63.4477 4.32745 63.2003 4.43457C50.9888 9.90665 28.1616 13.1091 18.926 14.2334C18.4041 14.3131 17.9286 14.5788 17.5871 14.9814C17.2457 15.384 17.0611 15.8961 17.0676 16.4238V89.5995C17.0676 89.6442 17.0674 89.6871 17.0695 89.7275L21.3361 85.5458V22.1562C21.3272 21.1154 21.6993 20.107 22.382 19.3213C23.0649 18.5354 24.012 18.026 25.0441 17.8896C36.2679 16.328 51.8931 13.5975 62.5089 9.48437C63.4805 9.09407 64.5666 9.09916 65.5343 9.49902C76.1678 13.1509 87.1395 15.7316 98.2862 17.2012C98.0873 15.7188 98.1057 14.2145 98.3399 12.7373C87.3338 11.0306 73.3554 8.27719 64.7706 4.41797C64.5209 4.31622 64.2531 4.26464 63.9835 4.26758ZM49.0685 25.8555C48.2318 25.8594 47.4039 26.0309 46.6339 26.3584C45.8642 26.6858 45.1672 27.163 44.5841 27.7627C43.3769 29.0076 42.7014 30.6741 42.7013 32.4082C42.7013 34.1423 43.377 35.8087 44.5841 37.0537C45.1691 37.655 45.8689 38.1335 46.6417 38.4599C47.4143 38.7863 48.2444 38.9548 49.0831 38.9551C49.9269 38.9548 50.7625 38.7854 51.5402 38.458C52.3178 38.1305 53.0226 37.6512 53.6124 37.0478C53.8102 36.846 54.0464 36.685 54.3068 36.5752C54.5671 36.4653 54.8474 36.4081 55.13 36.4072C55.4128 36.4079 55.6926 36.4654 55.9532 36.5752C56.214 36.685 56.4505 36.8457 56.6485 37.0478L91.6026 72.5957C91.9935 72.9944 92.212 73.5314 92.212 74.0898C92.2119 74.6481 91.9934 75.1842 91.6026 75.583C90.3947 76.8281 89.7188 78.4947 89.7188 80.2294C89.7188 81.9642 90.3947 83.6308 91.6026 84.8759C92.188 85.4767 92.8876 85.9544 93.6602 86.2812C94.4328 86.6079 95.2628 86.7777 96.1016 86.7792C96.945 86.7788 97.7803 86.6093 98.5577 86.2822C99.3348 85.955 100.039 85.4766 100.629 84.874C101.838 83.628 102.513 81.9595 102.512 80.2236C102.511 78.4877 101.833 76.8203 100.622 75.5761L83.1885 57.8418C83.1757 57.829 83.1564 57.8243 83.1436 57.8115L71.0704 45.5429C71.0598 45.5302 71.0557 45.5108 71.0431 45.498L53.5939 27.7568C53.0041 27.1548 52.2996 26.677 51.5226 26.3506C50.7456 26.0242 49.9113 25.8552 49.0685 25.8555ZM63.964 13.4648C53.0537 17.7231 37.0721 20.5222 25.6007 22.1201V81.3642L29.8683 77.1767V27.7949C29.8684 27.2292 30.0933 26.6871 30.4933 26.2871C30.8933 25.8871 31.4354 25.6622 32.0011 25.6621C32.5669 25.6621 33.1098 25.887 33.5099 26.2871C33.9098 26.6871 34.1348 27.2293 34.1349 27.7949V72.9882L60.5333 47.083L54.9737 41.4277C53.2326 42.5977 51.1809 43.2198 49.0831 43.2148H49.0685C47.6636 43.2162 46.2725 42.9367 44.9777 42.3916C43.6828 41.8464 42.5103 41.0469 41.5294 40.041C39.5455 37.9944 38.4357 35.2556 38.4357 32.4053C38.4357 29.555 39.5456 26.817 41.5294 24.7705C42.5103 23.764 43.6828 22.9633 44.9777 22.417C46.2724 21.8708 47.6633 21.5891 49.0685 21.5889H49.0812C50.4894 21.5871 51.884 21.8667 53.1827 22.4111C54.4814 22.9555 55.6586 23.7544 56.6446 24.7597L72.6768 41.0713L94.5547 20.9316C84.1407 19.4363 73.8958 16.9357 63.964 13.4648ZM87.5919 56.2412L102.403 71.3076V39.5996L87.5919 56.2412ZM75.67 44.1152L84.5938 53.1914L89.1299 48.0947L80.6837 39.5009L75.67 44.1152ZM83.8214 36.6084L91.9737 44.9004L98.7002 37.3418L91.252 29.7666L83.8214 36.6084ZM94.3926 26.8779L101.551 34.1484L106.385 28.7148C103.497 27.2423 101.162 24.8767 99.7266 21.9707L94.3926 26.8779ZM113.068 4.26074C111.665 4.26077 110.276 4.54317 108.983 5.09082C107.691 5.6385 106.522 6.44071 105.546 7.44921C103.53 9.50538 102.401 12.27 102.401 15.1494C102.401 18.0287 103.53 20.7934 105.546 22.8496C106.522 23.8581 107.691 24.6603 108.983 25.208C110.276 25.7556 111.665 26.038 113.068 26.0381C114.472 26.0381 115.861 25.7556 117.153 25.208C118.446 24.6603 119.615 23.8581 120.591 22.8496C122.608 20.7942 123.738 18.0294 123.738 15.1494C123.738 12.2694 122.608 9.5046 120.591 7.44921C119.615 6.44071 118.446 5.63849 117.153 5.09082C115.861 4.54323 114.472 4.26074 113.068 4.26074Z" fill="#1B1B1B"/>
</svg>
