<svg width="128" height="128" viewBox="0 0 128 128" fill="none" xmlns="http://www.w3.org/2000/svg">
<path fill-rule="evenodd" clip-rule="evenodd" d="M84.0808 111.432C84.4637 110.252 85.6956 109.619 86.8321 110.014C87.9702 110.411 88.5812 111.689 88.1992 112.869L83.778 126.464C83.2336 128.137 81.1277 128.541 80.0417 127.177L75.0431 120.874L65.2001 127.625C64.477 128.125 63.5289 128.125 62.8055 127.625L52.9555 120.874L47.9582 127.176C46.8824 128.528 44.7686 128.15 44.222 126.464L39.8008 112.871C39.4192 111.691 40.0302 110.412 41.1679 110.016C42.3051 109.62 43.5363 110.253 43.9192 111.432L47.085 121.176L50.8425 116.444L50.8439 116.441C51.5521 115.558 52.7957 115.359 53.7197 115.996L64.0014 123.043L74.2803 115.996C75.2059 115.362 76.4501 115.555 77.1561 116.444L80.9135 121.176L84.0808 111.432Z" fill="#1B1B1B"/>
<path fill-rule="evenodd" clip-rule="evenodd" d="M14.6166 16.2346C15.74 16.2346 16.6675 17.1236 16.7791 18.2588L16.7904 18.4893C16.7902 19.4297 16.2361 20.2279 15.4488 20.5664V89.7246H112.551V20.5693C111.761 20.2312 111.21 19.4255 111.21 18.4893C111.21 17.2463 112.185 16.2347 113.383 16.2346H114.725C115.923 16.2346 116.899 17.2463 116.899 18.4893V89.7304H123.652V76.7834H121.382C120.184 76.7831 119.209 75.7715 119.209 74.5286C119.209 73.2864 120.184 72.2741 121.382 72.2739H123.652V50.7836H121.382C120.184 50.7833 119.209 49.7716 119.209 48.5288C119.209 47.2863 120.184 46.2743 121.382 46.2741H123.652V39.6508H121.382C120.184 39.6506 119.209 38.6389 119.209 37.3961C119.209 36.1537 120.184 35.1416 121.382 35.1414H125.826C126.95 35.1414 127.877 36.0308 127.989 37.1657L128 37.3961C128 59.6407 128 81.8853 128 104.129C127.999 105.372 127.024 106.384 125.826 106.384H72.6301C71.7308 110.849 68.2173 114.281 63.9009 114.281C59.5898 114.281 56.0732 110.844 55.1731 106.384H2.17381C1.05049 106.384 0.123413 105.494 0.0113219 104.36L0 104.129V37.3961C0.000261564 36.1541 0.974611 35.1422 2.17239 35.1414L6.61625 35.1355C7.73976 35.1355 8.6684 36.0248 8.78015 37.1598L8.79147 37.3903C8.79121 38.633 7.81588 39.645 6.61766 39.645H4.34762V46.2682H6.61766C7.74115 46.2682 8.66843 47.1574 8.78015 48.2925L8.79147 48.523C8.79121 49.7657 7.81588 50.7777 6.61766 50.7777H4.34762V72.268H6.61766C7.7412 72.2681 8.66836 73.1574 8.78015 74.2923L8.79147 74.5228C8.79121 75.7655 7.81588 76.7775 6.61766 76.7775H4.34762V89.7246H11.1011V18.4893C11.1011 17.2463 12.0767 16.2346 13.275 16.2346H14.6166ZM4.34903 101.875L57.0965 101.88C58.2948 101.88 59.2703 102.892 59.2703 104.135V104.141C59.2706 107.343 61.4427 109.772 63.9066 109.772C66.3513 109.772 68.5025 107.381 68.5358 104.207C68.5336 104.184 68.5318 104.16 68.5316 104.135V104.129L68.5429 103.899C68.6546 102.763 69.5826 101.875 70.7054 101.875H123.659V94.2355H4.34903V101.875Z" fill="#1B1B1B"/>
<path fill-rule="evenodd" clip-rule="evenodd" d="M55.6373 43.8374C56.7603 43.8377 57.6881 44.7266 57.7998 45.8616L57.8112 46.0921V65.0811C57.8109 66.3317 56.8331 67.3355 55.6373 67.3358H29.6309C28.4327 67.3358 27.4573 66.3239 27.4571 65.0811V46.0921C27.4573 44.8495 28.4325 43.8374 29.6309 43.8374H55.6373ZM31.8047 62.8264H53.4635V48.3468H31.8047V62.8264Z" fill="#1B1B1B"/>
<path fill-rule="evenodd" clip-rule="evenodd" d="M91.4189 61.2073C92.5423 61.2073 93.4697 62.0962 93.5814 63.2315L93.5927 63.462C93.5919 64.7039 92.6173 65.7167 91.4189 65.7167H74.0171C72.8937 65.7167 71.9668 64.8268 71.8546 63.6925L71.8433 63.462C71.8433 62.219 72.8187 61.2073 74.0171 61.2073H91.4189Z" fill="#1B1B1B"/>
<path fill-rule="evenodd" clip-rule="evenodd" d="M96.7175 61.1764C97.9159 61.1764 98.8913 62.1882 98.8913 63.4312C98.8911 64.6739 97.9157 65.6859 96.7175 65.6859C95.5303 65.6859 94.527 64.6853 94.5267 63.4312C94.5267 62.1998 95.4741 61.1764 96.6836 61.1764H96.7175Z" fill="#1B1B1B"/>
<path fill-rule="evenodd" clip-rule="evenodd" d="M91.4189 47.7068C92.5423 47.7068 93.4697 48.5958 93.5814 49.7311L93.5927 49.9615C93.5924 51.2042 92.6171 52.2163 91.4189 52.2163H74.0171C72.8188 52.2163 71.8436 51.2042 71.8433 49.9615C71.8433 48.7185 72.8187 47.7068 74.0171 47.7068H91.4189Z" fill="#1B1B1B"/>
<path fill-rule="evenodd" clip-rule="evenodd" d="M96.7175 47.6789C97.841 47.6789 98.7684 48.5679 98.88 49.7032L98.8913 49.9336C98.8906 51.1755 97.9159 52.1884 96.7175 52.1884C95.6043 52.1884 94.6531 51.3082 94.5381 50.1656L94.5267 49.9336C94.5267 48.7022 95.4741 47.6789 96.6836 47.6789H96.7175Z" fill="#1B1B1B"/>
<path fill-rule="evenodd" clip-rule="evenodd" d="M91.4189 34.2078C92.5425 34.2078 93.4695 35.0973 93.5814 36.2321L93.5927 36.4625C93.5924 37.7053 92.6171 38.7173 91.4189 38.7173H74.0171C72.8188 38.7173 71.8435 37.7053 71.8433 36.4625C71.8438 35.2204 72.8186 34.2078 74.0171 34.2078H91.4189Z" fill="#1B1B1B"/>
<path fill-rule="evenodd" clip-rule="evenodd" d="M96.7175 34.1784C97.841 34.1784 98.7684 35.0674 98.88 36.2027L98.8913 36.4332C98.891 37.6758 97.9158 38.6879 96.7175 38.6879C95.5303 38.6879 94.527 37.6872 94.5267 36.4332C94.5267 35.2018 95.4741 34.1784 96.6836 34.1784H96.7175Z" fill="#1B1B1B"/>
<path fill-rule="evenodd" clip-rule="evenodd" d="M33.6091 19.5638C34.4629 18.8423 35.7215 18.8939 36.5174 19.7194L41.6972 25.092C42.5459 25.9728 42.5457 27.3998 41.6972 28.2803L36.5174 33.6529C35.6683 34.5333 34.2925 34.5331 33.4435 33.6529L28.2638 28.2803C27.4149 27.3997 27.4149 25.9727 28.2638 25.092L33.4435 19.7194L33.6091 19.5638ZM32.8746 26.6803L34.9805 28.8646L37.0864 26.6803L34.9805 24.496L32.8746 26.6803Z" fill="#1B1B1B"/>
<path fill-rule="evenodd" clip-rule="evenodd" d="M55.4661 29.7703C56.5895 29.7703 57.517 30.6593 57.6286 31.7945L57.6399 32.025C57.6392 33.267 56.6645 34.2797 55.4661 34.2797H47.4615C46.3386 34.2794 45.4112 33.3899 45.299 32.2555L45.2877 32.025C45.2877 30.782 46.2636 29.7706 47.4615 29.7703H55.4661Z" fill="#1B1B1B"/>
<path fill-rule="evenodd" clip-rule="evenodd" d="M55.4661 20.7323C56.5896 20.7323 57.5168 21.6217 57.6286 22.7565L57.6399 22.987C57.6397 24.2298 56.6643 25.2417 55.4661 25.2417H47.4615C46.2637 25.2414 45.2879 24.2298 45.2877 22.987C45.2881 21.7446 46.2635 20.7326 47.4615 20.7323H55.4661Z" fill="#1B1B1B"/>
<path fill-rule="evenodd" clip-rule="evenodd" d="M91.4189 20.7088C92.5423 20.7088 93.4697 21.5978 93.5814 22.7331L93.5927 22.9635C93.5923 24.2061 92.6171 25.2183 91.4189 25.2183H74.0171C72.8188 25.2183 71.8436 24.2061 71.8433 22.9635C71.8433 21.7205 72.8187 20.7088 74.0171 20.7088H91.4189Z" fill="#1B1B1B"/>
<path fill-rule="evenodd" clip-rule="evenodd" d="M96.7175 20.6794C97.8411 20.6794 98.7681 21.569 98.88 22.7037L98.8913 22.9342C98.8911 24.1769 97.9157 25.1889 96.7175 25.1889C95.5303 25.1889 94.527 24.1883 94.5267 22.9342C94.5272 21.7036 95.474 20.6794 96.6836 20.6794H96.7175Z" fill="#1B1B1B"/>
<path fill-rule="evenodd" clip-rule="evenodd" d="M19.0873 2.25997C19.0873 0.725964 20.5445 -0.391894 21.9773 0.130019C28.1801 2.3882 34.1316 3.2571 40.1829 2.79576H40.1872C50.0205 2.10626 58.04 4.3816 63.9958 9.65829C69.9364 4.38097 77.9553 2.11212 87.776 2.79576H87.7817C93.8331 3.25717 99.797 2.38857 106.017 0.130019L106.02 0.128551C107.443 -0.380639 108.911 0.717526 108.911 2.25997L108.917 76.296C108.916 77.6601 107.767 78.6791 106.512 78.5405L106.26 78.4964C92.3585 75.2266 78.9575 78.3059 65.2256 88.0027L65.2242 88.0042C64.4863 88.5227 63.5189 88.5221 62.7815 88.0042L62.7801 88.0027C49.0486 78.3059 35.6414 75.2269 21.7452 78.4964L21.7409 78.4979C20.3628 78.8132 19.0878 77.7233 19.0873 76.296V2.25997ZM104.568 5.34407C98.8104 7.08223 93.1907 7.7302 87.4788 7.29494C78.1774 6.63931 71.2604 8.80407 66.1752 13.7303V77.2531L66.1639 77.4836C66.0595 78.5427 65.2448 79.388 64.2236 79.4961L64.0014 79.5078C62.8041 79.5073 61.8279 78.496 61.8276 77.2531V13.7318C56.7197 8.79902 49.776 6.64067 40.4957 7.29641L40.4943 7.29494C34.872 7.72399 29.1433 7.06273 23.4364 5.34554L23.4406 73.5525C38.1222 70.8641 51.4617 74.8958 64.0085 83.4301C77.4424 74.2923 90.7589 71.0226 104.568 73.5466V5.34407Z" fill="#1B1B1B"/>
</svg>
