<svg width="128" height="128" viewBox="0 0 128 128" fill="none" xmlns="http://www.w3.org/2000/svg">
<path d="M71.9336 45.04C71.9371 45.0462 71.9401 45.0523 71.9424 45.0566C71.9397 45.0514 71.9342 45.0441 71.9287 45.0342C71.9301 45.0365 71.9325 45.0381 71.9336 45.04Z" fill="#1B1B1B"/>
<path d="M113.071 9.68457C113.782 9.68359 114.486 9.82475 115.141 10.1006C115.795 10.3765 116.389 10.7818 116.885 11.291L116.9 11.3076L116.917 11.3223C117.028 11.4267 117.117 11.5528 117.179 11.6924C117.24 11.8327 117.273 11.9839 117.274 12.1357C117.276 12.2876 117.247 12.4394 117.189 12.5811C117.13 12.7221 117.043 12.8502 116.935 12.957C116.826 13.0634 116.696 13.1473 116.554 13.2031C116.411 13.2589 116.259 13.2857 116.107 13.2812C115.954 13.2767 115.804 13.2412 115.666 13.1777C115.528 13.1141 115.404 13.0228 115.301 12.9092L115.291 12.8984L115.28 12.8877C114.995 12.5907 114.653 12.3525 114.272 12.1895C113.891 12.026 113.481 11.9422 113.07 11.9404H113.064C112.652 11.9411 112.242 12.025 111.86 12.1885C111.483 12.3502 111.142 12.5861 110.858 12.8809C110.753 12.9884 110.626 13.0735 110.487 13.1318C110.35 13.1894 110.204 13.2188 110.056 13.2197V13.2178C109.833 13.2177 109.615 13.1518 109.429 13.0283C109.243 12.9049 109.097 12.7293 109.011 12.5234C108.924 12.3173 108.901 12.0904 108.942 11.8721C108.984 11.6524 109.09 11.4499 109.246 11.291L109.248 11.2891C109.744 10.7802 110.339 10.3765 110.995 10.1006L111.243 10.0029C111.828 9.791 112.445 9.68329 113.067 9.68457H113.071Z" fill="#1B1B1B"/>
<path fill-rule="evenodd" clip-rule="evenodd" d="M113.41 1.00391C115.129 1.04692 116.826 1.41239 118.412 2.08203C119.998 2.75178 121.443 3.71375 122.673 4.91602L122.919 5.16211C125.535 7.83125 127 11.4201 127 15.1572C127 18.8941 125.535 22.4823 122.919 25.1514L122.916 25.1543C120.81 27.3162 118.048 28.721 115.061 29.1514L114.203 29.2754V87.4658C114.203 99.0738 107.378 110.427 98.1475 114.513L66.1065 126.536L66.0703 126.55L66.0362 126.565C65.413 126.855 64.7329 127.004 64.0459 127H64.0371C63.2648 127.002 62.5015 126.834 61.8008 126.51L61.794 126.507L34.001 113.866L22.9014 124.758L22.8926 124.767C22.3494 125.313 21.629 125.647 20.8614 125.71L4.51956 126.99L4.50394 126.991L4.48929 126.993C4.43428 126.999 4.38203 126.999 4.26761 126.999C3.40722 126.997 2.58238 126.654 1.97464 126.045L1.97269 126.044L1.84964 125.914C1.56997 125.603 1.35159 125.241 1.20608 124.849C1.04 124.4 0.972701 123.919 1.00979 123.44L2.27737 106.817L2.27835 106.812C2.33423 106.036 2.66143 105.304 3.20315 104.745L14.1866 93.9678L14.1094 93.4609C13.9379 92.3406 13.8373 91.2102 13.8086 90.0771L13.8008 89.5918V16.4219C13.7977 15.0976 14.2753 13.8173 15.1446 12.8184C16.0132 11.8202 17.2135 11.17 18.5235 10.9893C22.079 10.5572 29.8596 9.53544 38.2647 7.94531C46.6482 6.35926 55.7457 4.19102 61.8819 1.44434C62.5467 1.15821 63.2632 1.01004 63.9873 1.00781C64.7111 1.00568 65.429 1.14947 66.0957 1.43164C74.5907 5.24272 88.6502 7.94941 99.4571 9.61035L100.196 9.72461L100.515 9.0459C101.188 7.60844 102.101 6.29541 103.213 5.16309L103.216 5.15918C104.496 3.84287 106.028 2.79642 107.72 2.08203C109.411 1.36772 111.23 1.00002 113.066 1L113.41 1.00391ZM32.8438 78.8408L32.8067 78.876L32.7998 78.8818L32.794 78.8877L4.54104 106.609L3.18265 124.771L21.0401 123.423L80.042 65.5039L75.5957 60.9922L23.1612 112.226L23.1553 112.231L23.1494 112.236C22.6504 112.74 22.0561 113.139 21.4014 113.411C20.7469 113.683 20.0441 113.821 19.335 113.819C18.7146 113.817 18.0992 113.708 17.5176 113.496L17.2705 113.398C16.6172 113.123 16.0244 112.719 15.5283 112.213C14.5218 111.178 13.9591 109.791 13.959 108.348C13.959 106.903 14.5224 105.514 15.5303 104.479L67.9795 53.2344L63.5293 48.7188L32.8438 78.8408ZM105.67 34.4248V77.9072H105.511L105.648 79.0283C105.747 79.8343 105.747 80.6501 105.648 81.4561L105.511 82.5771H105.67V87.4658C105.67 90.9142 104.702 94.9328 102.829 98.4824C100.959 102.026 98.231 105.021 94.7637 106.563L65.253 117.479L65.2334 117.486L65.2149 117.494C64.84 117.651 64.4373 117.73 64.0323 117.729H64.0284C63.5759 117.728 63.1267 117.637 62.709 117.461L40.0694 107.921L35.7432 112.163L62.7647 124.451C63.1455 124.632 63.5617 124.728 63.9825 124.73C64.3949 124.733 64.8032 124.646 65.1797 124.478L97.919 112.195V112.131C105.989 108.189 111.937 97.6971 111.938 87.4658V29.2812L110.444 29.0605L105.67 34.4248ZM41.8223 106.197L63.9522 115.523L93.8838 104.47L93.9131 104.459L93.9424 104.446C96.6894 103.229 98.8937 100.801 100.467 98.0283C102.045 95.2463 103.043 92.0235 103.317 89.0771L103.525 86.8506L101.728 88.1807C100.098 89.3857 98.1253 90.0389 96.0987 90.0439H96.085C94.8143 90.0437 93.5555 89.7889 92.3848 89.2949C91.2144 88.801 90.1545 88.0764 89.2676 87.166C87.6948 85.5435 86.7184 83.4354 86.5 81.1865C86.2817 78.9369 86.835 76.6793 88.0674 74.7842L88.5049 74.1113L81.6367 67.125L41.8223 106.197ZM17.1299 106.088L17.1006 106.117C16.5254 106.728 16.2094 107.538 16.2178 108.377C16.2264 109.216 16.5592 110.021 17.1475 110.62L17.1612 110.634C17.747 111.208 18.5342 111.529 19.3535 111.529C20.1728 111.529 20.9602 111.208 21.5459 110.635L74.0078 59.374L70.7608 56.0742L69.5645 54.8516L17.1299 106.088ZM63.9717 3.26758C63.5673 3.27208 63.17 3.35857 62.8028 3.51758L62.791 3.52246C56.7967 6.20854 48.1327 8.3606 39.7569 9.9834C31.4011 11.6023 23.4103 12.6805 18.8047 13.2412L18.7901 13.2432L18.7744 13.2451C18.0144 13.3613 17.3217 13.7484 16.8242 14.335C16.3297 14.9183 16.0608 15.6599 16.0674 16.4248V89.5986C16.0674 89.6327 16.0665 89.7073 16.0703 89.7803L16.1866 91.9932L22.0352 86.2598L22.336 85.9658V22.1484C22.3291 21.3515 22.6138 20.5784 23.1367 19.9766C23.6596 19.375 24.3848 18.9853 25.1748 18.8809L25.1817 18.8799C36.4064 17.3181 52.1353 14.5762 62.8701 10.417L62.8819 10.4121C63.6113 10.1192 64.4266 10.123 65.1524 10.4229L65.1807 10.4346L65.209 10.4443C75.9054 14.1179 86.9427 16.7141 98.1553 18.1924L99.4512 18.3633L99.2774 17.0674C99.0915 15.6813 99.1082 14.2748 99.3272 12.8936L99.4844 11.9033L98.4922 11.749C87.4786 10.0412 73.6258 7.30274 65.1797 3.50586L65.1631 3.49805L65.1465 3.49121C64.8216 3.35895 64.475 3.28341 64.1231 3.26953L63.9717 3.26758ZM49.0635 24.8555C48.0934 24.8601 47.1339 25.0593 46.2422 25.4385C45.3503 25.8179 44.5421 26.3712 43.8662 27.0664L43.8653 27.0674C42.4775 28.4988 41.7012 30.4151 41.7012 32.4092C41.7014 34.403 42.4776 36.3186 43.8653 37.75L43.8672 37.752C44.5451 38.4487 45.3563 39.0034 46.252 39.3818C47.1483 39.7604 48.1125 39.9538 49.084 39.9541C50.0604 39.9537 51.0273 39.759 51.9278 39.3799C52.8275 39.001 53.6435 38.4461 54.3262 37.748C54.4312 37.6409 54.5571 37.5554 54.6953 37.4971C54.8322 37.4393 54.9796 37.4091 55.1289 37.4082C55.2799 37.4088 55.428 37.4387 55.5645 37.4961L55.666 37.5449C55.7649 37.5987 55.8558 37.6667 55.9346 37.7471L55.9356 37.749L90.8877 73.2959C91.0949 73.5072 91.2108 73.7919 91.211 74.0889C91.211 74.3492 91.1221 74.6005 90.961 74.8008L90.8877 74.8828L90.8838 74.8867C89.4952 76.3183 88.7178 78.2348 88.7178 80.2295C88.7179 82.2241 89.4951 84.1407 90.8838 85.5723L90.8858 85.5742C91.564 86.2703 92.3748 86.8236 93.2696 87.2021C94.1642 87.5805 95.1265 87.7774 96.0987 87.7793H96.1016C97.0777 87.7788 98.0446 87.5836 98.9444 87.2051C99.8442 86.8264 100.66 86.2709 101.343 85.5732L101.346 85.5703C102.736 84.1377 103.513 82.219 103.512 80.2227C103.51 78.2267 102.731 76.3095 101.339 74.8789L101.335 74.875L83.9014 57.1406L83.8955 57.1348L83.7901 57.043L83.7871 57.041L71.8467 44.9062C71.8218 44.873 71.7926 44.8351 71.7549 44.7969L54.3067 27.0557C53.6242 26.3594 52.8095 25.8056 51.9102 25.4277C51.0105 25.0498 50.0432 24.8552 49.0674 24.8555H49.0635ZM63.5996 12.5332C52.8096 16.7445 36.9328 19.5322 25.4629 21.1299L24.6006 21.25V83.7471L30.5684 77.8896L30.8672 77.5957V27.7959C30.8672 27.4956 30.9869 27.2067 31.1992 26.9941C31.4118 26.7816 31.7006 26.6622 32.001 26.6621C32.3016 26.6622 32.5903 26.7817 32.8028 26.9941L32.878 27.0771C33.0426 27.2784 33.1338 27.5324 33.1338 27.7959V75.3711L61.9483 47.0957L55.1045 40.1348L54.4151 40.5977C52.8397 41.6562 50.9838 42.2192 49.086 42.2148H49.0674C47.7959 42.2161 46.5368 41.963 45.3653 41.4697C44.3399 41.038 43.3988 40.43 42.585 39.6748L42.2442 39.3428C40.4426 37.4831 39.4356 34.9947 39.4356 32.4053C39.4357 29.8161 40.4428 27.3284 42.2442 25.4688C43.1317 24.5581 44.1934 23.8333 45.3653 23.3389C46.5372 22.8444 47.7967 22.5891 49.0684 22.5889H49.0821C50.3568 22.5873 51.6199 22.8411 52.7959 23.334C53.9716 23.8269 55.037 24.5498 55.9297 25.46L55.9307 25.4609L72.6416 42.4619L96.7813 20.2412L94.6963 19.9424C84.3462 18.4562 74.1638 15.971 64.293 12.5215L63.9444 12.3994L63.5996 12.5332ZM86.2227 56.2754L103.403 73.751V36.9707L86.2227 56.2754ZM74.2325 44.0791L84.6299 54.6543L90.4981 48.0596L80.7178 38.1094L74.2325 44.0791ZM82.3838 36.5723L92.0098 46.3633L100.068 37.3076L91.2871 28.375L82.3838 36.5723ZM92.9541 26.8428L101.586 35.6113L107.991 28.4121L106.838 27.8242C104.143 26.4496 101.962 24.2412 100.622 21.5283L100.031 20.3311L92.9541 26.8428ZM113.067 3.26074C111.53 3.26086 110.008 3.57024 108.593 4.16992C107.179 4.76907 105.9 5.64622 104.831 6.74902C102.632 8.99201 101.401 12.0085 101.4 15.1494C101.4 18.2905 102.632 21.3058 104.831 23.5488C105.899 24.6516 107.179 25.5295 108.593 26.1289C110.008 26.7288 111.53 27.038 113.067 27.0381C114.605 27.0381 116.127 26.7289 117.543 26.1289C118.959 25.5288 120.239 24.6495 121.309 23.5449L121.308 23.5439C123.505 21.3022 124.738 18.2891 124.738 15.1494C124.738 12.0074 123.504 8.99027 121.304 6.74805C121.304 6.74805 118.956 4.76886 117.543 4.16992C116.305 3.64514 114.984 3.34287 113.644 3.27539L113.067 3.26074Z" fill="#1B1B1B"/>
</svg>
