<svg width="70" height="101" viewBox="0 0 70 101" fill="none" xmlns="http://www.w3.org/2000/svg">
<path d="M0 80.5V0H70V80.5L35 100.5L0 80.5Z" fill="#58508D"/>
<path d="M53.6963 16.1562C54.5711 15.2815 55.9895 15.2815 56.8643 16.1562C57.7386 17.0309 57.7386 18.4485 56.8643 19.3232L49.5605 26.627V33.9287C49.5605 39.2858 48.7836 43.6275 47.2197 46.9521L54.8203 54.5527C55.2261 54.0566 55.8552 53.3949 56.6934 52.9395C56.0134 52.8686 55.3137 52.7147 54.5889 52.4346C53.0954 51.8572 51.6889 50.8226 50.1709 49.3047C49.2965 48.43 49.2966 47.0124 50.1709 46.1377C51.0456 45.263 52.4641 45.2622 53.3389 46.1367C54.6222 47.42 55.5149 47.9894 56.2041 48.2559C56.8518 48.5062 57.4992 48.5605 58.4658 48.4639C59.3284 48.3777 60.1633 48.7968 60.6094 49.54C61.07 50.3077 61.6232 51.5799 61.7988 52.79C61.8811 53.3573 61.9389 54.2807 61.5186 55.1631C61.2853 55.6525 60.904 56.126 60.3428 56.459C59.8333 56.761 59.2943 56.8762 58.8037 56.8916C58.7948 56.8971 58.7839 56.9036 58.7715 56.9121C58.6494 56.9959 58.4689 57.1614 58.251 57.4346C58.1702 57.5358 58.0925 57.6421 58.0176 57.75L62.3438 62.0762C63.2185 62.951 63.2185 64.3694 62.3438 65.2441C61.469 66.1184 60.0514 66.1186 59.1768 65.2441L54.8496 60.917C54.7425 60.9914 54.6376 61.0693 54.5371 61.1494C54.265 61.3664 54.0999 61.5456 54.0166 61.667C54.0079 61.6797 54.0007 61.6912 53.9951 61.7002C53.9796 62.1911 53.8655 62.7301 53.5635 63.2393C53.2306 63.8001 52.7573 64.1808 52.2686 64.4141C51.3867 64.8348 50.4627 64.778 49.8945 64.6963C48.6835 64.5221 47.4103 63.9706 46.6406 63.5088C45.8973 63.0627 45.4782 62.2279 45.5645 61.3652C45.6696 60.3135 45.6373 59.7204 45.4297 59.1416C45.211 58.532 44.7075 57.7007 43.4219 56.415C42.5472 55.5403 42.5471 54.1218 43.4219 53.2471C44.2967 52.3724 45.7151 52.3733 46.5898 53.248C48.1052 54.7635 49.1127 56.1433 49.6455 57.6279C49.8838 58.2921 50.0095 58.9315 50.0654 59.5479C50.5186 58.7324 51.1647 58.1187 51.6523 57.7197L44.6895 50.7568C42.1332 53.4944 38.7529 54.7002 35 54.7002C31.2751 54.7001 27.9184 53.5117 25.3691 50.8174L18.4658 57.7197C18.9535 58.1187 19.6002 58.732 20.0537 59.5479C20.1096 58.9315 20.2363 58.2921 20.4746 57.6279C21.0075 56.1433 22.0149 54.7635 23.5303 53.248C24.4051 52.3733 25.8235 52.3723 26.6982 53.2471C27.573 54.1218 27.5729 55.5402 26.6982 56.415C25.4127 57.7007 24.9092 58.532 24.6904 59.1416C24.4828 59.7204 24.4505 60.3134 24.5557 61.3652C24.6419 62.2278 24.2228 63.0627 23.4795 63.5088C22.7098 63.9706 21.4358 64.5221 20.2246 64.6963C19.6564 64.7779 18.7331 64.8346 17.8516 64.4141C17.3629 64.1808 16.8895 63.8002 16.5566 63.2393C16.2545 62.7301 16.1405 62.1911 16.125 61.7002C16.1194 61.6912 16.1123 61.6798 16.1035 61.667C16.0202 61.5457 15.8551 61.3665 15.583 61.1494C15.4823 61.0691 15.3759 60.9925 15.2686 60.918L10.8232 65.3643C9.94858 66.2385 8.53094 66.2384 7.65625 65.3643C6.78148 64.4895 6.78151 63.0711 7.65625 62.1963L12.1006 57.75C12.0258 57.6424 11.9497 57.5356 11.8691 57.4346C11.6512 57.1614 11.4707 56.9959 11.3486 56.9121C11.3363 56.9037 11.3253 56.8971 11.3164 56.8916C10.8258 56.8762 10.2868 56.761 9.77734 56.459C9.21609 56.126 8.83477 55.6525 8.60156 55.1631C8.18122 54.2807 8.239 53.3573 8.32129 52.79C8.49694 51.5799 9.05015 50.3077 9.51074 49.54C9.95684 48.7968 10.7917 48.3776 11.6543 48.4639C12.6209 48.5605 13.2683 48.5062 13.916 48.2559C14.6051 47.9893 15.498 47.4199 16.7812 46.1367C17.6561 45.2623 19.0745 45.263 19.9492 46.1377C20.8234 47.0124 20.8235 48.43 19.9492 49.3047C18.4312 50.8227 17.0238 51.8572 15.5303 52.4346C14.8057 52.7146 14.1066 52.8686 13.4268 52.9395C14.2647 53.3947 14.893 54.0566 15.2988 54.5527L22.8184 47.0332C21.2288 43.6983 20.4404 39.3294 20.4404 33.9287V26.5078L13.2559 19.3232C12.3815 18.4485 12.3815 17.0309 13.2559 16.1562C14.1307 15.2816 15.5491 15.2815 16.4238 16.1562L21.6289 21.3613C21.9422 21.1946 22.2999 21.1006 22.6797 21.1006H47.3203C47.7311 21.1007 48.1153 21.2123 48.4463 21.4053L53.6963 16.1562ZM24.9199 33.9287C24.9199 40.3301 26.1218 44.4134 27.8818 46.8447C29.5517 49.1514 31.9043 50.2197 35 50.2197C38.0956 50.2197 40.4473 49.1512 42.1172 46.8447C43.8773 44.4134 45.0801 40.3304 45.0801 33.9287V25.5791H24.9199V33.9287ZM38.5967 38.0176C39.15 36.9115 40.4952 36.4636 41.6016 37.0166C42.7081 37.5699 43.1578 38.9159 42.6045 40.0225C39.5389 46.153 30.4623 46.1528 27.3965 40.0225C26.8433 38.9162 27.2915 37.5701 28.3975 37.0166C29.5038 36.4634 30.8499 36.9115 31.4033 38.0176C32.8179 40.8466 37.1821 40.8466 38.5967 38.0176Z" fill="white"/>
</svg>
