<svg width="679" height="101" viewBox="0 0 679 101" fill="none" xmlns="http://www.w3.org/2000/svg">
<path d="M627.914 69.5149C629.347 69.5149 630.559 69.0189 631.551 68.0271C632.598 66.9801 633.149 65.7403 633.204 64.3077V18.5174C633.149 16.7541 632.405 15.349 630.973 14.3021C630.091 13.6408 629.071 13.3102 627.914 13.3102H626.84V12.4837H663.455C665.825 12.4837 667.919 12.2908 669.737 11.9051C671.611 11.5194 672.795 11.2163 673.291 10.9959V28.0226H672.465V27.3614C672.465 22.9532 670.867 19.8674 667.671 18.1042C666.128 17.2225 664.282 16.7541 662.133 16.699H650.148V39.7595H659.157C661.802 39.7044 663.951 38.8503 665.604 37.1972C667.258 35.489 668.084 33.3125 668.084 30.6675V30.3369H668.911V53.3147H668.084V52.9014C668.084 50.3116 667.258 48.1902 665.604 46.5371C663.951 44.8289 661.83 43.9473 659.24 43.8922H650.148V66.1261H660.315C664.337 66.1261 667.891 64.8036 670.977 62.1587C674.063 59.5137 676.239 55.8494 677.507 51.1657H678.333L675.192 70.3414H626.84V69.5149H627.914Z" fill="white"/>
<path d="M590.395 71.4985C580.531 71.4985 572.679 68.8261 566.838 63.4811C561.053 58.0811 558.16 50.6973 558.16 41.3299C558.16 31.9073 561.08 24.5511 566.921 19.2613C572.762 13.9714 580.862 11.3265 591.221 11.3265C595.685 11.3265 600.286 11.7122 605.024 12.4837C609.763 13.2 613.372 14.0817 615.852 15.1286L615.026 30.9155H614.282C611.416 20.6113 605.107 15.4592 595.354 15.4592C582.68 15.4592 576.344 24.3307 576.344 42.0738C576.344 50.1187 577.638 56.3453 580.228 60.7535C582.873 65.1617 586.868 67.3658 592.213 67.3658C595.134 67.3658 597.668 66.5944 599.817 65.0515C602.021 63.4536 603.123 61.277 603.123 58.5219L603.206 47.1983C603.206 45.986 602.82 45.0769 602.049 44.4707C601.333 43.8095 600.313 43.4789 598.991 43.4789H597.668V42.6523H625.44V43.4789H624.2C622.823 43.4789 621.776 43.8095 621.059 44.4707C620.343 45.0769 620.012 45.986 620.067 47.1983V60.8362C616.982 64.7485 611.389 67.7516 603.289 69.8455C599.101 70.9475 594.803 71.4985 590.395 71.4985Z" fill="white"/>
<path d="M547.211 21.5756C548.093 23.5042 548.534 25.5155 548.534 27.6094C548.534 29.6482 548.313 31.4665 547.872 33.0645C547.432 34.6074 546.743 36.1503 545.806 37.6931C543.767 40.9993 540.268 43.0381 535.309 43.8095C537.458 44.4157 539.387 45.4902 541.095 47.033C542.913 48.5759 544.621 50.7249 546.219 53.48C550.352 60.5332 553.52 65.0791 555.725 67.1179C557.378 68.6608 559.472 69.4598 562.006 69.5149V70.3414H551.675C544.511 70.3414 539.387 69.5424 536.301 67.9445C531.893 65.6852 528.752 61.8005 526.878 56.2903C526.382 54.6923 525.942 53.0117 525.556 51.2484C525.225 49.4851 524.922 48.2177 524.647 47.4463C524.426 46.6198 524.151 45.8759 523.82 45.2146C523.49 44.4983 523.131 43.9473 522.746 43.5616C522.084 42.9003 521.313 42.4044 520.431 42.0738V41.2473H521.754C524.95 41.2473 527.347 39.787 528.945 36.8666C529.771 35.3237 530.267 33.6706 530.433 31.9074C530.653 30.089 530.763 28.9594 530.763 28.5186C530.763 28.0777 530.763 27.8022 530.763 27.692C530.377 20.4185 527.237 16.7817 521.341 16.7817H517.704V64.3077C517.704 65.7403 518.227 66.9802 519.274 68.0271C520.321 69.0189 521.561 69.5149 522.994 69.5149H523.985V70.3414H494.313V69.5149H495.387C496.82 69.5149 498.032 69.0189 499.024 68.0271C500.071 67.0353 500.622 65.823 500.677 64.3903V18.5174C500.622 16.4786 499.74 14.9633 498.032 13.9715C497.206 13.5307 496.324 13.3102 495.387 13.3102H494.313V12.4837H526.63C537.431 12.4837 544.291 15.5143 547.211 21.5756Z" fill="white"/>
<path d="M455.808 11.3265C462.916 11.3265 469.032 12.5112 474.157 14.8806C479.336 17.2501 483.304 20.7215 486.059 25.295C488.814 29.8134 490.192 35.1859 490.192 41.4125C490.192 50.8351 487.133 58.2188 481.017 63.5638C474.901 68.8536 466.498 71.4985 455.808 71.4985C445.118 71.4985 436.715 68.8536 430.598 63.5638C424.537 58.2188 421.506 50.8351 421.506 41.4125C421.506 31.99 424.537 24.6338 430.598 19.3439C436.715 13.999 445.118 11.3265 455.808 11.3265ZM443.988 60.5056C446.853 65.0791 450.793 67.3658 455.808 67.3658C460.877 67.3658 464.817 65.0791 467.627 60.5056C470.492 55.9321 471.925 49.5677 471.925 41.4125C471.925 33.2573 470.492 26.893 467.627 22.3195C464.817 17.746 460.877 15.4592 455.808 15.4592C450.793 15.4592 446.853 17.746 443.988 22.3195C441.178 26.893 439.773 33.2573 439.773 41.4125C439.773 49.5677 441.178 55.9321 443.988 60.5056Z" fill="white"/>
<path d="M392.258 16.699V39.7595H401.268C403.913 39.7044 406.062 38.8503 407.715 37.1972C409.368 35.489 410.194 33.34 410.194 30.7502V30.3369H411.021V53.3147H410.194V52.9014C410.194 50.3116 409.368 48.1902 407.715 46.5371C406.062 44.8289 403.94 43.9473 401.35 43.8922H392.258V64.3077C392.258 65.7403 392.782 66.9801 393.829 68.0271C394.876 69.0189 396.116 69.5149 397.548 69.5149H398.623V70.3414H368.95V69.5149H370.025C371.457 69.5149 372.669 69.0189 373.661 68.0271C374.708 66.9801 375.259 65.7403 375.314 64.3077V18.5174C375.259 17.0848 374.708 15.8725 373.661 14.8807C372.669 13.8337 371.457 13.3102 370.025 13.3102H368.95V12.4837H405.566C407.935 12.4837 410.029 12.2908 411.847 11.9051C413.666 11.5194 414.851 11.2163 415.402 10.9959V28.0226H414.575V27.3614C414.575 22.9532 412.977 19.8674 409.781 18.1042C408.238 17.2225 406.392 16.7541 404.243 16.699H392.258Z" fill="white"/>
<path d="M314.976 69.5149C316.408 69.5149 317.621 69.0189 318.613 68.0271C319.66 66.9801 320.211 65.7403 320.266 64.3077V18.5174C320.211 16.7541 319.467 15.349 318.034 14.3021C317.152 13.6408 316.133 13.3102 314.976 13.3102H313.901V12.4837H350.517C352.886 12.4837 354.98 12.2908 356.799 11.9051C358.672 11.5194 359.857 11.2163 360.353 10.9959V28.0226H359.526V27.3614C359.526 22.9532 357.928 19.8674 354.732 18.1042C353.189 17.2225 351.344 16.7541 349.195 16.699H337.21V39.7595H346.219C348.864 39.7044 351.013 38.8503 352.666 37.1972C354.319 35.489 355.146 33.3125 355.146 30.6675V30.3369H355.972V53.3147H355.146V52.9014C355.146 50.3116 354.319 48.1902 352.666 46.5371C351.013 44.8289 348.891 43.9473 346.302 43.8922H337.21V66.1261H347.376C351.399 66.1261 354.953 64.8036 358.038 62.1587C361.124 59.5137 363.301 55.8494 364.568 51.1657H365.395L362.254 70.3414H313.901V69.5149H314.976Z" fill="white"/>
<path d="M277.456 71.4985C267.593 71.4985 259.741 68.8261 253.9 63.4811C248.114 58.0811 245.221 50.6973 245.221 41.3299C245.221 31.9073 248.142 24.5511 253.982 19.2613C259.823 13.9714 267.923 11.3265 278.283 11.3265C282.746 11.3265 287.347 11.7122 292.086 12.4837C296.825 13.2 300.434 14.0817 302.913 15.1286L302.087 30.9155H301.343C298.478 20.6113 292.168 15.4592 282.415 15.4592C269.742 15.4592 263.405 24.3307 263.405 42.0738C263.405 50.1187 264.7 56.3453 267.29 60.7535C269.935 65.1617 273.93 67.3658 279.274 67.3658C282.195 67.3658 284.73 66.5944 286.879 65.0515C289.083 63.4536 290.185 61.277 290.185 58.5219L290.267 47.1983C290.267 45.986 289.882 45.0769 289.11 44.4707C288.394 43.8095 287.375 43.4789 286.052 43.4789H284.73V42.6523H312.501V43.4789H311.262C309.884 43.4789 308.837 43.8095 308.121 44.4707C307.404 45.0769 307.074 45.986 307.129 47.1983V60.8362C304.043 64.7485 298.45 67.7516 290.35 69.8455C286.162 70.9475 281.864 71.4985 277.456 71.4985Z" fill="white"/>
<path d="M247.581 69.5149H248.242V70.3414H216.916V69.5149H217.66C218.872 69.5149 219.781 69.1567 220.388 68.4404C220.994 67.6689 221.297 66.9801 221.297 66.374C221.297 65.7128 221.159 65.024 220.883 64.3077L217.66 56.6209H199.972L196.666 64.3077C196.39 65.024 196.253 65.6026 196.253 66.0434C196.253 66.4842 196.335 66.9801 196.501 67.5312C196.721 68.0271 197.134 68.4955 197.74 68.9363C198.402 69.322 199.09 69.5149 199.807 69.5149H200.551V70.3414H182.119V69.5149H182.863C184.13 69.5149 185.37 69.1567 186.582 68.4404C187.849 67.6689 188.896 66.5393 189.723 65.0516L208.981 22.8154C211.902 16.6439 213.472 12.5388 213.693 10.5H214.436L240.638 64.9689C242.401 67.9995 244.715 69.5149 247.581 69.5149ZM201.79 52.4882H215.924L208.981 35.9574L201.79 52.4882Z" fill="white"/>
<path d="M169.913 16.5337V64.3903C169.968 65.823 170.492 67.0353 171.484 68.0271C172.531 69.019 173.77 69.5149 175.203 69.5149H176.277V70.3414H146.605V69.5149H147.679C149.112 69.5149 150.324 69.019 151.316 68.0271C152.363 67.0353 152.914 65.8506 152.969 64.473V16.5337H144.786C141.48 16.5889 138.89 17.5807 137.017 19.5093C135.143 21.3828 134.207 23.9726 134.207 27.2787V27.8573L133.38 27.94V10.9133C134.152 11.2439 135.529 11.5745 137.513 11.9051C139.552 12.2357 141.425 12.4011 143.133 12.4011H179.749C181.457 12.4011 183.303 12.2357 185.287 11.9051C187.27 11.5745 188.676 11.2439 189.502 10.9133V27.94L188.676 27.8573V27.2787C188.676 22.8154 187.022 19.6746 183.716 17.8562C182.118 17.0297 180.217 16.5889 178.013 16.5337H169.913Z" fill="white"/>
<path d="M129.369 51.6616C129.369 58.329 126.999 63.3158 122.261 66.622C117.522 69.873 111.213 71.4985 103.333 71.4985C98.7593 71.4985 94.7368 71.0026 91.2654 70.0108C87.7939 68.9638 85.2868 67.6689 83.7439 66.126C83.248 64.9138 83 63.6189 83 62.2413C83 60.8086 83.1102 59.4311 83.3306 58.1086C83.9367 54.8576 84.9561 52.3228 86.3888 50.5045H87.1327C87.0776 50.8351 87.05 51.1932 87.05 51.579C87.05 55.6565 88.648 59.3209 91.844 62.5719C95.095 65.7679 99.5032 67.3658 105.069 67.3658C108.816 67.3658 111.681 66.5944 113.665 65.0515C115.703 63.4536 116.723 61.6627 116.723 59.679C116.723 57.6402 116.034 55.9045 114.656 54.4718C113.279 53.0392 111.047 51.6065 107.961 50.1738L94.4889 43.8921C90.6868 42.184 87.9317 39.787 86.2235 36.7013C84.8459 34.2767 84.1572 31.6043 84.1572 28.6838C84.1572 22.7328 86.1684 18.2143 90.1909 15.1286C93.5521 12.5939 98.0155 11.3265 103.581 11.3265C107.218 11.3265 111.874 11.602 117.549 12.1531H123.996L122.178 25.6256H121.351C121.351 22.595 120.167 20.1429 117.797 18.2694C115.428 16.396 112.397 15.4592 108.705 15.4592C105.069 15.4592 102.231 16.0929 100.192 17.3603C98.2083 18.6276 97.1338 20.3082 96.9685 22.4021C96.7481 24.992 98.4012 27.1961 101.928 29.0145C102.534 29.3451 103.333 29.7032 104.325 30.089L119.781 37.2798C126.173 40.2003 129.369 44.9942 129.369 51.6616Z" fill="white"/>
<path d="M0 80.5V0H70V80.5L35 100.5L0 80.5Z" fill="#E7C74B"/>
<path d="M47.6914 41.966C47.6914 42.2437 47.4622 42.4702 47.1811 42.4702C46.9 42.4702 46.6708 42.2437 46.6708 41.966V40.9674C46.6708 40.6897 46.9 40.4633 47.1811 40.4633C47.4622 40.4633 47.6914 40.6897 47.6914 40.9674V41.966ZM47.1811 43.7996C46.9 43.7996 46.6708 44.0261 46.6708 44.3038V45.3023C46.6708 45.58 46.9 45.8065 47.1811 45.8065C47.4622 45.8065 47.6914 45.58 47.6914 45.3023V44.3038C47.6914 44.0261 47.4622 43.7996 47.1811 43.7996ZM48.3632 43.6381H49.3739C49.6549 43.6381 49.8842 43.4116 49.8842 43.1339C49.8842 42.8562 49.6549 42.6297 49.3739 42.6297H48.3632C48.0821 42.6297 47.8529 42.8562 47.8529 43.1339C47.8529 43.4136 48.0821 43.6381 48.3632 43.6381ZM44.9863 43.6381H45.997C46.2781 43.6381 46.5073 43.4116 46.5073 43.1339C46.5073 42.8562 46.2781 42.6297 45.997 42.6297H44.9863C44.7052 42.6297 44.476 42.8562 44.476 43.1339C44.476 43.4136 44.7033 43.6381 44.9863 43.6381ZM22.1758 44.1777C22.1758 43.9 21.9465 43.6735 21.6654 43.6735C21.3844 43.6735 21.1551 43.9 21.1551 44.1777V45.1763C21.1551 45.454 21.3844 45.6805 21.6654 45.6805C21.9465 45.6805 22.1758 45.454 22.1758 45.1763V44.1777ZM21.6654 47.0118C21.3844 47.0118 21.1551 47.2383 21.1551 47.516V48.5146C21.1551 48.7923 21.3844 49.0187 21.6654 49.0187C21.9465 49.0187 22.1758 48.7923 22.1758 48.5146V47.516C22.1758 47.2383 21.9465 47.0118 21.6654 47.0118ZM22.8475 46.8503H23.8582C24.1393 46.8503 24.3685 46.6238 24.3685 46.3461C24.3685 46.0684 24.1393 45.8419 23.8582 45.8419H22.8475C22.5665 45.8419 22.3372 46.0684 22.3372 46.3461C22.3372 46.6258 22.5665 46.8503 22.8475 46.8503ZM19.4707 45.8419C19.1896 45.8419 18.9604 46.0684 18.9604 46.3461C18.9604 46.6238 19.1896 46.8503 19.4707 46.8503H20.4814C20.7624 46.8503 20.9917 46.6238 20.9917 46.3461C20.9917 46.0684 20.7624 45.8419 20.4814 45.8419H19.4707ZM51.0025 46.8503C51.0025 46.5726 50.7733 46.3461 50.4922 46.3461C50.2111 46.3461 49.9819 46.5726 49.9819 46.8503V47.7169C49.9819 47.9946 50.2111 48.2211 50.4922 48.2211C50.7733 48.2211 51.0025 47.9946 51.0025 47.7169V46.8503ZM50.4922 49.2511C50.2111 49.2511 49.9819 49.4776 49.9819 49.7553V50.6219C49.9819 50.8996 50.2111 51.1261 50.4922 51.1261C50.7733 51.1261 51.0025 50.8996 51.0025 50.6219V49.7553C51.0025 49.4756 50.7733 49.2511 50.4922 49.2511ZM51.5228 49.2413H52.3999C52.681 49.2413 52.9102 49.0148 52.9102 48.7371C52.9102 48.4594 52.681 48.2329 52.3999 48.2329H51.5228C51.2417 48.2329 51.0125 48.4594 51.0125 48.7371C51.0125 49.0148 51.2417 49.2413 51.5228 49.2413ZM48.5845 49.2413H49.4616C49.7427 49.2413 49.9719 49.0148 49.9719 48.7371C49.9719 48.4594 49.7427 48.2329 49.4616 48.2329H48.5845C48.3034 48.2329 48.0742 48.4594 48.0742 48.7371C48.0742 49.0148 48.3014 49.2413 48.5845 49.2413ZM55.9601 51L55.9581 51.004C55.2923 52.8317 54.7322 54.7795 54.1899 56.6645C52.0331 64.1664 49.8024 71.9243 40.6804 70.7859C39.7993 70.6697 38.9162 70.9592 38.2524 71.5756C37.2537 72.4934 36.3706 72.8499 35.8065 72.9878C35.7487 73.0035 35.6849 73.0173 35.6271 73.0271L35.5274 73.0468L35.3978 73.0331C35.3141 73.0173 35.2483 73.0035 35.1765 72.9838C34.6244 72.8479 33.7413 72.4895 32.7486 71.5776C32.0788 70.9591 31.1937 70.6716 30.3146 70.7859C29.7126 70.8607 29.1385 70.8961 28.5943 70.8961C20.8957 70.8961 18.8167 63.6661 16.8014 56.6588C16.2592 54.776 15.6991 52.8301 15.0353 51.0043C14.9336 50.6695 15.0572 50.3524 15.3343 50.185C15.6094 50.0196 15.9522 50.057 16.1855 50.2796C18.1091 52.2018 19.8275 51.8197 22.0021 51.3392C23.9297 50.9118 26.1065 50.4332 28.7336 51.5558C27.416 49.6927 26.8538 47.4219 27.1967 45.3145C27.3143 44.6527 27.9004 44.2431 28.5642 44.3573C29.8539 44.5956 31.0639 45.1431 32.1165 45.9486C32.5152 44.1859 33.3763 42.5769 34.5943 41.3499C34.8415 41.1017 35.1644 40.9638 35.5053 40.9638C35.8442 40.9638 36.1671 41.1017 36.4143 41.3499C37.6163 42.5571 38.4715 44.1308 38.8781 45.8502C39.9067 45.0939 41.0689 44.5799 42.2869 44.3593C42.6078 44.3041 42.9248 44.3711 43.1799 44.5503C43.4351 44.7276 43.6025 44.9994 43.6544 45.3145C44.0032 47.4277 43.4391 49.7104 42.1095 51.5795C42.0935 51.6032 42.0736 51.6229 42.0577 51.6465C44.7707 50.4057 47.0133 50.902 48.9949 51.3412C51.1697 51.8237 52.888 52.2058 54.8058 50.2915C55.049 50.0591 55.4059 50.0236 55.6809 50.1989C55.952 50.3683 56.0677 50.6987 55.9601 51ZM35.5296 54.6889H35.5057L35.5177 54.7046L35.5296 54.6889ZM39.0899 46.9647C39.1417 47.3744 39.1676 47.7938 39.1676 48.2389C39.1676 48.8081 39.1158 49.3694 39.0261 49.9209C39.0241 49.9327 39.0221 49.9465 39.0201 49.9583C38.8347 51.0573 38.4759 52.105 37.9576 53.0543C37.9497 53.0701 37.9397 53.0858 37.9297 53.1016C37.8699 53.2099 37.8121 53.3202 37.7483 53.4265C37.7583 53.4246 37.7683 53.4226 37.7782 53.4206C38.0174 53.3675 38.2547 53.3044 38.4879 53.2335C38.5038 53.2276 38.5218 53.2237 38.5377 53.2198C38.7889 53.1429 39.0381 53.0563 39.2812 52.9598C40.0606 52.4241 40.7304 51.7643 41.2707 51.0001L41.2726 50.9982C42.4527 49.3438 42.9531 47.331 42.6461 45.4758C42.6381 45.4285 42.6182 45.3931 42.5883 45.3714C42.5584 45.3497 42.5165 45.3438 42.4687 45.3517C41.2487 45.5723 40.0846 46.1277 39.0899 46.9647ZM33.0039 46.7402L32.974 46.9686C32.9201 47.3921 32.8922 47.8195 32.8922 48.235C32.8882 49.785 33.265 51.2799 33.9707 52.5738C33.9787 52.5876 33.9886 52.6034 33.9966 52.6171C34.1042 52.8121 34.2199 53.0051 34.3435 53.1903C34.3614 53.2178 34.3813 53.2454 34.4013 53.273C34.487 53.399 34.5787 53.5192 34.6704 53.6393C35.2345 53.6866 35.8027 53.6866 36.3668 53.6393C36.3887 53.6098 36.4106 53.5802 36.4325 53.5507C36.5462 53.3971 36.6578 53.2434 36.7595 53.0819C36.7794 53.0504 36.7973 53.0189 36.8173 52.9874C36.9249 52.8141 37.0286 52.6368 37.1243 52.4556C37.1342 52.4379 37.1422 52.4182 37.1502 52.4005C37.796 51.1479 38.1429 49.7161 38.1429 48.235C38.1429 47.7348 38.107 47.2818 38.0333 46.8465C37.7641 45.0011 36.9329 43.3034 35.687 42.0548C35.6332 41.9996 35.5694 41.9701 35.5056 41.9701C35.4418 41.9701 35.378 41.9996 35.3222 42.0548C34.1062 43.2818 33.2929 44.9381 33.0039 46.7402ZM29.5832 50.9982C30.0855 51.6993 30.6856 52.3099 31.3653 52.8121C31.6643 52.9441 31.9673 53.0583 32.2743 53.1588C32.3141 53.1726 32.354 53.1824 32.3959 53.1962C32.665 53.2809 32.9381 53.3557 33.2152 53.4187C33.2391 53.4247 33.265 53.4306 33.2889 53.4345C33.265 53.3971 33.2451 53.3557 33.2232 53.3163C33.1434 53.1804 33.0657 53.0445 32.9919 52.9047C32.958 52.8397 32.9261 52.7708 32.8922 52.7038C32.6291 52.1701 32.4138 51.6088 32.2484 51.0278C32.2404 51.0022 32.2324 50.9786 32.2265 50.9529C32.1746 50.7619 32.1288 50.5669 32.0889 50.372L32.065 50.2538C32.0251 50.049 31.9892 49.8441 31.9613 49.6373C31.9593 49.6255 31.9593 49.6157 31.9573 49.6038C31.8975 49.1548 31.8597 48.6998 31.8597 48.239C31.8597 47.8628 31.8856 47.4807 31.9255 47.0987C30.9068 46.1947 29.6869 45.592 28.3832 45.3497C28.2516 45.3281 28.2137 45.4226 28.2037 45.4797C27.9027 47.333 28.4051 49.346 29.5832 50.9982ZM54.6085 51.7781C52.6171 53.1765 50.6655 52.7432 48.77 52.3217C46.8384 51.8924 44.841 51.4492 42.389 52.5994C41.8288 52.8397 41.3265 53.0957 40.7743 53.3813C40.4594 53.5507 40.1105 53.7142 39.7158 53.8757C38.8228 54.2341 37.8779 54.4724 36.9071 54.5965L36.9051 54.5985L36.8373 54.6063C36.7895 54.6122 36.7437 54.6221 36.6958 54.626C36.644 54.6319 36.5902 54.6339 36.5383 54.6379L35.4798 54.7521L35.4938 54.7344L34.6267 54.6497C34.529 54.6418 34.4313 54.6359 34.3336 54.626C34.2838 54.6201 34.232 54.6103 34.1821 54.6044L34.1223 54.5985L34.1203 54.5965C33.0299 54.4665 31.9455 54.175 30.895 53.7142C30.6618 53.6039 30.4405 53.4995 30.2232 53.3853C29.7587 53.141 29.2125 52.8574 28.6245 52.6073C26.1587 51.4492 24.1592 51.8923 22.2277 52.3217C20.3299 52.7432 18.3784 53.1765 16.3851 51.7722C16.8934 53.2828 17.3459 54.8545 17.7845 56.3848C20.0131 64.1266 21.9348 70.8132 30.1857 69.7851C30.3551 69.7635 30.5265 69.7516 30.696 69.7516C31.7007 69.7516 32.6814 70.1337 33.4449 70.8388C34.322 71.6443 35.0715 71.918 35.4403 72.0087C35.4642 72.0146 35.4822 72.0205 35.5001 72.0244C35.5161 72.0205 35.53 72.0165 35.546 72.0126C35.9287 71.9181 36.6762 71.6463 37.5573 70.8388C38.4444 70.0155 39.6305 69.6295 40.8146 69.7851C49.0653 70.8172 50.9851 64.1286 53.2116 56.3888C53.6482 54.8644 54.0982 53.2986 54.6085 51.7781ZM50.1452 59.9611C50.2848 60.2211 50.2649 60.5284 50.0914 60.7667C48.0342 63.4885 44.8566 65.0385 41.6493 65.0385C40.7562 65.0385 39.8592 64.9184 38.9841 64.6683C38.7787 64.6112 38.6053 64.4713 38.5056 64.2842C38.406 64.0952 38.388 63.8706 38.4578 63.6717C39.1096 61.8224 40.4333 60.2783 42.0898 59.4354C43.838 58.553 45.9451 58.4861 47.7273 59.2542C48.2117 59.4629 48.7718 59.5595 49.4436 59.5496C49.7526 59.5516 50.0057 59.7012 50.1452 59.9611ZM48.9671 60.55C48.3532 60.5146 47.811 60.3925 47.3186 60.1798C45.8135 59.5298 44.0314 59.5869 42.5543 60.3334C41.1988 61.0227 40.1004 62.2654 39.5083 63.7662C42.9071 64.6249 46.6227 63.3546 48.9671 60.55ZM32.5411 63.6717C32.6109 63.8726 32.5949 64.0971 32.4933 64.2862C32.3936 64.4733 32.2182 64.6131 32.0149 64.6702C31.1418 64.9184 30.2447 65.0385 29.3516 65.0385C26.1442 65.0385 22.9686 63.4905 20.9136 60.7766C20.7342 60.5284 20.7142 60.2211 20.8538 59.9612C20.9933 59.7012 21.2524 59.5318 21.5594 59.5515C22.2193 59.5574 22.7873 59.4649 23.2718 59.2561C25.0539 58.488 27.1609 58.553 28.9092 59.4353C30.5658 60.2783 31.8892 61.8224 32.5411 63.6717ZM31.4886 63.7662C30.8986 62.2654 29.7982 61.0227 28.4426 60.3314C26.9675 59.5869 25.1854 59.5278 23.6804 60.1778C23.186 60.3905 22.6438 60.5126 22.0318 60.5481C24.372 63.3507 28.0899 64.6249 31.4886 63.7662ZM43.1922 58.1238C45.3152 57.0623 47.3185 56.0598 47.8707 53.3853C47.9265 53.1135 47.7491 52.8456 47.472 52.7905C47.1969 52.7353 46.9258 52.9106 46.87 53.1844C46.5431 54.7737 45.5584 55.658 44.2905 56.4025C43.8719 55.5793 43.8799 54.5433 44.3344 53.7457C44.4719 53.5034 44.3862 53.1962 44.139 53.0583C43.8918 52.9224 43.5809 53.0071 43.4433 53.2513C42.8194 54.3464 42.8154 55.7664 43.3975 56.8889C43.1782 57.0012 42.9569 57.1135 42.7297 57.2257C40.0166 58.5827 36.6416 60.2706 36.1134 66.1635C36.0895 66.4412 36.2968 66.6854 36.5759 66.711C36.5919 66.713 36.6058 66.713 36.6218 66.713C36.8829 66.713 37.1062 66.516 37.1301 66.2541C37.6085 60.9167 40.4472 59.4967 43.1922 58.1238ZM28.5584 57.2237C28.3431 57.1174 28.1338 57.011 27.9264 56.9047C28.5185 55.7781 28.5185 54.3503 27.8906 53.2473C27.753 53.0051 27.442 52.9184 27.1948 53.0543C26.9497 53.1902 26.8619 53.4994 26.9995 53.7417C27.458 54.5472 27.462 55.593 27.0314 56.4202C25.7476 55.6738 24.7469 54.7855 24.418 53.1824C24.3622 52.9086 24.0911 52.7333 23.816 52.7885C23.5389 52.8436 23.3615 53.1095 23.4173 53.3832C23.9675 56.0578 25.9729 57.0623 28.0959 58.1218C30.8408 59.4946 33.6777 60.9146 34.1579 66.2479C34.1818 66.5098 34.4051 66.7067 34.6662 66.7067C34.6822 66.7067 34.6961 66.7067 34.7121 66.7048C34.9931 66.6811 35.2005 66.435 35.1746 66.1573C34.6463 60.2683 31.2715 58.581 28.5584 57.2237ZM35.4997 60.8929C34.479 60.8929 33.6777 59.7033 33.6777 58.1848C33.6777 56.6664 34.477 55.4768 35.4997 55.4768C36.5203 55.4768 37.3216 56.6664 37.3216 58.1848C37.3216 59.7033 36.5203 60.8929 35.4997 60.8929ZM36.301 58.1848C36.301 57.1469 35.8266 56.4852 35.4997 56.4852C35.1728 56.4852 34.6983 57.1469 34.6983 58.1848C34.6983 59.2228 35.1728 59.8845 35.4997 59.8845C35.8266 59.8845 36.301 59.2228 36.301 58.1848ZM49.0232 62.9727C47.1872 64.9579 44.3566 66.051 41.6455 65.8205C41.3645 65.7969 41.1173 66.0017 41.0934 66.2794C41.0695 66.5571 41.2768 66.8014 41.5579 66.825C41.823 66.8466 42.0901 66.8584 42.3552 66.8584C45.1241 66.8584 47.909 65.6689 49.7747 63.6521C49.9641 63.4473 49.9501 63.1282 49.7428 62.9391C49.5355 62.752 49.2145 62.7678 49.0232 62.9727ZM29.5516 65.8205C26.8386 66.049 24.0101 64.9579 22.174 62.9727C21.9846 62.7678 21.6617 62.7521 21.4523 62.9412C21.245 63.1283 21.2291 63.4473 21.4204 63.6541C23.2863 65.6709 26.0711 66.8605 28.8399 66.8605C29.107 66.8605 29.3722 66.8487 29.6373 66.827C29.9183 66.8034 30.1257 66.5591 30.1017 66.2815C30.0798 66.0018 29.8327 65.7969 29.5516 65.8205Z" fill="black"/>
<path fill-rule="evenodd" clip-rule="evenodd" d="M33.5551 11.8439C34.9269 11.3803 36.3022 11.3854 37.6505 11.8595C37.847 11.9293 38.0085 12.0149 38.1353 12.1161C38.3621 12.2974 38.4746 12.5289 38.4742 12.8084L38.4706 14.0239C38.4698 14.3398 38.3122 14.6541 38.0616 14.8392C38.0052 14.8813 37.9393 14.8939 37.8772 14.9205L37.8393 26.5758C37.874 26.5963 37.9104 26.6103 37.9415 26.6352C38.1149 26.7738 38.2429 26.9677 38.2411 27.2532L38.2397 27.9801L41.0295 27.5764C41.1614 27.5545 41.2919 27.5932 41.392 27.6732C41.4431 27.7141 41.4848 27.7663 41.5157 27.8274L44.2813 33.34C44.3664 33.51 44.3368 33.7121 44.2098 33.8541C44.0804 33.9942 43.8781 34.0435 43.6985 33.98L40.3717 32.7821C40.1833 38.7201 40.1997 38.144 40.1136 44.0837C40.1136 44.0837 40.1256 44.4457 39.6432 44.4457C39.1607 44.4457 39.1727 44.0837 39.1727 44.0837C39.2606 38.0322 39.2446 38.4969 39.4423 32.4469L37.8536 31.8756L35.8616 33.6073C35.8563 33.6138 35.8502 33.616 35.8445 33.6186L35.8316 40.1012C35.8316 40.1012 35.866 40.4633 35.5 40.4633C35.2069 40.4633 35.2453 40.1012 35.2453 40.1012L35.2567 33.6222L35.2503 33.6165L33.2069 31.9329L31.6997 32.4625C31.9149 38.5064 32.0064 43.7216 32.0064 44.0837C32.0064 44.4457 31.5371 44.4457 31.5371 44.4457C31.4732 44.4457 31.0677 44.4457 31.0677 44.0837C31.0677 43.7216 30.9744 38.7258 30.7695 32.7913L27.3405 33.9998C27.1602 34.0629 26.9591 34.0112 26.8321 33.8696C26.7053 33.7282 26.6775 33.5241 26.7649 33.3542L29.5655 27.8571C29.6598 27.6743 29.863 27.5746 30.066 27.6096L32.8444 28.0883L32.848 27.2292C32.8491 26.9356 33.0147 26.6827 33.2562 26.5086L33.2948 14.9205C33.2311 14.895 33.1699 14.861 33.1125 14.8187C32.8693 14.6351 32.7068 14.3123 32.7078 14.0006L32.7121 12.7851L32.7207 12.7886C32.7243 12.3478 33.0057 12.0302 33.5551 11.8439ZM36.9641 27.1861C35.9863 26.8262 35.0588 26.8227 34.1228 27.1762C34.0683 27.1979 34.0122 27.2078 33.9533 27.208C33.8663 27.2071 33.8065 27.2394 33.786 27.2596L33.7817 28.6462C33.7834 28.6621 33.7748 28.6773 33.7724 28.6936C33.7737 28.7054 33.777 28.7154 33.776 28.7254C33.7719 28.7438 33.763 28.759 33.7567 28.7756C33.7477 28.8046 33.739 28.8336 33.7238 28.8612C33.7085 28.8889 33.6924 28.9128 33.6745 28.9347C33.6548 28.9589 33.6347 28.9793 33.6123 28.9977C33.5881 29.0183 33.5648 29.033 33.5379 29.0479C33.5129 29.0605 33.488 29.0734 33.4586 29.0825C33.4291 29.0916 33.3991 29.0968 33.367 29.1002C33.351 29.1019 33.3332 29.1095 33.3149 29.1094C33.3029 29.1106 33.2918 29.1015 33.2777 29.1009C33.2634 29.1004 33.2494 29.1043 33.2369 29.1016L30.2533 28.5854L28.1362 32.7376L33.1504 30.9712C33.1701 30.9651 33.1869 30.9673 33.2047 30.9634C33.2364 30.9561 33.268 30.9487 33.3006 30.9493C33.3309 30.9481 33.3581 30.9514 33.3871 30.9564C33.416 30.9614 33.4453 30.9664 33.4729 30.9776C33.5025 30.9904 33.5283 31.0035 33.5544 31.0207C33.5694 31.0291 33.5861 31.0317 33.6016 31.044L33.6087 31.0497L35.5492 32.652L37.4489 31.003C37.4672 30.985 37.4911 30.9785 37.5139 30.9641C37.5328 30.9501 37.5518 30.9357 37.5733 30.9274C37.6121 30.9113 37.6499 30.9051 37.6877 30.8991C37.7038 30.8974 37.7216 30.8898 37.7399 30.8899C37.7984 30.8858 37.8566 30.8955 37.9115 30.9139C37.9115 30.9139 37.9133 30.9125 37.9151 30.9139L42.9156 32.7142L40.8229 28.5395L40.8172 28.5416L37.825 28.9722C37.8129 28.9734 37.802 28.9688 37.7899 28.9701C37.7798 28.9693 37.7682 28.9738 37.7563 28.975C37.738 28.9749 37.7204 28.9649 37.6998 28.963C37.6691 28.9602 37.6377 28.9536 37.6083 28.9446C37.579 28.9356 37.5547 28.9198 37.529 28.9064C37.5032 28.8931 37.479 28.8778 37.4546 28.8584C37.4342 28.8385 37.416 28.8161 37.3974 28.794C37.3765 28.7701 37.3617 28.7471 37.3466 28.7205C37.3316 28.694 37.3226 28.6648 37.3152 28.6335C37.3112 28.6158 37.2987 28.5989 37.2966 28.5791C37.2953 28.5671 37.3007 28.5563 37.2994 28.5444C37.3003 28.5344 37.295 28.523 37.2937 28.5112L37.2959 27.3204C37.2269 27.2834 37.098 27.2347 37.0049 27.2002L36.9641 27.1861ZM36.8991 24.4856C35.9971 24.2846 35.0938 24.2831 34.2 24.4814L34.1936 26.189C35.0814 25.935 35.9849 25.9411 36.8933 26.2018L36.8991 24.4856ZM36.9105 22.1133C36.0085 21.9123 35.1052 21.9107 34.2114 22.109L34.2057 23.8895C35.0994 23.7094 36.0023 23.7108 36.9026 23.8959L36.9048 23.8938L36.9105 22.1133ZM36.9169 19.7395C36.0148 19.5385 35.111 19.5362 34.2172 19.7345L34.2114 21.5157C35.1051 21.3356 36.008 21.337 36.9084 21.5221L36.9105 21.52L36.9169 19.7395ZM36.9248 17.3671C36.0228 17.1661 35.1195 17.1646 34.2257 17.3629L34.2193 19.1434C35.1129 18.9633 36.016 18.9647 36.9162 19.1498L36.9184 19.1476L36.9248 17.3671ZM36.9305 14.8809C36.0306 14.6817 35.1276 14.68 34.2329 14.8703L34.2272 16.771C35.1209 16.5909 36.0244 16.593 36.9248 16.7781L36.9305 14.8809ZM37.3259 12.7313C36.1677 12.3219 35.0307 12.3187 33.8497 12.72V12.7243C33.7263 12.7673 33.6708 12.7992 33.6502 12.8155L33.6459 14.0084C33.6449 14.0185 33.6485 14.0322 33.6538 14.0437C34.9306 13.7007 36.2263 13.7033 37.5125 14.055C37.517 14.0406 37.5202 14.0284 37.5211 14.0183L37.5254 12.8254C37.5031 12.8076 37.4485 12.7748 37.3259 12.7313Z" fill="black"/>
<path d="M38.8439 73.0468C38.2369 78.003 37.2765 83.0102 35.7366 88.167C35.6767 88.3663 35.4935 88.5002 35.284 88.5C35.0746 88.4998 34.8916 88.3639 34.8336 88.1648C33.3455 83.0717 32.422 78.0572 31.8393 73.0468H32.7845C33.3016 77.4557 34.085 81.8645 35.2898 86.3228C36.5394 81.817 37.3557 77.4137 37.8952 73.0468H38.8439Z" fill="black"/>
</svg>
