<svg width="649" height="100" viewBox="0 0 649 100" fill="none" xmlns="http://www.w3.org/2000/svg">
<path d="M627.487 74.009C635.162 74.009 641.263 71.6041 645.792 66.7944L647.71 69.3656C644.308 73.9962 639.229 76.9767 632.475 78.307C630.352 78.7419 628.152 78.9594 625.875 78.9594C621.449 78.9594 617.458 78.1919 613.902 76.6569C610.346 75.0963 607.327 72.9984 604.845 70.3633C599.703 64.9141 597.132 58.1856 597.132 50.178C597.132 41.7354 599.473 34.4569 604.155 28.3424C607.301 24.2235 611.356 21.3325 616.319 19.6696C618.827 18.8509 621.155 18.4416 623.304 18.4416C625.478 18.4416 627.077 18.5056 628.101 18.6335C629.15 18.7614 630.083 18.9277 630.902 19.1324C631.721 19.337 632.45 19.5673 633.089 19.8231C633.755 20.0534 634.471 20.2964 635.238 20.5523C637.336 21.2686 639.025 21.6268 640.304 21.6268C641.583 21.6268 642.977 20.5778 644.487 18.48H648.171L643.067 38.8189H639.421C639.549 36.8489 639.613 35.4674 639.613 34.6743C639.613 32.9858 639.409 31.502 638.999 30.2228C638.615 28.9181 637.95 27.8052 637.004 26.8842C636.057 25.9632 634.931 25.1829 633.627 24.5433C631.017 23.2641 628.139 22.6245 624.992 22.6245C621.871 22.6245 619.185 23.2513 616.933 24.5049C614.708 25.7585 612.827 27.4726 611.292 29.6472C608.401 33.8173 606.674 39.484 606.112 46.6474H630.864L629.828 50.9838H605.996C606.252 56.9448 608.222 62.1638 611.906 66.6409C615.974 71.553 621.168 74.009 627.487 74.009Z" fill="white"/>
<path d="M577.215 75.7743C572.917 77.9233 567.736 78.9978 561.673 78.9978C552.105 78.9978 544.57 75.8766 539.07 69.6342C534.005 63.8523 531.472 56.9064 531.472 48.7964C531.472 40.5841 533.992 33.6382 539.032 27.9587C544.609 21.6396 552.284 18.48 562.057 18.48C565.255 18.48 568.261 18.9021 571.075 19.7464L573.262 20.3988C575.693 21.1663 577.548 21.55 578.827 21.55C580.106 21.55 581.526 20.5011 583.087 18.4032H586.732L581.628 37.9746H577.983L578.136 35.7872C578.162 35.1476 578.174 34.5081 578.174 33.8685C578.174 30.6961 577.241 28.3424 575.373 26.8074C573.25 25.0166 570.423 23.7886 566.892 23.1234C565.229 22.7908 563.298 22.6245 561.097 22.6245C558.897 22.6245 556.71 22.9955 554.535 23.7374C552.361 24.4537 550.468 25.4387 548.856 26.6923C547.27 27.9459 545.952 29.4297 544.903 31.1438C543.854 32.8323 543.01 34.636 542.37 36.5547C541.219 40.0341 540.643 44.1147 540.643 48.7964C540.643 55.4482 542.23 61.1661 545.402 65.9502C549.112 71.553 554.484 74.3544 561.52 74.3544C568.581 74.3544 573.736 72.8833 576.985 69.9412L576.524 58.7356C576.422 55.8447 575.782 54.0283 574.606 53.2864C573.633 52.6468 571.113 52.1863 567.046 51.9048V48.6429H588.843V51.9048C588.075 52.0583 587.423 52.2118 586.886 52.3653C586.374 52.5188 585.965 52.8131 585.658 53.248C585.069 54.0411 584.724 55.8703 584.621 58.7356L582.971 92.8896H578.174L577.215 75.7743Z" fill="white"/>
<path d="M510.02 35.4802C510.02 26.9098 505.85 22.6245 497.51 22.6245C491.318 22.6245 487.865 24.2619 487.148 27.5365C486.944 28.4831 486.841 29.4809 486.841 30.5298V67.8306C486.841 69.34 486.918 70.5041 487.072 71.3227C487.225 72.1414 487.558 72.7682 488.069 73.2031C488.581 73.638 489.323 73.945 490.295 74.1241C491.293 74.2776 492.623 74.4439 494.286 74.623L496.358 74.8532V78.0384H472.412V74.8532L473.717 74.6614C474.843 74.5079 475.751 74.3544 476.442 74.2009C477.132 74.0218 477.67 73.702 478.053 73.2415C478.719 72.474 479.051 70.6703 479.051 67.8306V28.9948C479.051 26.4876 478.757 24.9398 478.169 24.3514C477.606 23.763 476.877 23.3536 475.981 23.1234C475.111 22.8931 473.922 22.7141 472.412 22.5861V19.2859H482.39C483.848 19.2859 485.78 19.1835 488.184 18.9789C492.841 18.6207 496.474 18.4416 499.083 18.4416C501.718 18.4416 504.366 18.8765 507.027 19.7464C509.713 20.6162 511.926 21.8058 513.666 23.3153C517.043 26.283 518.731 30.1972 518.731 35.0581C518.731 38.7165 517.631 42.1191 515.431 45.2659C512.949 48.8732 509.291 51.4699 504.456 53.0561L530.589 88.8986L527.711 91.086L494.133 53.4398L495.821 50.0245H498.738C501.782 50.0245 504.353 48.8348 506.451 46.4556C508.83 43.6925 510.02 40.0341 510.02 35.4802Z" fill="white"/>
<path d="M408.095 48.9883C408.095 46.4811 408.351 43.9867 408.863 41.5051C409.374 39.0235 410.142 36.6571 411.165 34.4057C412.214 32.1288 413.519 30.0309 415.08 28.1122C416.64 26.1678 418.457 24.4793 420.529 23.0466C424.929 20.0022 430.148 18.48 436.186 18.48C445.115 18.48 452.163 21.6907 457.331 28.1122C461.987 33.8685 464.315 40.8272 464.315 48.9883C464.315 57.2262 461.987 64.1082 457.331 69.6342C452.214 75.7231 445.166 78.7675 436.186 78.7675C427.155 78.7675 420.107 75.6975 415.041 69.5575C410.411 63.9803 408.095 57.1239 408.095 48.9883ZM417.267 47.1079C417.267 50.4594 417.382 53.184 417.612 55.2819C417.843 57.3797 418.226 59.388 418.764 61.3068C419.326 63.2255 420.068 65.0164 420.989 66.6793C421.91 68.3422 423.074 69.7877 424.482 71.0157C427.5 73.5997 431.427 74.8916 436.263 74.8916C445.268 74.8916 451.101 70.3761 453.762 61.3452C454.785 57.8658 455.297 53.7469 455.297 48.9883C455.297 35.1732 451.191 26.7435 442.978 23.699C441.06 22.9827 438.821 22.6245 436.263 22.6245C427.232 22.6245 421.411 27.2935 418.802 36.6315C417.779 40.2388 417.267 43.7309 417.267 47.1079Z" fill="white"/>
<path d="M394.894 35.7872C395.431 32.8963 395.7 30.7857 395.7 29.4553C395.7 28.125 395.534 27.1016 395.201 26.3853C394.894 25.6434 394.37 25.0677 393.628 24.6584C392.374 23.9421 389.931 23.5839 386.298 23.5839H368.876V45.688H391.747L390.711 50.0628H368.876V67.8306C368.876 69.3144 368.965 70.4785 369.144 71.3227C369.349 72.1414 369.81 72.7682 370.526 73.2031C371.268 73.638 372.355 73.9578 373.788 74.1625C375.22 74.3672 377.165 74.5846 379.621 74.8149V78H354.485V74.8149C355.943 74.6102 357.107 74.4183 357.977 74.2392C358.847 74.0346 359.512 73.702 359.973 73.2415C360.74 72.4996 361.124 70.6959 361.124 67.8306V29.3786C361.124 26.462 360.817 24.7224 360.203 24.1595C359.589 23.5967 358.847 23.2385 357.977 23.085C357.107 22.9059 355.943 22.7524 354.485 22.6245V19.2859H402.569L398.54 35.7872H394.894Z" fill="white"/>
<path d="M326.778 74.009C334.453 74.009 340.555 71.6041 345.083 66.7944L347.002 69.3656C343.599 73.9962 338.521 76.9767 331.767 78.307C329.643 78.7419 327.443 78.9594 325.166 78.9594C320.74 78.9594 316.749 78.1919 313.193 76.6569C309.637 75.0963 306.618 72.9984 304.137 70.3633C298.994 64.9141 296.423 58.1856 296.423 50.178C296.423 41.7354 298.764 34.4569 303.446 28.3424C306.593 24.2235 310.648 21.3325 315.611 19.6696C318.118 18.8509 320.446 18.4416 322.595 18.4416C324.77 18.4416 326.369 18.5056 327.392 18.6335C328.441 18.7614 329.375 18.9277 330.194 19.1324C331.012 19.337 331.741 19.5673 332.381 19.8231C333.046 20.0534 333.762 20.2964 334.53 20.5523C336.628 21.2686 338.316 21.6268 339.595 21.6268C340.875 21.6268 342.269 20.5778 343.778 18.48H347.462L342.358 38.8189H338.713C338.841 36.8489 338.905 35.4674 338.905 34.6743C338.905 32.9858 338.7 31.502 338.291 30.2228C337.907 28.9181 337.242 27.8052 336.295 26.8842C335.349 25.9632 334.223 25.1829 332.918 24.5433C330.309 23.2641 327.43 22.6245 324.284 22.6245C321.163 22.6245 318.476 23.2513 316.225 24.5049C313.999 25.7585 312.119 27.4726 310.584 29.6472C307.693 33.8173 305.966 39.484 305.403 46.6474H330.155L329.119 50.9838H305.288C305.544 56.9448 307.514 62.1638 311.198 66.6409C315.266 71.553 320.459 74.009 326.778 74.009Z" fill="white"/>
<path d="M276.507 75.7743C272.208 77.9233 267.028 78.9978 260.965 78.9978C251.396 78.9978 243.862 75.8766 238.361 69.6342C233.296 63.8523 230.763 56.9064 230.763 48.7964C230.763 40.5841 233.283 33.6382 238.323 27.9587C243.9 21.6396 251.575 18.48 261.348 18.48C264.546 18.48 267.552 18.9021 270.366 19.7464L272.554 20.3988C274.984 21.1663 276.839 21.55 278.118 21.55C279.397 21.55 280.817 20.5011 282.378 18.4032H286.024L280.92 37.9746H277.274L277.428 35.7872C277.453 35.1476 277.466 34.5081 277.466 33.8685C277.466 30.6961 276.532 28.3424 274.664 26.8074C272.541 25.0166 269.714 23.7886 266.184 23.1234C264.521 22.7908 262.589 22.6245 260.389 22.6245C258.189 22.6245 256.001 22.9955 253.827 23.7374C251.652 24.4537 249.759 25.4387 248.147 26.6923C246.561 27.9459 245.243 29.4297 244.195 31.1438C243.146 32.8323 242.301 34.636 241.662 36.5547C240.511 40.0341 239.935 44.1147 239.935 48.7964C239.935 55.4482 241.521 61.1661 244.693 65.9502C248.403 71.553 253.776 74.3544 260.811 74.3544C267.872 74.3544 273.027 72.8833 276.276 69.9412L275.816 58.7356C275.713 55.8447 275.074 54.0283 273.897 53.2864C272.925 52.6468 270.405 52.1863 266.337 51.9048V48.6429H288.134V51.9048C287.367 52.0583 286.714 52.2118 286.177 52.3653C285.665 52.5188 285.256 52.8131 284.949 53.248C284.361 54.0411 284.015 55.8703 283.913 58.7356L282.263 92.8896H277.466L276.507 75.7743Z" fill="white"/>
<path d="M169.977 74.8149C172.893 74.3032 174.543 73.8683 174.927 73.5101C175.337 73.1264 175.554 72.6787 175.58 72.167C175.605 71.6297 175.618 70.8878 175.618 69.9412L175.58 65.9886V63.9163C175.58 50.3826 177.294 40.3155 180.722 33.715C182.896 29.4681 186.158 25.605 190.508 22.1256C192.605 20.4627 194.959 18.7614 197.569 17.0217H197.607C203.312 20.8337 207.508 24.3514 210.194 27.5749C213.443 31.438 215.771 36.0942 217.178 41.5435C218.611 47.1207 219.327 54.5527 219.327 63.8395V65.9886L219.289 69.8645C219.289 70.8366 219.327 71.5914 219.404 72.1286C219.481 72.6659 219.711 73.088 220.095 73.395C220.581 73.8299 222.321 74.3032 225.314 74.8149V78H204.246V74.8149C207.597 74.4311 209.606 73.8811 210.271 73.1647C210.808 72.5763 211.102 71.6937 211.153 70.5168C211.23 69.34 211.269 68.2015 211.269 67.1014V57.8146H183.677V67.1014C183.677 68.7644 183.715 70.0691 183.792 71.0157C183.894 71.9367 184.176 72.6531 184.636 73.1647C185.097 73.6508 185.8 73.9962 186.747 74.2009C187.693 74.4055 189.024 74.6102 190.738 74.8149V78H169.977V74.8149ZM211.192 53.5166C211.141 46.9161 210.22 41.4668 208.429 37.1687C206.536 32.6405 202.916 27.7284 197.569 22.4326C193.961 26.0399 191.429 29.0076 189.97 31.3357C188.538 33.6382 187.489 35.5826 186.824 37.1687C186.158 38.7549 185.608 40.4051 185.173 42.1191C184.457 45.138 183.984 48.9372 183.754 53.5166H211.192Z" fill="white"/>
<path d="M157.582 35.7872C158.119 32.8963 158.387 30.7857 158.387 29.4553C158.387 28.0994 158.221 27.0505 157.889 26.3085C157.582 25.541 157.057 24.9398 156.315 24.5049C155.036 23.7374 152.606 23.3536 149.024 23.3536H142.538V67.6771C142.538 69.1609 142.628 70.325 142.807 71.1692C142.986 71.9879 143.421 72.6147 144.112 73.0496C144.803 73.4845 145.826 73.8043 147.182 74.009C148.563 74.2137 150.444 74.4311 152.823 74.6614V78H124.809V74.6614C129.337 74.2264 132.011 73.7404 132.83 73.2031C133.674 72.6659 134.198 71.9879 134.403 71.1692C134.633 70.325 134.748 69.1609 134.748 67.6771V23.3536H127.38C122.775 23.3536 119.449 25.605 117.403 30.1077C116.763 31.4892 116.123 32.973 115.484 34.5592L115.023 35.7489H111.263L115.561 19.2859H165.295L161.266 35.7872H157.582Z" fill="white"/>
<path d="M92.8809 34.2522C94.0577 32.666 94.6461 31.1694 94.6461 29.7623C94.6461 28.3296 94.3519 27.204 93.7635 26.3853C93.1751 25.541 92.382 24.8375 91.3842 24.2747C89.312 23.1234 86.6257 22.5478 83.3254 22.5478C80.3322 22.5478 77.8506 23.3536 75.8806 24.9654C73.9107 26.6028 72.9257 28.7262 72.9257 31.3357C72.9257 34.2778 74.2049 36.7978 76.7633 38.8956C78.0424 39.9445 79.6158 40.9807 81.4834 42.004C88.4421 45.6113 92.9448 47.9906 94.9915 49.1418C97.0382 50.2675 98.8674 51.5211 100.479 52.9026C103.959 55.8447 105.698 59.145 105.698 62.8034C105.698 68.3039 103.575 72.4484 99.3279 75.237C95.5671 77.693 90.4504 78.921 83.9778 78.921C78.9123 78.921 74.1665 77.8209 69.7406 75.6208C66.6706 74.0857 64.496 72.167 63.2168 69.8645C62.5772 68.6876 62.2574 67.3829 62.2574 65.9502C62.2574 64.5175 62.5644 63.2511 63.1784 62.151C63.818 61.0254 64.5983 60.066 65.5193 59.2729C67.2334 57.7635 69.101 56.8169 71.1221 56.4331L73.1944 58.8891C72.2478 60.1939 71.6977 61.294 71.5442 62.1894C71.4163 63.0593 71.3524 64.0442 71.3524 65.1443C71.3524 66.2188 71.6977 67.3701 72.3885 68.5981C73.0792 69.8261 74.013 70.9134 75.1899 71.86C77.7994 73.9322 80.8822 74.9684 84.4383 74.9684C90.6039 74.9684 94.6078 73.0112 96.4498 69.097C97.0382 67.8434 97.3324 66.3595 97.3324 64.6454C97.3324 62.9313 96.8591 61.4347 95.9125 60.1555C94.9915 58.8508 93.7891 57.6995 92.3052 56.7017C90.847 55.6784 89.1968 54.7446 87.3548 53.9004C85.5128 53.0305 83.4278 51.9944 81.0997 50.792C78.7972 49.5895 76.597 48.3104 74.4991 46.9544C72.4269 45.5729 70.7128 44.1786 69.3568 42.7715C66.6706 39.9573 65.3274 36.7338 65.3274 33.101C65.3274 28.6238 67.1694 25.0422 70.8535 22.3559C74.384 19.772 78.8995 18.48 84.3999 18.48C89.4911 18.48 93.7635 19.3115 97.2173 20.9744C100.85 22.7141 102.667 25.0166 102.667 27.8819C102.667 30.5938 101.439 32.8323 98.9825 34.5976C98.1127 35.2372 97.0254 35.7489 95.7206 36.1326L92.8809 34.2522Z" fill="white"/>
<path fill-rule="evenodd" clip-rule="evenodd" d="M25.2152 39.0236C25.6319 39.0236 26.0286 39.1933 26.3325 39.4978C27.8105 40.9793 28.8625 42.91 29.3626 45.0199C30.6273 44.0919 32.0563 43.4609 33.5538 43.1902C33.9484 43.1225 34.3382 43.2054 34.6519 43.4252C34.9656 43.6427 35.1714 43.9761 35.2352 44.3626C35.6642 46.9561 34.9711 49.7582 33.3361 52.0521C33.3165 52.0809 33.2913 52.1052 33.2718 52.1341C36.6079 50.6114 39.3667 51.2206 41.8034 51.7597C44.4774 52.3517 46.5901 52.8199 48.9481 50.471C49.2471 50.1858 49.6861 50.1425 50.0243 50.3576C50.3576 50.5654 50.5002 50.9704 50.368 51.3401L50.3653 51.3456C49.5466 53.5884 48.8576 55.9785 48.1909 58.2916C45.5387 67.4981 42.796 77.0188 31.5794 75.6219C30.4959 75.4793 29.4094 75.8356 28.5931 76.5922C27.3652 77.7183 26.2785 78.1557 25.5849 78.3249C25.514 78.3442 25.4353 78.3607 25.3644 78.3728L25.2426 78.3974L25.0824 78.3796C24.9799 78.3603 24.8992 78.3435 24.8113 78.3195C24.1323 78.1527 23.0457 77.7127 21.825 76.5935C21.0014 75.8348 19.9126 75.4818 18.8318 75.6219C18.0917 75.7138 17.3854 75.7572 16.7164 75.7572C7.2501 75.7569 4.69422 66.8842 2.2162 58.2848C1.54947 55.9742 0.859425 53.5862 0.0432275 51.3456C-0.0816306 50.9348 0.0709046 50.5452 0.411551 50.3398C0.749616 50.137 1.17087 50.1833 1.45764 50.456C3.82301 52.8149 5.93658 52.3466 8.61051 51.7569C10.9808 51.2324 13.6584 50.6443 16.8889 52.022C15.2687 49.7355 14.5764 46.9489 14.998 44.3626C15.1426 43.5507 15.8634 43.0488 16.6794 43.1888C18.2653 43.4813 19.7544 44.153 21.0486 45.1416C21.5389 42.9784 22.5975 41.0036 24.0952 39.4978C24.3991 39.1933 24.796 39.0236 25.2152 39.0236ZM17.0286 61.6916C14.8789 60.6091 12.2873 60.5304 10.0961 61.4729C9.50069 61.7289 9.21369 62.0056 8.40282 61.9984C8.0255 61.9742 7.87423 62.3798 7.70258 62.6986C7.53123 63.0176 7.48206 63.0944 7.70258 63.3988C10.2295 66.7287 13.7105 68.1167 17.654 68.117C18.752 68.117 19.2333 67.9047 20.3068 67.6002C20.5565 67.5302 20.8844 67.8294 21.007 67.6002C21.1321 67.3682 21.0928 67.1465 21.007 66.9C20.2054 64.6306 19.0654 62.726 17.0286 61.6916ZM39.9134 61.8323C37.7221 60.89 35.7608 60.9157 33.6113 61.9984C31.5745 63.0327 30.2114 64.6307 29.4099 66.9C29.3241 67.1441 29.2873 67.3682 29.4099 67.6002C29.5324 67.8292 30.5585 67.5301 30.8103 67.6002C31.8863 67.9071 31.813 68.3005 32.911 68.3005C36.8548 68.3004 40.1847 66.739 42.7143 63.3988C42.9275 63.1065 42.8857 63.0176 42.7143 62.6986C42.5427 62.3797 42.1736 62.3404 41.7938 62.3379C40.9683 62.3499 40.5088 62.0883 39.9134 61.8323Z" fill="#16141A"/>
<path d="M7.93415 65.9948C8.19142 65.7629 8.58866 65.7822 8.82158 66.0332C11.0794 68.4695 14.5579 69.8095 17.894 69.5291C18.2395 69.5002 18.5431 69.7516 18.5701 70.0948C18.5993 70.4353 18.3449 70.7343 17.9997 70.7636C17.6737 70.7901 17.347 70.8055 17.0186 70.8055C13.6139 70.8055 10.19 69.3447 7.89573 66.8697C7.66041 66.6159 7.67924 66.2244 7.93415 65.9948Z" fill="white"/>
<path d="M41.8377 66.0332C42.0731 65.7822 42.468 65.7629 42.7227 65.9924C42.9775 66.2245 42.994 66.616 42.7612 66.8673C40.467 69.3423 37.043 70.803 33.6383 70.8031C33.3123 70.8031 32.9832 70.7877 32.6572 70.7612C32.3119 70.732 32.0577 70.4329 32.0868 70.0924C32.1162 69.7516 32.4197 69.5001 32.7653 69.5291C36.099 69.812 39.5801 68.4695 41.8377 66.0332Z" fill="white"/>
<path d="M39.9296 53.5378C40.2703 53.6055 40.4893 53.9342 40.4207 54.2677C39.7417 57.5499 37.2779 58.78 34.6675 60.0827C31.292 61.7676 27.8009 63.511 27.2126 70.0612C27.183 70.3824 26.909 70.6244 26.5881 70.6245C26.5686 70.6245 26.5512 70.6245 26.5317 70.6221C26.1886 70.5908 25.9332 70.2905 25.9625 69.9498C26.612 62.718 30.7622 60.6466 34.0983 58.9813C34.3776 58.8436 34.65 58.7056 34.9196 58.5678C34.2039 57.1902 34.2089 55.4474 34.9761 54.1035C35.1451 53.804 35.5272 53.6998 35.8311 53.8662C36.135 54.0355 36.2404 54.4127 36.0712 54.71C35.5125 55.6888 35.5037 56.9608 36.0184 57.971C37.5773 57.0574 38.7879 55.9713 39.1898 54.0208C39.2586 53.6852 39.5916 53.4705 39.9296 53.5378Z" fill="white"/>
<path d="M10.8414 53.5355C11.1795 53.4681 11.5124 53.6828 11.5811 54.0184C11.9856 55.9859 13.216 57.0765 14.7946 57.9926C15.324 56.9775 15.3198 55.6937 14.7562 54.7052C14.587 54.4079 14.6948 54.0282 14.9963 53.8614C15.3002 53.695 15.6823 53.8016 15.8513 54.0987C16.6234 55.4522 16.6238 57.2045 15.8958 58.587C16.1506 58.7175 16.4081 58.8485 16.6727 58.9789C20.0089 60.6446 24.1589 62.7157 24.8085 69.9426C24.84 70.2831 24.5847 70.5848 24.2393 70.6137C24.2198 70.6161 24.2024 70.6161 24.1828 70.6161C23.8619 70.616 23.5878 70.3742 23.5584 70.0529C22.9678 63.5079 19.4788 61.765 16.1035 60.0803C13.493 58.7801 11.0268 57.5475 10.3503 54.2653C10.2816 53.9294 10.5007 53.6031 10.8414 53.5355Z" fill="white"/>
<path fill-rule="evenodd" clip-rule="evenodd" d="M10.1713 61.473C12.3627 60.5304 14.9541 60.6096 17.1038 61.6923C19.1407 62.7267 20.7682 64.6219 21.5698 66.8913C21.6556 67.1378 21.636 67.4142 21.511 67.6463C21.3883 67.8757 21.1724 68.0473 20.9225 68.1173C19.849 68.4218 18.7459 68.5691 17.6478 68.5691C13.704 68.5691 9.79949 66.6693 7.27249 63.339C7.05196 63.0346 7.02668 62.6572 7.19803 62.3383C7.36962 62.0192 7.68876 61.8107 8.06625 61.8349C8.87736 61.8421 9.57576 61.729 10.1713 61.473ZM16.5298 62.7925C14.716 61.8789 12.5251 61.8067 10.6745 62.6043C10.0667 62.8653 9.39985 63.015 8.64746 63.0585C11.5251 66.4976 16.0963 68.0611 20.2753 67.0075C19.5497 65.1658 18.1966 63.6408 16.5298 62.7925Z" fill="white"/>
<path fill-rule="evenodd" clip-rule="evenodd" d="M33.3117 61.6923C35.4614 60.6095 38.0528 60.5279 40.2442 61.4706C40.8397 61.7266 41.5283 61.8445 42.3541 61.8325C42.734 61.8349 43.0459 62.0192 43.2175 62.3383C43.3889 62.6572 43.3646 63.0346 43.1514 63.327C40.6218 66.6672 36.714 68.5691 32.7701 68.5691C31.6721 68.5691 30.569 68.4218 29.493 68.1149C29.2407 68.0449 29.0272 67.8733 28.9046 67.6439C28.782 67.4119 28.7599 67.1354 28.8457 66.8913C29.6473 64.6218 31.2748 62.7267 33.3117 61.6923ZM39.741 62.6067C37.8905 61.8091 35.6996 61.879 33.8833 62.7949C32.2166 63.6408 30.8659 65.1658 30.1379 67.0075C34.317 68.0611 38.8853 66.5024 41.7681 63.0609C41.0133 63.0174 40.3464 62.8677 39.741 62.6067Z" fill="white"/>
<path fill-rule="evenodd" clip-rule="evenodd" d="M25.2084 56.8349C26.4632 56.8351 27.4479 58.2949 27.4479 60.1582C27.4478 62.0214 26.4632 63.4813 25.2084 63.4816C23.9534 63.4816 22.9677 62.0216 22.9676 60.1582C22.9676 58.2947 23.9509 56.8349 25.2084 56.8349ZM25.2084 58.0717C24.8064 58.0717 24.2225 58.8844 24.2225 60.1582C24.2226 61.4318 24.8064 62.2436 25.2084 62.2436C25.6103 62.2431 26.193 61.4315 26.1931 60.1582C26.1931 58.8848 25.6103 58.0722 25.2084 58.0717Z" fill="white"/>
<path fill-rule="evenodd" clip-rule="evenodd" d="M22.82 0.561493C25.1288 -0.209358 27.4383 -0.186808 29.6973 0.631005C30.0266 0.751525 30.2973 0.899009 30.5091 1.07204C30.888 1.38178 31.0749 1.77521 31.0711 2.24895L31.0507 4.30913C31.0459 4.84433 30.7782 5.37512 30.3554 5.68618C30.2601 5.75687 30.1491 5.77836 30.0443 5.8228L29.8534 25.5761C29.9114 25.6111 29.972 25.6356 30.0239 25.678C30.3138 25.9149 30.5274 26.2447 30.5211 26.729L30.5115 27.9599L35.2008 27.3067C35.4225 27.271 35.6412 27.3378 35.8084 27.4745C35.8938 27.5443 35.9637 27.6331 36.015 27.7369L40.5986 37.109C40.7401 37.3981 40.6888 37.7409 40.4737 37.9803C40.255 38.2165 39.9149 38.2985 39.6139 38.1889L34.0384 36.1227C33.7827 42.8667 33.6763 40.4062 33.5615 43.189L33.5543 43.1902C33.9487 43.1226 34.3382 43.2053 34.6518 43.4251C34.9654 43.6425 35.1716 43.9758 35.2355 44.3623C35.6644 46.9558 34.9707 49.7579 33.3357 52.0517C33.3162 52.0806 33.2916 52.1044 33.2721 52.1332C36.6081 50.6106 39.3662 51.2203 41.8029 51.7593C44.477 52.3514 46.5898 52.82 48.9479 50.4709C49.2469 50.1858 49.6857 50.1422 50.0239 50.3571C50.3573 50.565 50.4997 50.9713 50.3673 51.341L50.3649 51.3458C49.5463 53.5887 48.8581 55.979 48.1914 58.2922C45.6018 67.2813 42.9253 76.568 32.3594 75.7013C31.4113 86.9742 29.6189 87.6721 26.0538 99.4403C25.9508 99.7774 25.6418 100.003 25.29 100C24.9384 99.9973 24.6322 99.765 24.5371 99.4271C21.2523 87.8016 19.6749 87.0484 18.9063 75.6138C18.8816 75.6165 18.8566 75.619 18.8319 75.6222C18.0918 75.714 17.3861 75.7576 16.7172 75.7576C7.25042 75.7576 4.69378 66.8846 2.21571 58.285C1.54898 55.9743 0.859582 53.5865 0.0433753 51.3458C-0.0815982 50.9351 0.0703446 50.5458 0.410835 50.3403C0.749105 50.1373 1.17114 50.1834 1.45798 50.4566C3.82328 52.8154 5.93635 52.3466 8.61023 51.7569C10.9805 51.2324 13.6573 50.6453 16.8877 52.023C15.2674 49.7365 14.5759 46.9486 14.9975 44.3623C15.1424 43.5505 15.8638 43.0476 16.6799 43.1878C17.1804 43.2801 17.6695 43.415 18.1474 43.5809C18.1442 43.5798 18.141 43.5784 18.1378 43.5773C18.1378 40.6009 18.1018 42.8685 17.9122 36.034L12.1397 38.045C11.8362 38.1501 11.4989 38.0609 11.2871 37.8197C11.0754 37.5786 11.0316 37.2321 11.1802 36.9448L15.944 27.6578C16.1044 27.3493 16.4465 27.1829 16.787 27.2444L21.4475 28.0857L21.4631 26.6296C21.4681 26.132 21.7497 25.7056 22.1572 25.4131L22.3481 5.77247C22.2414 5.72858 22.1402 5.66968 22.0443 5.59749C21.6377 5.28363 21.3677 4.73448 21.373 4.20606L21.3934 2.14708L21.4078 2.15307C21.4187 1.40596 21.8953 0.871378 22.82 0.561493ZM30.7815 75.6066C29.9765 75.6796 29.2075 76.0216 28.5924 76.5917C27.3645 77.7177 26.2791 78.1555 25.5854 78.3248C25.5143 78.3441 25.4356 78.3606 25.3645 78.3727L25.242 78.3967L25.0823 78.3799C24.9797 78.3606 24.8989 78.3441 24.8109 78.32C24.132 78.1532 23.0462 77.713 21.8256 76.5941C21.4336 76.233 20.9812 75.9638 20.4986 75.7959C21.2082 86.1562 22.592 85.8381 25.3236 96.3099C28.3308 85.6384 29.9118 85.9183 30.7815 75.6066ZM1.70295 52.2878C2.32794 54.1415 2.88453 56.0704 3.42376 57.9482C6.16425 67.4493 8.52759 75.6553 18.6733 74.3937C18.8817 74.3671 19.093 74.353 19.3014 74.353C20.5367 74.3531 21.743 74.8217 22.6818 75.6869C23.7603 76.6755 24.6816 77.0115 25.1351 77.1227C25.1644 77.1299 25.1864 77.137 25.2084 77.1418C25.228 77.137 25.2452 77.1323 25.2648 77.1275C25.7354 77.0114 26.6551 76.6779 27.7386 75.6869C28.8293 74.6769 30.2876 74.2029 31.7434 74.3937C41.889 75.6603 44.2503 67.4527 46.9882 57.9542C47.525 56.0835 48.0779 54.161 48.7054 52.295C46.2568 54.011 43.8574 53.4798 41.5267 52.9626C39.1514 52.4357 36.6943 51.8914 33.6792 53.3029C32.9904 53.5978 32.3731 53.9125 31.6941 54.2629C31.3069 54.4708 30.8777 54.6712 30.3924 54.8694C29.2943 55.3092 28.1325 55.6015 26.9388 55.7538L26.9364 55.7562L26.8523 55.7658C26.7938 55.7731 26.7379 55.7861 26.6794 55.791C26.6157 55.7982 26.5486 55.8005 26.4849 55.8054L25.1831 55.9456L25.2012 55.9228L24.1348 55.8197C24.0148 55.8101 23.8945 55.803 23.7746 55.791C23.7134 55.7838 23.6496 55.7707 23.5884 55.7634L23.514 55.7562L23.5116 55.7538C22.1711 55.5943 20.8379 55.237 19.5464 54.6716C19.2597 54.5363 18.9872 54.4078 18.7202 54.2677C18.1491 53.968 17.4773 53.6195 16.7544 53.3125C13.7222 51.8913 11.2628 52.4356 8.88763 52.9626C6.55409 53.4798 4.15395 54.0111 1.70295 52.2878ZM25.23 55.8869L25.2444 55.8677H25.2156L25.23 55.8869ZM25.2156 40.2587C25.1371 40.2587 25.0584 40.2953 24.9898 40.363C23.4948 41.8687 22.4945 43.9008 22.139 46.1121L22.1018 46.3925C22.0356 46.9121 22.0021 47.437 22.0021 47.947C21.9972 49.8491 22.4601 51.6838 23.3278 53.2718C23.3376 53.2886 23.3505 53.3076 23.3603 53.3245C23.4926 53.5638 23.6346 53.8009 23.7866 54.028C23.8086 54.0619 23.8329 54.096 23.8574 54.1299C23.9627 54.2844 24.075 54.432 24.1876 54.5793C24.8814 54.6373 25.5811 54.6373 26.2747 54.5793C26.3016 54.5432 26.3283 54.5064 26.3552 54.4703C26.4948 54.2818 26.6325 54.0931 26.7575 53.895C26.7818 53.8566 26.804 53.8183 26.8283 53.7799C26.9607 53.5673 27.0877 53.3491 27.2054 53.1268C27.2176 53.1051 27.228 53.0813 27.2378 53.0597C28.032 51.5224 28.4579 49.7646 28.4579 47.947C28.4579 47.3331 28.4141 46.7768 28.3234 46.2427C27.9924 43.9784 26.9706 41.8953 25.4389 40.363C25.3728 40.2954 25.2939 40.2588 25.2156 40.2587ZM16.4566 44.4066C16.2951 44.3803 16.2491 44.496 16.2368 44.566C15.8668 46.8404 16.4838 49.311 17.9324 51.3386C18.5501 52.199 19.2882 52.9479 20.124 53.5642C20.4917 53.7262 20.8645 53.8664 21.242 53.9897C21.2908 54.0065 21.3396 54.0184 21.3909 54.0352C21.7216 54.1391 22.0578 54.2311 22.3984 54.3085C22.4278 54.3157 22.4602 54.3228 22.4896 54.3276C22.4603 54.2818 22.4361 54.2309 22.4092 54.1826C22.3112 54.016 22.2152 53.8496 22.1246 53.6781C22.0829 53.5983 22.0438 53.5134 22.0021 53.4312C21.6785 52.7762 21.413 52.0876 21.2095 51.3746C21.1997 51.3432 21.1905 51.3137 21.1831 51.2823C21.1194 51.048 21.0628 50.8084 21.0138 50.5692L20.985 50.4242C20.936 50.1729 20.8908 49.9217 20.8565 49.668C20.8541 49.6536 20.8541 49.6416 20.8517 49.6272C20.7781 49.0761 20.7316 48.5173 20.7316 47.9518C20.7316 47.4904 20.7643 47.0218 20.8133 46.5531C19.5607 45.4437 18.0597 44.704 16.4566 44.4066ZM33.7776 44.409C32.2776 44.6797 30.8458 45.3606 29.6227 46.3877C29.6864 46.8904 29.7187 47.4056 29.7188 47.9518C29.7188 48.6501 29.6549 49.339 29.5446 50.0155C29.5422 50.03 29.5399 50.0478 29.5374 50.0623C29.3095 51.4108 28.8681 52.6966 28.2309 53.8614C28.2211 53.8808 28.2083 53.9008 28.1961 53.9202C28.1226 54.0529 28.051 54.1877 27.9727 54.3181C27.985 54.3156 27.9977 54.3133 28.0099 54.3109C28.3041 54.2456 28.5962 54.169 28.883 54.082C28.9025 54.0748 28.9247 54.07 28.9442 54.0652C29.253 53.9709 29.5591 53.8636 29.8581 53.7452C30.8163 53.0879 31.64 52.2786 32.3042 51.341L32.3066 51.3386C33.7576 49.3085 34.3735 46.8379 33.9962 44.5613C33.9864 44.5032 33.9609 44.4596 33.9241 44.433C33.8874 44.4066 33.8363 44.3994 33.7776 44.409ZM25.3128 39.0267L25.4391 37.4901L25.4283 37.4818L22.0143 34.6042L19.4781 35.4875C19.6878 42.7653 19.7157 40.9137 19.7157 44.2772L20.0423 44.4606C20.3885 44.6671 20.724 44.8943 21.0474 45.1413C21.5377 42.9781 22.5975 41.0035 24.0952 39.4977C24.399 39.1933 24.7954 39.0232 25.2144 39.0231C25.2471 39.0231 25.2804 39.0246 25.3128 39.0267ZM32.1517 43.5581C32.0933 43.5781 32.0344 43.597 31.9763 43.618C32.0995 40.5193 32.2049 42.6482 32.4809 35.5438L29.8198 34.5587L26.455 37.471C26.446 37.4819 26.4359 37.487 26.4262 37.4913L26.2951 39.4629C26.3074 39.4745 26.3203 39.4856 26.3324 39.4977C27.8105 40.9793 28.862 42.9102 29.3621 45.0203C30.2252 44.3869 31.166 43.8946 32.1517 43.5581ZM28.3776 26.6008C26.7388 25.9801 25.1804 25.9649 23.6042 26.554C23.5125 26.5902 23.4184 26.606 23.3196 26.6056C23.1728 26.6032 23.0728 26.6578 23.0386 26.6919L23.017 29.0409C23.0196 29.0678 23.0042 29.0936 23.0002 29.1212C23.0022 29.1412 23.0079 29.158 23.0062 29.1751C22.999 29.2063 22.9845 29.232 22.9738 29.2602C22.9582 29.3093 22.9421 29.3585 22.9161 29.4052C22.8902 29.4518 22.8635 29.4918 22.8332 29.5287C22.7998 29.5694 22.7654 29.6043 22.7276 29.6353C22.6868 29.6699 22.6479 29.6943 22.6027 29.7192C22.5605 29.7404 22.5178 29.7616 22.4682 29.7767C22.4187 29.7918 22.3684 29.8002 22.3145 29.8055C22.2875 29.8082 22.2575 29.8214 22.2268 29.8211C22.2068 29.8228 22.1882 29.8077 22.1644 29.8067C22.1404 29.8057 22.1169 29.8114 22.0959 29.8067L17.0908 28.9007L13.4894 35.9141L21.9302 32.9743C21.9632 32.9642 21.9916 32.9686 22.0215 32.9623C22.0749 32.9502 22.1289 32.9382 22.1836 32.9395C22.2344 32.9379 22.2793 32.9428 22.3277 32.9515C22.3763 32.9603 22.4255 32.9694 22.4718 32.9887C22.5217 33.0109 22.5649 33.0345 22.6087 33.0642C22.634 33.0786 22.662 33.0825 22.6879 33.1037L22.6988 33.1121L25.941 35.8494L29.1497 33.075C29.1808 33.0446 29.2205 33.0333 29.259 33.009C29.2907 32.9855 29.3226 32.9617 29.3587 32.9479C29.4241 32.921 29.4883 32.9121 29.552 32.9024C29.579 32.8997 29.6089 32.8865 29.6397 32.8868C29.7379 32.8805 29.8349 32.8983 29.9267 32.9299C29.9267 32.9299 29.9302 32.9257 29.9339 32.9287L38.3122 36.0352L34.8429 28.9354L34.8333 28.9402L29.803 29.6377C29.7831 29.6395 29.7653 29.6311 29.7453 29.6329C29.7281 29.6313 29.7079 29.6393 29.6877 29.6413C29.6572 29.6409 29.6282 29.6244 29.594 29.6209C29.5424 29.6159 29.4896 29.6041 29.4403 29.5886C29.391 29.573 29.3503 29.5456 29.307 29.5227C29.264 29.4998 29.224 29.4732 29.1833 29.44C29.1492 29.4059 29.1183 29.3675 29.0873 29.3297C29.0527 29.2891 29.0281 29.2512 29.0032 29.2063C28.9782 29.1611 28.9625 29.1109 28.9504 29.0577C28.944 29.0277 28.9238 28.999 28.9204 28.9654C28.9183 28.9452 28.9271 28.9269 28.9252 28.9067C28.9267 28.8896 28.9177 28.8703 28.9156 28.8503L28.9336 26.8321C28.818 26.7686 28.6009 26.6842 28.4448 26.6248L28.3776 26.6008ZM28.2971 22.0238C26.7843 21.6734 25.2673 21.6602 23.7639 21.9867L23.7351 24.881C25.229 24.4601 26.7466 24.4797 28.2695 24.9313L28.2971 22.0238ZM28.3427 18.0029C26.83 17.6525 25.3129 17.6393 23.8095 17.9658L23.7795 20.9835C25.2826 20.6878 26.8001 20.7008 28.3103 21.0243L28.3127 21.0207L28.3427 18.0029ZM28.3788 13.9796C26.8659 13.6292 25.349 13.616 23.8456 13.9425L23.8155 16.9602C25.3185 16.6646 26.8351 16.6776 28.3451 17.001L28.3488 16.9974L28.3788 13.9796ZM28.4184 9.95874C26.9056 9.6083 25.3885 9.59515 23.8852 9.92159L23.8552 12.9394C25.358 12.6437 26.8748 12.6567 28.3848 12.9801L28.3884 12.9765L28.4184 9.95874ZM28.4556 5.7449C26.9465 5.39749 25.4295 5.38403 23.9248 5.69696L23.8948 8.91967C25.3977 8.62403 26.9143 8.63695 28.4244 8.96041L28.4556 5.7449ZM29.1437 2.10633C27.2028 1.39985 25.2922 1.38123 23.304 2.0488L23.3052 2.05599C23.0981 2.12749 23.004 2.18082 22.9689 2.2082L22.9485 4.23003C22.9469 4.24703 22.9519 4.27057 22.9605 4.28995C25.1089 3.72224 27.2861 3.74209 29.4427 4.35227C29.4505 4.32771 29.4542 4.30594 29.4559 4.28875L29.4763 2.26692C29.439 2.23651 29.3482 2.18098 29.1437 2.10633Z" fill="white"/>
<path d="M43.6438 49.1946C43.9894 49.1946 44.2718 49.4698 44.2718 49.813V50.876C44.2718 51.2168 43.9894 51.4956 43.6438 51.4956C43.2982 51.4956 43.0158 51.2168 43.0158 50.876V49.813C43.0158 49.4722 43.2982 49.1946 43.6438 49.1946Z" fill="white"/>
<path d="M42.3769 47.9446C42.7223 47.9447 43.0036 48.2224 43.0037 48.563C43.0037 48.9037 42.7224 49.1824 42.3769 49.1826H41.2985C40.9505 49.1826 40.6705 48.9038 40.6705 48.563C40.6707 48.2223 40.953 47.9446 41.2985 47.9446H42.3769Z" fill="white"/>
<path d="M45.9903 47.9446C46.3355 47.9448 46.6169 48.2225 46.6171 48.563C46.6171 48.9036 46.3356 49.1823 45.9903 49.1826H44.9107C44.5653 49.1823 44.2838 48.9036 44.2838 48.563C44.284 48.2225 44.5654 47.9448 44.9107 47.9446H45.9903Z" fill="white"/>
<path d="M8.19594 46.4465C8.54156 46.4465 8.82398 46.7241 8.82398 47.0649V48.2897C8.82398 48.6305 8.54156 48.9093 8.19594 48.9093C7.85056 48.909 7.5691 48.6303 7.5691 48.2897V47.0649C7.5691 46.7242 7.85056 46.4467 8.19594 46.4465Z" fill="white"/>
<path d="M43.6438 45.6291C43.9893 45.6291 44.2717 45.9068 44.2718 46.2475V47.3118C44.2716 47.6524 43.9893 47.9302 43.6438 47.9302C43.2984 47.9301 43.016 47.6523 43.0158 47.3118V46.2475C43.0159 45.9069 43.2983 45.6291 43.6438 45.6291Z" fill="white"/>
<path d="M6.74051 45.0107C7.0861 45.0107 7.36855 45.2883 7.36855 45.6291C7.3685 45.9698 7.08607 46.2475 6.74051 46.2475H5.49763C5.15204 46.2475 4.86964 45.9699 4.86959 45.6291C4.86959 45.2883 5.15201 45.0107 5.49763 45.0107H6.74051Z" fill="white"/>
<path d="M10.893 45.0107C11.2386 45.0108 11.5199 45.2884 11.5199 45.6291C11.5198 45.9698 11.2386 46.2474 10.893 46.2475H9.65017C9.30457 46.2475 9.02217 45.9723 9.02212 45.6291C9.02212 45.2883 9.30454 45.0107 9.65017 45.0107H10.893Z" fill="white"/>
<path d="M8.19594 42.3489C8.54137 42.3489 8.82368 42.6267 8.82398 42.9673V44.1933C8.82397 44.5341 8.54155 44.8117 8.19594 44.8117C7.85057 44.8114 7.56911 44.5339 7.5691 44.1933V42.9673C7.5694 42.6269 7.85075 42.3491 8.19594 42.3489Z" fill="white"/>
</svg>
