<svg width="679" height="101" viewBox="0 0 679 101" fill="none" xmlns="http://www.w3.org/2000/svg">
<path d="M627.914 69.5149C629.347 69.5149 630.559 69.0189 631.551 68.0271C632.598 66.9801 633.149 65.7403 633.204 64.3077V18.5174C633.149 16.7541 632.405 15.349 630.973 14.3021C630.091 13.6408 629.071 13.3102 627.914 13.3102H626.84V12.4837H663.455C665.825 12.4837 667.919 12.2908 669.737 11.9051C671.611 11.5194 672.795 11.2163 673.291 10.9959V28.0226H672.465V27.3614C672.465 22.9532 670.867 19.8674 667.671 18.1042C666.128 17.2225 664.282 16.7541 662.133 16.699H650.148V39.7595H659.157C661.802 39.7044 663.951 38.8503 665.604 37.1972C667.258 35.489 668.084 33.3125 668.084 30.6675V30.3369H668.911V53.3147H668.084V52.9014C668.084 50.3116 667.258 48.1902 665.604 46.5371C663.951 44.8289 661.83 43.9473 659.24 43.8922H650.148V66.1261H660.315C664.337 66.1261 667.891 64.8036 670.977 62.1587C674.063 59.5137 676.239 55.8494 677.507 51.1657H678.333L675.192 70.3414H626.84V69.5149H627.914Z" fill="white"/>
<path d="M590.395 71.4985C580.531 71.4985 572.679 68.8261 566.838 63.4811C561.053 58.0811 558.16 50.6973 558.16 41.3299C558.16 31.9073 561.08 24.5511 566.921 19.2613C572.762 13.9714 580.862 11.3265 591.221 11.3265C595.685 11.3265 600.286 11.7122 605.024 12.4837C609.763 13.2 613.372 14.0817 615.852 15.1286L615.026 30.9155H614.282C611.416 20.6113 605.107 15.4592 595.354 15.4592C582.68 15.4592 576.344 24.3307 576.344 42.0738C576.344 50.1187 577.638 56.3453 580.228 60.7535C582.873 65.1617 586.868 67.3658 592.213 67.3658C595.134 67.3658 597.668 66.5944 599.817 65.0515C602.021 63.4536 603.123 61.277 603.123 58.5219L603.206 47.1983C603.206 45.986 602.82 45.0769 602.049 44.4707C601.333 43.8095 600.313 43.4789 598.991 43.4789H597.668V42.6523H625.44V43.4789H624.2C622.823 43.4789 621.776 43.8095 621.059 44.4707C620.343 45.0769 620.012 45.986 620.067 47.1983V60.8362C616.982 64.7485 611.389 67.7516 603.289 69.8455C599.101 70.9475 594.803 71.4985 590.395 71.4985Z" fill="white"/>
<path d="M547.211 21.5756C548.093 23.5042 548.534 25.5155 548.534 27.6094C548.534 29.6482 548.313 31.4665 547.872 33.0645C547.432 34.6074 546.743 36.1503 545.806 37.6931C543.767 40.9993 540.268 43.0381 535.309 43.8095C537.458 44.4157 539.387 45.4902 541.095 47.033C542.913 48.5759 544.621 50.7249 546.219 53.48C550.352 60.5332 553.52 65.0791 555.725 67.1179C557.378 68.6608 559.472 69.4598 562.006 69.5149V70.3414H551.675C544.511 70.3414 539.387 69.5424 536.301 67.9445C531.893 65.6852 528.752 61.8005 526.878 56.2903C526.382 54.6923 525.942 53.0117 525.556 51.2484C525.225 49.4851 524.922 48.2177 524.647 47.4463C524.426 46.6198 524.151 45.8759 523.82 45.2146C523.49 44.4983 523.131 43.9473 522.746 43.5616C522.084 42.9003 521.313 42.4044 520.431 42.0738V41.2473H521.754C524.95 41.2473 527.347 39.787 528.945 36.8666C529.771 35.3237 530.267 33.6706 530.433 31.9074C530.653 30.089 530.763 28.9594 530.763 28.5186C530.763 28.0777 530.763 27.8022 530.763 27.692C530.377 20.4185 527.237 16.7817 521.341 16.7817H517.704V64.3077C517.704 65.7403 518.227 66.9802 519.274 68.0271C520.321 69.0189 521.561 69.5149 522.994 69.5149H523.985V70.3414H494.313V69.5149H495.387C496.82 69.5149 498.032 69.0189 499.024 68.0271C500.071 67.0353 500.622 65.823 500.677 64.3903V18.5174C500.622 16.4786 499.74 14.9633 498.032 13.9715C497.206 13.5307 496.324 13.3102 495.387 13.3102H494.313V12.4837H526.63C537.431 12.4837 544.291 15.5143 547.211 21.5756Z" fill="white"/>
<path d="M455.808 11.3265C462.916 11.3265 469.032 12.5112 474.157 14.8806C479.336 17.2501 483.304 20.7215 486.059 25.295C488.814 29.8134 490.192 35.1859 490.192 41.4125C490.192 50.8351 487.133 58.2188 481.017 63.5638C474.901 68.8536 466.498 71.4985 455.808 71.4985C445.118 71.4985 436.715 68.8536 430.598 63.5638C424.537 58.2188 421.506 50.8351 421.506 41.4125C421.506 31.99 424.537 24.6338 430.598 19.3439C436.715 13.999 445.118 11.3265 455.808 11.3265ZM443.988 60.5056C446.853 65.0791 450.793 67.3658 455.808 67.3658C460.877 67.3658 464.817 65.0791 467.627 60.5056C470.492 55.9321 471.925 49.5677 471.925 41.4125C471.925 33.2573 470.492 26.893 467.627 22.3195C464.817 17.746 460.877 15.4592 455.808 15.4592C450.793 15.4592 446.853 17.746 443.988 22.3195C441.178 26.893 439.773 33.2573 439.773 41.4125C439.773 49.5677 441.178 55.9321 443.988 60.5056Z" fill="white"/>
<path d="M392.258 16.699V39.7595H401.268C403.913 39.7044 406.062 38.8503 407.715 37.1972C409.368 35.489 410.194 33.34 410.194 30.7502V30.3369H411.021V53.3147H410.194V52.9014C410.194 50.3116 409.368 48.1902 407.715 46.5371C406.062 44.8289 403.94 43.9473 401.35 43.8922H392.258V64.3077C392.258 65.7403 392.782 66.9801 393.829 68.0271C394.876 69.0189 396.116 69.5149 397.548 69.5149H398.623V70.3414H368.95V69.5149H370.025C371.457 69.5149 372.669 69.0189 373.661 68.0271C374.708 66.9801 375.259 65.7403 375.314 64.3077V18.5174C375.259 17.0848 374.708 15.8725 373.661 14.8807C372.669 13.8337 371.457 13.3102 370.025 13.3102H368.95V12.4837H405.566C407.935 12.4837 410.029 12.2908 411.847 11.9051C413.666 11.5194 414.851 11.2163 415.402 10.9959V28.0226H414.575V27.3614C414.575 22.9532 412.977 19.8674 409.781 18.1042C408.238 17.2225 406.392 16.7541 404.243 16.699H392.258Z" fill="white"/>
<path d="M314.976 69.5149C316.408 69.5149 317.621 69.0189 318.613 68.0271C319.66 66.9801 320.211 65.7403 320.266 64.3077V18.5174C320.211 16.7541 319.467 15.349 318.034 14.3021C317.152 13.6408 316.133 13.3102 314.976 13.3102H313.901V12.4837H350.517C352.886 12.4837 354.98 12.2908 356.799 11.9051C358.672 11.5194 359.857 11.2163 360.353 10.9959V28.0226H359.526V27.3614C359.526 22.9532 357.928 19.8674 354.732 18.1042C353.189 17.2225 351.344 16.7541 349.195 16.699H337.21V39.7595H346.219C348.864 39.7044 351.013 38.8503 352.666 37.1972C354.319 35.489 355.146 33.3125 355.146 30.6675V30.3369H355.972V53.3147H355.146V52.9014C355.146 50.3116 354.319 48.1902 352.666 46.5371C351.013 44.8289 348.891 43.9473 346.302 43.8922H337.21V66.1261H347.376C351.399 66.1261 354.953 64.8036 358.038 62.1587C361.124 59.5137 363.301 55.8494 364.568 51.1657H365.395L362.254 70.3414H313.901V69.5149H314.976Z" fill="white"/>
<path d="M277.456 71.4985C267.593 71.4985 259.741 68.8261 253.9 63.4811C248.114 58.0811 245.221 50.6973 245.221 41.3299C245.221 31.9073 248.142 24.5511 253.982 19.2613C259.823 13.9714 267.923 11.3265 278.283 11.3265C282.746 11.3265 287.347 11.7122 292.086 12.4837C296.825 13.2 300.434 14.0817 302.913 15.1286L302.087 30.9155H301.343C298.478 20.6113 292.168 15.4592 282.415 15.4592C269.742 15.4592 263.405 24.3307 263.405 42.0738C263.405 50.1187 264.7 56.3453 267.29 60.7535C269.935 65.1617 273.93 67.3658 279.274 67.3658C282.195 67.3658 284.73 66.5944 286.879 65.0515C289.083 63.4536 290.185 61.277 290.185 58.5219L290.267 47.1983C290.267 45.986 289.882 45.0769 289.11 44.4707C288.394 43.8095 287.375 43.4789 286.052 43.4789H284.73V42.6523H312.501V43.4789H311.262C309.884 43.4789 308.837 43.8095 308.121 44.4707C307.404 45.0769 307.074 45.986 307.129 47.1983V60.8362C304.043 64.7485 298.45 67.7516 290.35 69.8455C286.162 70.9475 281.864 71.4985 277.456 71.4985Z" fill="white"/>
<path d="M247.581 69.5149H248.242V70.3414H216.916V69.5149H217.66C218.872 69.5149 219.781 69.1567 220.388 68.4404C220.994 67.6689 221.297 66.9801 221.297 66.374C221.297 65.7128 221.159 65.024 220.883 64.3077L217.66 56.6209H199.972L196.666 64.3077C196.39 65.024 196.253 65.6026 196.253 66.0434C196.253 66.4842 196.335 66.9801 196.501 67.5312C196.721 68.0271 197.134 68.4955 197.74 68.9363C198.402 69.322 199.09 69.5149 199.807 69.5149H200.551V70.3414H182.119V69.5149H182.863C184.13 69.5149 185.37 69.1567 186.582 68.4404C187.849 67.6689 188.896 66.5393 189.723 65.0516L208.981 22.8154C211.902 16.6439 213.472 12.5388 213.693 10.5H214.436L240.638 64.9689C242.401 67.9995 244.715 69.5149 247.581 69.5149ZM201.79 52.4882H215.924L208.981 35.9574L201.79 52.4882Z" fill="white"/>
<path d="M169.913 16.5337V64.3903C169.968 65.823 170.492 67.0353 171.484 68.0271C172.531 69.019 173.77 69.5149 175.203 69.5149H176.277V70.3414H146.605V69.5149H147.679C149.112 69.5149 150.324 69.019 151.316 68.0271C152.363 67.0353 152.914 65.8506 152.969 64.473V16.5337H144.786C141.48 16.5889 138.89 17.5807 137.017 19.5093C135.143 21.3828 134.207 23.9726 134.207 27.2787V27.8573L133.38 27.94V10.9133C134.152 11.2439 135.529 11.5745 137.513 11.9051C139.552 12.2357 141.425 12.4011 143.133 12.4011H179.749C181.457 12.4011 183.303 12.2357 185.287 11.9051C187.27 11.5745 188.676 11.2439 189.502 10.9133V27.94L188.676 27.8573V27.2787C188.676 22.8154 187.022 19.6746 183.716 17.8562C182.118 17.0297 180.217 16.5889 178.013 16.5337H169.913Z" fill="white"/>
<path d="M129.369 51.6616C129.369 58.329 126.999 63.3158 122.261 66.622C117.522 69.873 111.213 71.4985 103.333 71.4985C98.7593 71.4985 94.7368 71.0026 91.2654 70.0108C87.7939 68.9638 85.2868 67.6689 83.7439 66.126C83.248 64.9138 83 63.6189 83 62.2413C83 60.8086 83.1102 59.4311 83.3306 58.1086C83.9367 54.8576 84.9561 52.3228 86.3888 50.5045H87.1327C87.0776 50.8351 87.05 51.1932 87.05 51.579C87.05 55.6565 88.648 59.3209 91.844 62.5719C95.095 65.7679 99.5032 67.3658 105.069 67.3658C108.816 67.3658 111.681 66.5944 113.665 65.0515C115.703 63.4536 116.723 61.6627 116.723 59.679C116.723 57.6402 116.034 55.9045 114.656 54.4718C113.279 53.0392 111.047 51.6065 107.961 50.1738L94.4889 43.8921C90.6868 42.184 87.9317 39.787 86.2235 36.7013C84.8459 34.2767 84.1572 31.6043 84.1572 28.6838C84.1572 22.7328 86.1684 18.2143 90.1909 15.1286C93.5521 12.5939 98.0155 11.3265 103.581 11.3265C107.218 11.3265 111.874 11.602 117.549 12.1531H123.996L122.178 25.6256H121.351C121.351 22.595 120.167 20.1429 117.797 18.2694C115.428 16.396 112.397 15.4592 108.705 15.4592C105.069 15.4592 102.231 16.0929 100.192 17.3603C98.2083 18.6276 97.1338 20.3082 96.9685 22.4021C96.7481 24.992 98.4012 27.1961 101.928 29.0145C102.534 29.3451 103.333 29.7032 104.325 30.089L119.781 37.2798C126.173 40.2003 129.369 44.9942 129.369 51.6616Z" fill="white"/>
<path d="M0 80.5V0H70V80.5L35 100.5L0 80.5Z" fill="#58508D"/>
<path d="M53.6963 16.1562C54.5711 15.2815 55.9895 15.2815 56.8643 16.1562C57.7386 17.0309 57.7386 18.4485 56.8643 19.3232L49.5605 26.627V33.9287C49.5605 39.2858 48.7836 43.6275 47.2197 46.9521L54.8203 54.5527C55.2261 54.0566 55.8552 53.3949 56.6934 52.9395C56.0134 52.8686 55.3137 52.7147 54.5889 52.4346C53.0954 51.8572 51.6889 50.8226 50.1709 49.3047C49.2965 48.43 49.2966 47.0124 50.1709 46.1377C51.0456 45.263 52.4641 45.2622 53.3389 46.1367C54.6222 47.42 55.5149 47.9894 56.2041 48.2559C56.8518 48.5062 57.4992 48.5605 58.4658 48.4639C59.3284 48.3777 60.1633 48.7968 60.6094 49.54C61.07 50.3077 61.6232 51.5799 61.7988 52.79C61.8811 53.3573 61.9389 54.2807 61.5186 55.1631C61.2853 55.6525 60.904 56.126 60.3428 56.459C59.8333 56.761 59.2943 56.8762 58.8037 56.8916C58.7948 56.8971 58.7839 56.9036 58.7715 56.9121C58.6494 56.9959 58.4689 57.1614 58.251 57.4346C58.1702 57.5358 58.0925 57.6421 58.0176 57.75L62.3438 62.0762C63.2185 62.951 63.2185 64.3694 62.3438 65.2441C61.469 66.1184 60.0514 66.1186 59.1768 65.2441L54.8496 60.917C54.7425 60.9914 54.6376 61.0693 54.5371 61.1494C54.265 61.3664 54.0999 61.5456 54.0166 61.667C54.0079 61.6797 54.0007 61.6912 53.9951 61.7002C53.9796 62.1911 53.8655 62.7301 53.5635 63.2393C53.2306 63.8001 52.7573 64.1808 52.2686 64.4141C51.3867 64.8348 50.4627 64.778 49.8945 64.6963C48.6835 64.5221 47.4103 63.9706 46.6406 63.5088C45.8973 63.0627 45.4782 62.2279 45.5645 61.3652C45.6696 60.3135 45.6373 59.7204 45.4297 59.1416C45.211 58.532 44.7075 57.7007 43.4219 56.415C42.5472 55.5403 42.5471 54.1218 43.4219 53.2471C44.2967 52.3724 45.7151 52.3733 46.5898 53.248C48.1052 54.7635 49.1127 56.1433 49.6455 57.6279C49.8838 58.2921 50.0095 58.9315 50.0654 59.5479C50.5186 58.7324 51.1647 58.1187 51.6523 57.7197L44.6895 50.7568C42.1332 53.4944 38.7529 54.7002 35 54.7002C31.2751 54.7001 27.9184 53.5117 25.3691 50.8174L18.4658 57.7197C18.9535 58.1187 19.6002 58.732 20.0537 59.5479C20.1096 58.9315 20.2363 58.2921 20.4746 57.6279C21.0075 56.1433 22.0149 54.7635 23.5303 53.248C24.4051 52.3733 25.8235 52.3723 26.6982 53.2471C27.573 54.1218 27.5729 55.5402 26.6982 56.415C25.4127 57.7007 24.9092 58.532 24.6904 59.1416C24.4828 59.7204 24.4505 60.3134 24.5557 61.3652C24.6419 62.2278 24.2228 63.0627 23.4795 63.5088C22.7098 63.9706 21.4358 64.5221 20.2246 64.6963C19.6564 64.7779 18.7331 64.8346 17.8516 64.4141C17.3629 64.1808 16.8895 63.8002 16.5566 63.2393C16.2545 62.7301 16.1405 62.1911 16.125 61.7002C16.1194 61.6912 16.1123 61.6798 16.1035 61.667C16.0202 61.5457 15.8551 61.3665 15.583 61.1494C15.4823 61.0691 15.3759 60.9925 15.2686 60.918L10.8232 65.3643C9.94858 66.2385 8.53094 66.2384 7.65625 65.3643C6.78148 64.4895 6.78151 63.0711 7.65625 62.1963L12.1006 57.75C12.0258 57.6424 11.9497 57.5356 11.8691 57.4346C11.6512 57.1614 11.4707 56.9959 11.3486 56.9121C11.3363 56.9037 11.3253 56.8971 11.3164 56.8916C10.8258 56.8762 10.2868 56.761 9.77734 56.459C9.21609 56.126 8.83477 55.6525 8.60156 55.1631C8.18122 54.2807 8.239 53.3573 8.32129 52.79C8.49694 51.5799 9.05015 50.3077 9.51074 49.54C9.95684 48.7968 10.7917 48.3776 11.6543 48.4639C12.6209 48.5605 13.2683 48.5062 13.916 48.2559C14.6051 47.9893 15.498 47.4199 16.7812 46.1367C17.6561 45.2623 19.0745 45.263 19.9492 46.1377C20.8234 47.0124 20.8235 48.43 19.9492 49.3047C18.4312 50.8227 17.0238 51.8572 15.5303 52.4346C14.8057 52.7146 14.1066 52.8686 13.4268 52.9395C14.2647 53.3947 14.893 54.0566 15.2988 54.5527L22.8184 47.0332C21.2288 43.6983 20.4404 39.3294 20.4404 33.9287V26.5078L13.2559 19.3232C12.3815 18.4485 12.3815 17.0309 13.2559 16.1562C14.1307 15.2816 15.5491 15.2815 16.4238 16.1562L21.6289 21.3613C21.9422 21.1946 22.2999 21.1006 22.6797 21.1006H47.3203C47.7311 21.1007 48.1153 21.2123 48.4463 21.4053L53.6963 16.1562ZM24.9199 33.9287C24.9199 40.3301 26.1218 44.4134 27.8818 46.8447C29.5517 49.1514 31.9043 50.2197 35 50.2197C38.0956 50.2197 40.4473 49.1512 42.1172 46.8447C43.8773 44.4134 45.0801 40.3304 45.0801 33.9287V25.5791H24.9199V33.9287ZM38.5967 38.0176C39.15 36.9115 40.4952 36.4636 41.6016 37.0166C42.7081 37.5699 43.1578 38.9159 42.6045 40.0225C39.5389 46.153 30.4623 46.1528 27.3965 40.0225C26.8433 38.9162 27.2915 37.5701 28.3975 37.0166C29.5038 36.4634 30.8499 36.9115 31.4033 38.0176C32.8179 40.8466 37.1821 40.8466 38.5967 38.0176Z" fill="white"/>
</svg>
