<svg width="682" height="100" viewBox="0 0 682 100" fill="none" xmlns="http://www.w3.org/2000/svg">
<path d="M630.914 79.0149C632.347 79.0149 633.559 78.5189 634.551 77.5271C635.598 76.4801 636.149 75.2403 636.204 73.8077V28.0174C636.149 26.2541 635.405 24.849 633.973 23.8021C633.091 23.1408 632.071 22.8102 630.914 22.8102H629.84V21.9837H666.455C668.825 21.9837 670.919 21.7908 672.737 21.4051C674.611 21.0194 675.795 20.7163 676.291 20.4959V37.5226H675.465V36.8614C675.465 32.4532 673.867 29.3674 670.671 27.6042C669.128 26.7225 667.282 26.2541 665.133 26.199H653.148V49.2595H662.157C664.802 49.2044 666.951 48.3503 668.604 46.6972C670.258 44.989 671.084 42.8125 671.084 40.1675V39.8369H671.911V62.8147H671.084V62.4014C671.084 59.8116 670.258 57.6902 668.604 56.0371C666.951 54.3289 664.83 53.4473 662.24 53.3922H653.148V75.6261H663.315C667.337 75.6261 670.891 74.3036 673.977 71.6587C677.063 69.0137 679.239 65.3494 680.507 60.6657H681.333L678.192 79.8414H629.84V79.0149H630.914Z" fill="white"/>
<path d="M593.395 80.9985C583.531 80.9985 575.679 78.3261 569.838 72.9811C564.053 67.5811 561.16 60.1973 561.16 50.8299C561.16 41.4073 564.08 34.0511 569.921 28.7613C575.762 23.4714 583.862 20.8265 594.221 20.8265C598.685 20.8265 603.286 21.2122 608.024 21.9837C612.763 22.7 616.372 23.5817 618.852 24.6286L618.026 40.4155H617.282C614.416 30.1113 608.107 24.9592 598.354 24.9592C585.68 24.9592 579.344 33.8307 579.344 51.5738C579.344 59.6187 580.638 65.8453 583.228 70.2535C585.873 74.6617 589.868 76.8658 595.213 76.8658C598.134 76.8658 600.668 76.0944 602.817 74.5515C605.021 72.9536 606.123 70.777 606.123 68.0219L606.206 56.6983C606.206 55.486 605.82 54.5769 605.049 53.9707C604.333 53.3095 603.313 52.9789 601.991 52.9789H600.668V52.1523H628.44V52.9789H627.2C625.823 52.9789 624.776 53.3095 624.059 53.9707C623.343 54.5769 623.012 55.486 623.067 56.6983V70.3362C619.982 74.2485 614.389 77.2516 606.289 79.3455C602.101 80.4475 597.803 80.9985 593.395 80.9985Z" fill="white"/>
<path d="M550.211 31.0756C551.093 33.0042 551.534 35.0155 551.534 37.1094C551.534 39.1482 551.313 40.9665 550.872 42.5645C550.432 44.1074 549.743 45.6503 548.806 47.1931C546.767 50.4993 543.268 52.5381 538.309 53.3095C540.458 53.9157 542.387 54.9901 544.095 56.533C545.913 58.0759 547.621 60.2249 549.219 62.98C553.352 70.0332 556.52 74.5791 558.725 76.6179C560.378 78.1608 562.472 78.9598 565.006 79.0149V79.8414H554.675C547.511 79.8414 542.387 79.0424 539.301 77.4445C534.893 75.1852 531.752 71.3005 529.878 65.7903C529.382 64.1923 528.942 62.5117 528.556 60.7484C528.225 58.9851 527.922 57.7177 527.647 56.9463C527.426 56.1198 527.151 55.3759 526.82 54.7146C526.49 53.9983 526.131 53.4473 525.746 53.0616C525.084 52.4003 524.313 51.9044 523.431 51.5738V50.7473H524.754C527.95 50.7473 530.347 49.287 531.945 46.3666C532.771 44.8237 533.267 43.1706 533.433 41.4074C533.653 39.589 533.763 38.4594 533.763 38.0186C533.763 37.5777 533.763 37.3022 533.763 37.192C533.377 29.9185 530.237 26.2817 524.341 26.2817H520.704V73.8077C520.704 75.2403 521.227 76.4802 522.274 77.5271C523.321 78.5189 524.561 79.0149 525.994 79.0149H526.985V79.8414H497.313V79.0149H498.387C499.82 79.0149 501.032 78.5189 502.024 77.5271C503.071 76.5353 503.622 75.323 503.677 73.8903V28.0174C503.622 25.9786 502.74 24.4633 501.032 23.4715C500.206 23.0307 499.324 22.8102 498.387 22.8102H497.313V21.9837H529.63C540.431 21.9837 547.291 25.0143 550.211 31.0756Z" fill="white"/>
<path d="M458.808 20.8265C465.916 20.8265 472.032 22.0112 477.157 24.3806C482.336 26.7501 486.304 30.2215 489.059 34.795C491.814 39.3134 493.192 44.6859 493.192 50.9125C493.192 60.3351 490.133 67.7188 484.017 73.0638C477.901 78.3536 469.498 80.9985 458.808 80.9985C448.118 80.9985 439.715 78.3536 433.598 73.0638C427.537 67.7188 424.506 60.3351 424.506 50.9125C424.506 41.49 427.537 34.1338 433.598 28.8439C439.715 23.499 448.118 20.8265 458.808 20.8265ZM446.988 70.0056C449.853 74.5791 453.793 76.8658 458.808 76.8658C463.877 76.8658 467.817 74.5791 470.627 70.0056C473.492 65.4321 474.925 59.0677 474.925 50.9125C474.925 42.7573 473.492 36.393 470.627 31.8195C467.817 27.246 463.877 24.9592 458.808 24.9592C453.793 24.9592 449.853 27.246 446.988 31.8195C444.178 36.393 442.773 42.7573 442.773 50.9125C442.773 59.0677 444.178 65.4321 446.988 70.0056Z" fill="white"/>
<path d="M395.258 26.199V49.2595H404.268C406.913 49.2044 409.062 48.3503 410.715 46.6972C412.368 44.989 413.194 42.84 413.194 40.2502V39.8369H414.021V62.8147H413.194V62.4014C413.194 59.8116 412.368 57.6902 410.715 56.0371C409.062 54.3289 406.94 53.4473 404.35 53.3922H395.258V73.8077C395.258 75.2403 395.782 76.4801 396.829 77.5271C397.876 78.5189 399.116 79.0149 400.548 79.0149H401.623V79.8414H371.95V79.0149H373.025C374.457 79.0149 375.669 78.5189 376.661 77.5271C377.708 76.4801 378.259 75.2403 378.314 73.8077V28.0174C378.259 26.5848 377.708 25.3725 376.661 24.3807C375.669 23.3337 374.457 22.8102 373.025 22.8102H371.95V21.9837H408.566C410.935 21.9837 413.029 21.7908 414.847 21.4051C416.666 21.0194 417.851 20.7163 418.402 20.4959V37.5226H417.575V36.8614C417.575 32.4532 415.977 29.3674 412.781 27.6042C411.238 26.7225 409.392 26.2541 407.243 26.199H395.258Z" fill="white"/>
<path d="M317.976 79.0149C319.408 79.0149 320.621 78.5189 321.613 77.5271C322.66 76.4801 323.211 75.2403 323.266 73.8077V28.0174C323.211 26.2541 322.467 24.849 321.034 23.8021C320.152 23.1408 319.133 22.8102 317.976 22.8102H316.901V21.9837H353.517C355.886 21.9837 357.98 21.7908 359.799 21.4051C361.672 21.0194 362.857 20.7163 363.353 20.4959V37.5226H362.526V36.8614C362.526 32.4532 360.928 29.3674 357.732 27.6042C356.189 26.7225 354.344 26.2541 352.195 26.199H340.21V49.2595H349.219C351.864 49.2044 354.013 48.3503 355.666 46.6972C357.319 44.989 358.146 42.8125 358.146 40.1675V39.8369H358.972V62.8147H358.146V62.4014C358.146 59.8116 357.319 57.6902 355.666 56.0371C354.013 54.3289 351.891 53.4473 349.302 53.3922H340.21V75.6261H350.376C354.399 75.6261 357.953 74.3036 361.038 71.6587C364.124 69.0137 366.301 65.3494 367.568 60.6657H368.395L365.254 79.8414H316.901V79.0149H317.976Z" fill="white"/>
<path d="M280.456 80.9985C270.593 80.9985 262.741 78.3261 256.9 72.9811C251.114 67.5811 248.221 60.1973 248.221 50.8299C248.221 41.4073 251.142 34.0511 256.982 28.7613C262.823 23.4714 270.923 20.8265 281.283 20.8265C285.746 20.8265 290.347 21.2122 295.086 21.9837C299.825 22.7 303.434 23.5817 305.913 24.6286L305.087 40.4155H304.343C301.478 30.1113 295.168 24.9592 285.415 24.9592C272.742 24.9592 266.405 33.8307 266.405 51.5738C266.405 59.6187 267.7 65.8453 270.29 70.2535C272.935 74.6617 276.93 76.8658 282.274 76.8658C285.195 76.8658 287.73 76.0944 289.879 74.5515C292.083 72.9536 293.185 70.777 293.185 68.0219L293.267 56.6983C293.267 55.486 292.882 54.5769 292.11 53.9707C291.394 53.3095 290.375 52.9789 289.052 52.9789H287.73V52.1523H315.501V52.9789H314.262C312.884 52.9789 311.837 53.3095 311.121 53.9707C310.404 54.5769 310.074 55.486 310.129 56.6983V70.3362C307.043 74.2485 301.45 77.2516 293.35 79.3455C289.162 80.4475 284.864 80.9985 280.456 80.9985Z" fill="white"/>
<path d="M250.581 79.0149H251.242V79.8414H219.916V79.0149H220.66C221.872 79.0149 222.781 78.6567 223.388 77.9404C223.994 77.1689 224.297 76.4801 224.297 75.874C224.297 75.2128 224.159 74.524 223.883 73.8077L220.66 66.1209H202.972L199.666 73.8077C199.39 74.524 199.253 75.1026 199.253 75.5434C199.253 75.9842 199.335 76.4801 199.501 77.0312C199.721 77.5271 200.134 77.9955 200.74 78.4363C201.402 78.822 202.09 79.0149 202.807 79.0149H203.551V79.8414H185.119V79.0149H185.863C187.13 79.0149 188.37 78.6567 189.582 77.9404C190.849 77.1689 191.896 76.0393 192.723 74.5516L211.981 32.3154C214.902 26.1439 216.472 22.0388 216.693 20H217.436L243.638 74.4689C245.401 77.4995 247.715 79.0149 250.581 79.0149ZM204.79 61.9882H218.924L211.981 45.4574L204.79 61.9882Z" fill="white"/>
<path d="M172.913 26.0337V73.8903C172.968 75.323 173.492 76.5353 174.484 77.5271C175.531 78.519 176.77 79.0149 178.203 79.0149H179.277V79.8414H149.605V79.0149H150.679C152.112 79.0149 153.324 78.519 154.316 77.5271C155.363 76.5353 155.914 75.3506 155.969 73.973V26.0337H147.786C144.48 26.0889 141.89 27.0807 140.017 29.0093C138.143 30.8828 137.207 33.4726 137.207 36.7788V37.3573L136.38 37.44V20.4133C137.152 20.7439 138.529 21.0745 140.513 21.4051C142.552 21.7357 144.425 21.9011 146.133 21.9011H182.749C184.457 21.9011 186.303 21.7357 188.287 21.4051C190.27 21.0745 191.676 20.7439 192.502 20.4133V37.44L191.676 37.3573V36.7788C191.676 32.3154 190.022 29.1746 186.716 27.3562C185.118 26.5297 183.217 26.0889 181.013 26.0337H172.913Z" fill="white"/>
<path d="M132.369 61.1616C132.369 67.829 129.999 72.8158 125.261 76.122C120.522 79.373 114.213 80.9985 106.333 80.9985C101.759 80.9985 97.7368 80.5026 94.2654 79.5108C90.7939 78.4638 88.2868 77.1689 86.7439 75.626C86.248 74.4138 86 73.1189 86 71.7413C86 70.3086 86.1102 68.9311 86.3306 67.6086C86.9367 64.3576 87.9561 61.8228 89.3888 60.0045H90.1327C90.0776 60.3351 90.05 60.6932 90.05 61.079C90.05 65.1565 91.648 68.8209 94.844 72.0719C98.095 75.2679 102.503 76.8658 108.069 76.8658C111.816 76.8658 114.681 76.0944 116.665 74.5515C118.703 72.9536 119.723 71.1627 119.723 69.179C119.723 67.1402 119.034 65.4045 117.656 63.9718C116.279 62.5392 114.047 61.1065 110.961 59.6738L97.4889 53.3921C93.6868 51.684 90.9317 49.287 89.2235 46.2013C87.8459 43.7767 87.1572 41.1043 87.1572 38.1838C87.1572 32.2328 89.1684 27.7143 93.1909 24.6286C96.5521 22.0939 101.015 20.8265 106.581 20.8265C110.218 20.8265 114.874 21.102 120.549 21.6531H126.996L125.178 35.1256H124.351C124.351 32.095 123.167 29.6429 120.797 27.7694C118.428 25.896 115.397 24.9592 111.705 24.9592C108.069 24.9592 105.231 25.5929 103.192 26.8603C101.208 28.1276 100.134 29.8082 99.9685 31.9021C99.7481 34.492 101.401 36.6961 104.928 38.5145C105.534 38.8451 106.333 39.2032 107.325 39.589L122.781 46.7798C129.173 49.7003 132.369 54.4942 132.369 61.1616Z" fill="white"/>
<path d="M4.73401 0H31.014V86.0035C31.014 95.8627 19.9129 100 4.73401 100V0Z" fill="white"/>
<path d="M29.8812 0.880282H5.86677V99.1116C12.8593 99.0126 18.7727 97.9866 22.9663 95.9523C27.3131 93.8436 29.8812 90.6242 29.8812 86.0035V0.880282ZM31.014 86.0035C31.014 95.8627 19.9129 100 4.73401 100V0H31.014V86.0035Z" fill="black"/>
<path d="M59.5593 0H33.2794V86.0035C33.2794 95.8627 44.3804 100 59.5593 100V0Z" fill="white"/>
<path d="M34.4121 0.880282H58.4266V99.1116C51.4341 99.0126 45.5206 97.9866 41.327 95.9523C36.9802 93.8436 34.4121 90.6242 34.4121 86.0035V0.880282ZM33.2794 86.0035C33.2794 95.8627 44.3804 100 59.5593 100V0H33.2794V86.0035Z" fill="black"/>
<path d="M0 0H5.64496V51.4085L16.2293 63.9965L15.6043 76.5845L0 57.5704V0Z" fill="#E7C74B"/>
<path d="M5.64496 0V51.4085L16.2293 63.9965L15.6043 76.5845L0 57.5704V0H5.64496ZM0.882024 57.256L14.8366 74.2598L15.331 64.2977L4.76293 51.7289V0.880282H0.882024V57.256Z" fill="black"/>
<path d="M64 0H58.355V51.4085L47.7707 63.9965L48.3957 76.5845L64 57.5704V0Z" fill="#E7C74B"/>
<path d="M58.355 0V51.4085L47.7707 63.9965L48.3957 76.5845L64 57.5704V0H58.355ZM63.118 57.256L49.1634 74.2598L48.669 64.2977L59.2371 51.7289V0.880282H63.118V57.256Z" fill="black"/>
<path d="M52.9351 0V91.0576C43.6891 90.6948 35.7019 88.3276 31.8471 82.474C27.5388 88.2395 20.0052 90.6948 10.7592 91.0576V0H52.9351Z" fill="#E7C74B"/>
<path d="M52.9351 0V91.0576C43.6891 90.6948 35.7019 88.3276 31.8471 82.474C27.5388 88.2395 20.0052 90.6948 10.7592 91.0576V0H52.9351ZM11.8929 90.1184C20.3498 89.6066 26.9996 87.207 30.8666 82.0319L31.91 80.6356L32.8565 82.0729C36.2818 87.2744 43.2634 89.6121 51.8014 90.1191V0.880634H11.8929V90.1184Z" fill="black"/>
<path fill-rule="evenodd" clip-rule="evenodd" d="M32.0664 35.4075C32.319 35.4075 32.5594 35.5103 32.7436 35.6949C33.6394 36.5928 34.2769 37.7629 34.58 39.0417C35.3465 38.4792 36.2126 38.0968 37.1202 37.9327C37.3593 37.8917 37.5956 37.9419 37.7857 38.0752C37.9758 38.207 38.1006 38.409 38.1392 38.6433C38.3992 40.2151 37.9791 41.9134 36.9882 43.3036C36.9764 43.3211 36.9611 43.3358 36.9492 43.3533C38.9712 42.4305 40.6432 42.7997 42.12 43.1264C43.7406 43.4852 45.0211 43.769 46.4502 42.3454C46.6314 42.1725 46.8974 42.1463 47.1024 42.2767C47.3044 42.4026 47.3908 42.6481 47.3107 42.8721L47.3091 42.8755C46.8129 44.2347 46.3953 45.6833 45.9913 47.0852C44.3838 52.6649 42.7216 58.4351 35.9235 57.5886C35.2669 57.5021 34.6084 57.7181 34.1137 58.1766C33.3695 58.8591 32.7109 59.1242 32.2905 59.2268C32.2475 59.2384 32.1998 59.2484 32.1569 59.2557L32.083 59.2707L31.9859 59.2599C31.9238 59.2482 31.8749 59.238 31.8216 59.2234C31.4101 59.1224 30.7515 58.8557 30.0117 58.1774C29.5126 57.7176 28.8527 57.5036 28.1977 57.5886C27.7491 57.6442 27.321 57.6706 26.9156 57.6706C21.1784 57.6703 19.6293 52.2929 18.1275 47.0811C17.7234 45.6807 17.3052 44.2334 16.8105 42.8755C16.7348 42.6265 16.8273 42.3904 17.0337 42.2659C17.2386 42.143 17.4939 42.171 17.6677 42.3363C19.1013 43.766 20.3823 43.4822 22.0029 43.1247C23.4394 42.8069 25.0622 42.4504 27.0201 43.2854C26.0381 41.8996 25.6186 40.2108 25.8741 38.6433C25.9618 38.1512 26.3986 37.8471 26.8931 37.9319C27.8543 38.1091 28.7568 38.5163 29.5412 39.1154C29.8383 37.8043 30.4799 36.6075 31.3876 35.6949C31.5718 35.5103 31.8124 35.4075 32.0664 35.4075ZM27.1048 49.1458C25.8019 48.4898 24.2312 48.4421 22.9032 49.0133C22.5424 49.1684 22.1192 49.2371 21.6278 49.2328C21.3991 49.2181 21.2057 49.3443 21.1016 49.5376C20.9978 49.7309 21.0128 49.9601 21.1465 50.1446C22.6779 52.1628 25.0442 53.314 27.4342 53.3142C28.0997 53.3142 28.7686 53.2246 29.4192 53.04C29.5705 52.9976 29.7017 52.894 29.776 52.7551C29.8518 52.6145 29.8637 52.4466 29.8117 52.2971C29.3259 50.9217 28.3392 49.7728 27.1048 49.1458ZM41.1292 49.0116C39.8011 48.4405 38.2304 48.4896 36.9277 49.1458C35.6933 49.7727 34.7073 50.9218 34.2215 52.2971C34.1695 52.4451 34.1829 52.6129 34.2572 52.7535C34.3315 52.8922 34.4606 52.9959 34.6132 53.0384C35.2654 53.2244 35.9344 53.3142 36.5999 53.3142C38.9901 53.3141 41.3587 52.1615 42.8918 50.1372C43.021 49.96 43.0355 49.7309 42.9316 49.5376C42.8276 49.3443 42.6382 49.2326 42.408 49.2311C41.9077 49.2384 41.49 49.1668 41.1292 49.0116Z" fill="url(#paint0_linear_142_708)"/>
<path d="M21.5929 51.7539C21.7489 51.6133 21.9896 51.625 22.1308 51.7771C23.4992 53.2537 25.6073 54.0658 27.6293 53.8959C27.8387 53.8784 28.0227 54.0307 28.039 54.2387C28.0567 54.4451 27.9026 54.6263 27.6933 54.644C27.4957 54.6602 27.2978 54.6695 27.0987 54.6695C25.0353 54.6694 22.9602 53.7841 21.5696 52.2841C21.427 52.1303 21.4384 51.893 21.5929 51.7539Z" fill="#160942"/>
<path d="M42.1408 51.7771C42.2834 51.625 42.5228 51.6133 42.6772 51.7524C42.8316 51.893 42.8416 52.1303 42.7005 52.2826C41.3101 53.7826 39.2349 54.668 37.1714 54.668C36.9738 54.668 36.7744 54.6587 36.5768 54.6426C36.3675 54.6249 36.2134 54.4437 36.2311 54.2373C36.2489 54.0307 36.4328 53.8783 36.6423 53.8959C38.6627 54.0673 40.7725 53.2537 42.1408 51.7771Z" fill="#160942"/>
<path d="M40.9843 44.2041C41.1908 44.2451 41.3236 44.4443 41.282 44.6464C40.8705 46.6356 39.3773 47.3812 37.7951 48.1707C35.7494 49.1919 33.6335 50.2485 33.277 54.2184C33.259 54.413 33.093 54.5597 32.8985 54.5598C32.8867 54.5598 32.8761 54.5598 32.8643 54.5583C32.6564 54.5393 32.5016 54.3574 32.5193 54.1508C32.9129 49.7679 35.4283 48.5125 37.4502 47.5032C37.6195 47.4197 37.7846 47.3361 37.948 47.2526C37.5142 46.4177 37.5172 45.3614 37.9822 44.5469C38.0846 44.3654 38.3162 44.3023 38.5004 44.4031C38.6846 44.5057 38.7484 44.7343 38.6459 44.9145C38.3073 45.5077 38.3019 46.2786 38.6139 46.8909C39.5587 46.3372 40.2924 45.6789 40.536 44.4968C40.5777 44.2934 40.7795 44.1633 40.9843 44.2041Z" fill="#160942"/>
<path d="M23.3549 44.2026C23.5598 44.1618 23.7616 44.2919 23.8033 44.4954C24.0484 45.6878 24.7941 46.3488 25.7508 46.904C26.0717 46.2888 26.0691 45.5107 25.7275 44.9116C25.625 44.7314 25.6904 44.5013 25.8731 44.4002C26.0573 44.2994 26.2888 44.3639 26.3913 44.544C26.8592 45.3643 26.8594 46.4264 26.4182 47.2642C26.5727 47.3433 26.7287 47.4227 26.8891 47.5018C28.9111 48.5113 31.4262 49.7665 31.8199 54.1465C31.839 54.3529 31.6843 54.5357 31.4749 54.5532C31.4631 54.5547 31.4526 54.5547 31.4407 54.5547C31.2462 54.5546 31.0801 54.4081 31.0623 54.2133C30.7044 50.2466 28.5898 49.1903 26.5441 48.1693C24.962 47.3812 23.4673 46.6342 23.0573 44.645C23.0157 44.4414 23.1484 44.2437 23.3549 44.2026Z" fill="#160942"/>
<path fill-rule="evenodd" clip-rule="evenodd" d="M22.9488 49.0133C24.2769 48.442 25.8475 48.49 27.1504 49.1462C28.3849 49.7732 29.3712 50.9218 29.8571 52.2972C29.9091 52.4466 29.8972 52.6141 29.8214 52.7548C29.7471 52.8938 29.6162 52.9978 29.4648 53.0402C28.8142 53.2248 28.1456 53.3141 27.4801 53.3141C25.0898 53.3141 22.7235 52.1626 21.1919 50.1442C21.0583 49.9597 21.0429 49.731 21.1468 49.5377C21.2508 49.3444 21.4442 49.218 21.673 49.2327C22.1646 49.2371 22.5879 49.1685 22.9488 49.0133ZM26.8025 49.813C25.7032 49.2594 24.3754 49.2156 23.2538 49.699C22.8854 49.8572 22.4812 49.9479 22.0252 49.9743C23.7693 52.0586 26.5397 53.0062 29.0725 52.3676C28.6328 51.2514 27.8127 50.3272 26.8025 49.813Z" fill="#160942"/>
<path fill-rule="evenodd" clip-rule="evenodd" d="M36.9734 49.1462C38.2763 48.49 39.8469 48.4406 41.175 49.0119C41.5359 49.167 41.9533 49.2385 42.4537 49.2312C42.684 49.2327 42.8731 49.3444 42.977 49.5377C43.0809 49.7311 43.0662 49.9598 42.937 50.137C41.4039 52.1614 39.0355 53.3141 36.6452 53.3141C35.9797 53.3141 35.3112 53.2248 34.6591 53.0388C34.5062 52.9963 34.3767 52.8923 34.3024 52.7533C34.2282 52.6127 34.2148 52.4451 34.2668 52.2972C34.7526 50.9217 35.739 49.7731 36.9734 49.1462ZM40.8701 49.7004C39.7485 49.2171 38.4207 49.2594 37.3199 49.8145C36.3097 50.3272 35.4911 51.2514 35.0499 52.3676C37.5827 53.0062 40.3514 52.0615 42.0986 49.9757C41.6411 49.9493 41.237 49.8586 40.8701 49.7004Z" fill="#160942"/>
<path fill-rule="evenodd" clip-rule="evenodd" d="M32.0623 46.2023C32.8228 46.2025 33.4196 47.0872 33.4196 48.2165C33.4196 49.3457 32.8228 50.2305 32.0623 50.2307C31.3017 50.2307 30.7043 49.3458 30.7042 48.2165C30.7042 47.0871 31.3002 46.2023 32.0623 46.2023ZM32.0623 46.9519C31.8186 46.9519 31.4648 47.4445 31.4648 48.2165C31.4648 48.9884 31.8187 49.4804 32.0623 49.4804C32.3059 49.4801 32.659 48.9882 32.6591 48.2165C32.6591 47.4447 32.3059 46.9522 32.0623 46.9519Z" fill="#160942"/>
<path fill-rule="evenodd" clip-rule="evenodd" d="M30.6148 8.93063C32.0141 8.46345 33.4137 8.47711 34.7829 8.97276C34.9825 9.04581 35.1465 9.13519 35.2749 9.24006C35.5045 9.42779 35.6178 9.66623 35.6155 9.95335L35.6031 11.202C35.6002 11.5263 35.438 11.848 35.1817 12.0365C35.124 12.0794 35.0567 12.0924 34.9932 12.1193L34.8775 24.0912C34.9127 24.1124 34.9493 24.1272 34.9808 24.1529C35.1565 24.2965 35.286 24.4964 35.2821 24.7899L35.2763 25.5359L38.1184 25.14C38.2527 25.1184 38.3853 25.1589 38.4866 25.2417C38.5384 25.284 38.5807 25.3379 38.6118 25.4008L41.3898 31.0809C41.4755 31.2561 41.4445 31.4639 41.3141 31.609C41.1816 31.7521 40.9754 31.8018 40.793 31.7354L37.4139 30.4831C37.2589 34.5705 37.1944 36.2454 37.1248 37.932L37.1205 37.9327C37.3595 37.8918 37.5956 37.9419 37.7857 38.0751C37.9757 38.2069 38.1007 38.4089 38.1394 38.6431C38.3994 40.2149 37.9789 41.9132 36.988 43.3034C36.9762 43.3209 36.9613 43.3354 36.9494 43.3528C38.9713 42.43 40.6429 42.7995 42.1197 43.1262C43.7404 43.4851 45.0209 43.769 46.4501 42.3453C46.6313 42.1726 46.8972 42.1461 47.1022 42.2763C47.3042 42.4023 47.3905 42.6486 47.3103 42.8727L47.3089 42.8756C46.8127 44.2349 46.3956 45.6836 45.9916 47.0856C44.4221 52.5336 42.8 58.1619 36.3963 57.6366C35.8217 64.4688 34.7354 68.9003 32.5746 76.0326C32.5122 76.2369 32.325 76.3733 32.1118 76.3718C31.8987 76.3702 31.7131 76.2294 31.6554 76.0246C29.6646 68.9787 28.7086 64.5138 28.2428 57.5836C28.2278 57.5852 28.2127 57.5867 28.1977 57.5887C27.7492 57.6443 27.3215 57.6708 26.916 57.6708C21.1785 57.6708 19.6291 52.2931 18.1272 47.0812C17.7231 45.6808 17.3053 44.2336 16.8106 42.8756C16.7348 42.6266 16.8269 42.3907 17.0333 42.2662C17.2383 42.1431 17.4941 42.1711 17.6679 42.3366C19.1015 43.7662 20.3821 43.4821 22.0027 43.1247C23.4392 42.8068 25.0615 42.451 27.0194 43.286C26.0374 41.9002 25.6183 40.2106 25.8738 38.6431C25.9616 38.1511 26.3989 37.8463 26.8935 37.9313C27.1968 37.9872 27.4932 38.069 27.7828 38.1695C27.7809 38.1688 27.779 38.168 27.777 38.1673C27.777 36.3634 27.7552 34.5715 27.6403 30.4294L24.1418 31.6482C23.9578 31.7119 23.7534 31.6578 23.625 31.5116C23.4968 31.3655 23.4702 31.1555 23.5603 30.9814L26.4474 25.3529C26.5447 25.1658 26.752 25.065 26.9583 25.1023L29.7829 25.6122L29.7924 24.7296C29.7955 24.4281 29.9661 24.1697 30.2131 23.9924L30.3288 12.0888C30.2641 12.0622 30.2028 12.0265 30.1446 11.9828C29.8982 11.7926 29.7346 11.4597 29.7378 11.1395L29.7502 9.89161L29.7589 9.89524C29.7655 9.44244 30.0543 9.11845 30.6148 8.93063ZM35.44 57.5792C34.9521 57.6235 34.4861 57.8308 34.1132 58.1763C33.3691 58.8587 32.7112 59.1241 32.2908 59.2266C32.2477 59.2384 32.2 59.2484 32.1569 59.2557L32.0827 59.2702L31.9859 59.26C31.9237 59.2484 31.8747 59.2383 31.8214 59.2237C31.4099 59.1227 30.7518 58.8559 30.0121 58.1778C29.7745 57.9589 29.5003 57.7958 29.2079 57.694C29.6379 63.973 30.4766 67.7887 32.1321 74.1353C33.9547 67.6677 34.9129 63.8289 35.44 57.5792ZM17.8164 43.4465C18.1952 44.5699 18.5325 45.739 18.8593 46.8771C20.5203 52.6354 21.9526 57.6088 28.1016 56.8442C28.2279 56.8281 28.356 56.8195 28.4823 56.8195C29.2309 56.8195 29.9621 57.1036 30.531 57.6279C31.1847 58.2271 31.743 58.4307 32.0179 58.4981C32.0356 58.5025 32.049 58.5068 32.0623 58.5097C32.0742 58.5068 32.0846 58.5039 32.0965 58.501C32.3817 58.4307 32.9391 58.2285 33.5957 57.6279C34.2568 57.0158 35.1407 56.7285 36.0229 56.8442C42.1719 57.6118 43.603 52.6374 45.2623 46.8807C45.5877 45.7469 45.9227 44.5817 46.3031 43.4509C44.8191 44.4908 43.3648 44.1689 41.9523 43.8554C40.5127 43.5361 39.0235 43.2062 37.1962 44.0617C36.7787 44.2404 36.4046 44.4312 35.9931 44.6435C35.7584 44.7695 35.4983 44.891 35.2042 45.0111C34.5386 45.2777 33.8345 45.4548 33.111 45.5471L33.1096 45.5486L33.0586 45.5544C33.0232 45.5588 32.9893 45.5667 32.9538 45.5696C32.9152 45.574 32.8746 45.5754 32.8359 45.5784L32.047 45.6633L32.0579 45.6495L31.4116 45.5871C31.3389 45.5812 31.266 45.577 31.1933 45.5696C31.1563 45.5653 31.1175 45.5573 31.0805 45.5529L31.0354 45.5486L31.0339 45.5471C30.2215 45.4504 29.4135 45.2339 28.6307 44.8912C28.457 44.8092 28.2919 44.7314 28.13 44.6464C27.7839 44.4648 27.3768 44.2536 26.9386 44.0675C25.1009 43.2062 23.6103 43.5361 22.1708 43.8554C20.7565 44.1689 19.3019 44.4909 17.8164 43.4465ZM32.0754 45.6278L32.0841 45.6161H32.0666L32.0754 45.6278ZM32.0666 36.156C32.0191 36.156 31.9714 36.1782 31.9298 36.2192C31.0237 37.1318 30.4175 38.3634 30.202 39.7036L30.1795 39.8735C30.1394 40.1885 30.1191 40.5066 30.1191 40.8156C30.1161 41.9685 30.3967 43.0804 30.9226 44.0428C30.9285 44.0531 30.9363 44.0646 30.9422 44.0748C31.0224 44.2198 31.1085 44.3635 31.2006 44.5012C31.2139 44.5217 31.2287 44.5424 31.2435 44.5629C31.3073 44.6566 31.3754 44.746 31.4437 44.8353C31.8641 44.8705 32.2882 44.8705 32.7086 44.8353C32.7249 44.8134 32.741 44.7911 32.7573 44.7692C32.842 44.655 32.9254 44.5406 33.0011 44.4205C33.0159 44.3973 33.0293 44.3741 33.0441 44.3508C33.1243 44.2219 33.2013 44.0897 33.2726 43.955C33.28 43.9418 33.2863 43.9274 33.2923 43.9143C33.7736 42.9826 34.0317 41.9172 34.0317 40.8156C34.0317 40.4436 34.0051 40.1065 33.9502 39.7828C33.7496 38.4104 33.1303 37.1479 32.202 36.2192C32.162 36.1783 32.1141 36.1561 32.0666 36.156ZM26.7581 38.67C26.6602 38.654 26.6323 38.7241 26.6249 38.7666C26.4006 40.145 26.7746 41.6424 27.6526 42.8712C28.0269 43.3927 28.4743 43.8466 28.9808 44.2201C29.2036 44.3182 29.4296 44.4032 29.6584 44.4779C29.688 44.4881 29.7176 44.4953 29.7486 44.5055C29.9491 44.5685 30.1528 44.6243 30.3592 44.6711C30.3771 44.6755 30.3967 44.6798 30.4145 44.6828C30.3968 44.655 30.3821 44.6241 30.3658 44.5949C30.3064 44.4939 30.2482 44.393 30.1933 44.2891C30.168 44.2407 30.1443 44.1893 30.1191 44.1394C29.923 43.7425 29.762 43.3251 29.6387 42.893C29.6328 42.874 29.6272 42.8561 29.6227 42.8371C29.5841 42.6951 29.5498 42.5498 29.5201 42.4049L29.5026 42.317C29.4729 42.1647 29.4455 42.0124 29.4247 41.8587C29.4233 41.85 29.4233 41.8427 29.4218 41.834C29.3773 41.5 29.3491 41.1613 29.3491 40.8185C29.3491 40.5389 29.3689 40.2549 29.3985 39.9709C28.6394 39.2985 27.7297 38.8502 26.7581 38.67ZM37.2558 38.6714C36.3467 38.8355 35.4789 39.2481 34.7377 39.8706C34.7763 40.1753 34.7959 40.4875 34.7959 40.8185C34.7959 41.2418 34.7572 41.6593 34.6904 42.0693C34.6889 42.0781 34.6875 42.0889 34.686 42.0977C34.5478 42.915 34.2803 43.6942 33.8941 44.4002C33.8882 44.4119 33.8805 44.4241 33.873 44.4358C33.8285 44.5163 33.7851 44.598 33.7377 44.677C33.7451 44.6755 33.7528 44.6741 33.7602 44.6726C33.9385 44.633 34.1155 44.5866 34.2893 44.5339C34.3012 44.5295 34.3146 44.5266 34.3265 44.5237C34.5136 44.4666 34.6991 44.4015 34.8803 44.3298C35.461 43.9314 35.9603 43.4409 36.3628 42.8727L36.3643 42.8712C37.2437 41.6408 37.617 40.1435 37.3883 38.7637C37.3823 38.7285 37.3669 38.7021 37.3446 38.686C37.3223 38.6699 37.2914 38.6656 37.2558 38.6714ZM32.1256 35.4094L32.2021 31.3119L32.1956 31.3068L30.1264 29.5628L28.5893 30.0982C28.7165 34.509 28.7333 36.553 28.7333 38.5915L28.9313 38.7027C29.1411 38.8278 29.3444 38.9655 29.5405 39.1152C29.8376 37.8042 30.4799 36.6074 31.3876 35.6948C31.5717 35.5104 31.812 35.4073 32.0659 35.4072C32.0858 35.4072 32.1059 35.4081 32.1256 35.4094ZM36.2704 38.1557C36.235 38.1678 36.1993 38.1793 36.1641 38.192C36.2388 36.314 36.3026 34.438 36.4699 30.1323L34.8571 29.5352L32.8178 31.3003C32.8124 31.3069 32.8062 31.31 32.8004 31.3126L32.7209 35.6737C32.7284 35.6808 32.7362 35.6875 32.7435 35.6948C33.6393 36.5928 34.2766 37.763 34.5797 39.0419C35.1028 38.658 35.673 38.3597 36.2704 38.1557ZM33.983 24.7122C32.9899 24.336 32.0453 24.3268 31.09 24.6839C31.0345 24.7058 30.9774 24.7153 30.9176 24.7151C30.8286 24.7137 30.768 24.7468 30.7473 24.7674L30.7342 26.1911C30.7357 26.2074 30.7264 26.223 30.724 26.2397C30.7252 26.2519 30.7286 26.2621 30.7276 26.2724C30.7233 26.2913 30.7145 26.3069 30.708 26.324C30.6985 26.3537 30.6888 26.3836 30.673 26.4119C30.6573 26.4401 30.6411 26.4643 30.6228 26.4867C30.6025 26.5114 30.5817 26.5326 30.5588 26.5513C30.534 26.5723 30.5105 26.5871 30.4831 26.6022C30.4575 26.615 30.4316 26.6279 30.4016 26.6371C30.3715 26.6462 30.341 26.6512 30.3084 26.6545C30.292 26.6561 30.2739 26.6641 30.2553 26.6639C30.2431 26.665 30.2318 26.6558 30.2174 26.6552C30.2029 26.6546 30.1886 26.6581 30.1759 26.6552L27.1425 26.1061L24.9598 30.3567L30.0755 28.575C30.0955 28.5689 30.1127 28.5715 30.1308 28.5677C30.1632 28.5604 30.1959 28.5531 30.2291 28.5539C30.2598 28.5529 30.287 28.5559 30.3164 28.5612C30.3459 28.5665 30.3757 28.572 30.4037 28.5837C30.434 28.5972 30.4601 28.6115 30.4867 28.6295C30.502 28.6382 30.519 28.6406 30.5347 28.6534L30.5413 28.6585L32.5063 30.3175L34.451 28.636C34.4698 28.6176 34.4939 28.6107 34.5172 28.596C34.5365 28.5818 34.5558 28.5674 34.5776 28.559C34.6173 28.5427 34.6562 28.5373 34.6948 28.5314C34.7112 28.5298 34.7293 28.5218 34.7479 28.522C34.8075 28.5181 34.8663 28.5289 34.9219 28.5481C34.9219 28.5481 34.924 28.5456 34.9263 28.5474L40.0041 30.4301L37.9015 26.1272L37.8957 26.1301L34.8469 26.5528C34.8349 26.5539 34.8241 26.5488 34.812 26.5499C34.8016 26.5489 34.7893 26.5538 34.7771 26.555C34.7586 26.5547 34.741 26.5447 34.7203 26.5426C34.689 26.5396 34.657 26.5324 34.6271 26.523C34.5972 26.5136 34.5725 26.497 34.5463 26.4831C34.5203 26.4692 34.496 26.4531 34.4714 26.433C34.4507 26.4123 34.432 26.389 34.4132 26.3661C34.3922 26.3415 34.3773 26.3185 34.3622 26.2913C34.3471 26.2639 34.3375 26.2335 34.3302 26.2012C34.3263 26.1831 34.3141 26.1657 34.312 26.1453C34.3108 26.1331 34.3161 26.122 34.3149 26.1097C34.3159 26.0994 34.3104 26.0877 34.3091 26.0756L34.32 24.8524C34.25 24.8139 34.1184 24.7628 34.0238 24.7267L33.983 24.7122ZM33.9343 21.9383C33.0174 21.7259 32.098 21.7179 31.1868 21.9157L31.1694 23.6699C32.0748 23.4148 32.9946 23.4267 33.9175 23.7004L33.9343 21.9383ZM33.9619 19.5013C33.0451 19.289 32.1256 19.281 31.2145 19.4788L31.1963 21.3078C32.1073 21.1286 33.027 21.1364 33.9423 21.3325L33.9437 21.3303L33.9619 19.5013ZM33.9838 17.0629C33.0669 16.8505 32.1475 16.8426 31.2363 17.0404L31.2181 18.8694C32.129 18.6902 33.0482 18.6981 33.9634 18.8941L33.9656 18.8919L33.9838 17.0629ZM34.0078 14.626C33.0909 14.4136 32.1715 14.4056 31.2603 14.6035L31.2422 16.4325C32.153 16.2533 33.0722 16.2611 33.9874 16.4572L33.9896 16.455L34.0078 14.626ZM34.0303 12.0721C33.1157 11.8616 32.1963 11.8534 31.2844 12.0431L31.2662 13.9963C32.177 13.8171 33.0962 13.8249 34.0114 14.021L34.0303 12.0721ZM34.4474 9.86691C33.2711 9.43874 32.1131 9.42745 30.9081 9.83204L30.9088 9.8364C30.7833 9.87973 30.7263 9.91206 30.705 9.92865L30.6927 11.154C30.6917 11.1643 30.6947 11.1786 30.6999 11.1903C32.002 10.8463 33.3215 10.8583 34.6286 11.2281C34.6333 11.2132 34.6356 11.2 34.6366 11.1896L34.649 9.96424C34.6263 9.94581 34.5713 9.91216 34.4474 9.86691Z" fill="#160942"/>
<path d="M43.2354 41.5718C43.4449 41.5718 43.616 41.7386 43.616 41.9466V42.5909C43.616 42.7974 43.4449 42.9664 43.2354 42.9664C43.0259 42.9664 42.8548 42.7974 42.8548 42.5909V41.9466C42.8548 41.74 43.0259 41.5718 43.2354 41.5718Z" fill="#160942"/>
<path d="M42.4676 40.8142C42.6769 40.8143 42.8474 40.9826 42.8475 41.189C42.8475 41.3955 42.677 41.5644 42.4676 41.5645H41.814C41.6031 41.5645 41.4334 41.3955 41.4334 41.189C41.4335 40.9825 41.6046 40.8142 41.814 40.8142H42.4676Z" fill="#160942"/>
<path d="M44.6575 40.8142C44.8668 40.8144 45.0373 40.9826 45.0374 41.189C45.0374 41.3954 44.8668 41.5643 44.6575 41.5645H44.0032C43.7939 41.5644 43.6233 41.3954 43.6233 41.189C43.6234 40.9826 43.7939 40.8143 44.0032 40.8142H44.6575Z" fill="#160942"/>
<path d="M21.7516 39.9062C21.9611 39.9062 22.1322 40.0745 22.1322 40.281V41.0234C22.1322 41.2299 21.9611 41.3989 21.7516 41.3989C21.5423 41.3987 21.3717 41.2298 21.3717 41.0234V40.281C21.3717 40.0746 21.5423 39.9064 21.7516 39.9062Z" fill="#160942"/>
<path d="M43.2354 39.4109C43.4448 39.4109 43.616 39.5792 43.616 39.7857V40.4307C43.6159 40.6371 43.4448 40.8055 43.2354 40.8055C43.026 40.8054 42.8549 40.6371 42.8548 40.4307V39.7857C42.8548 39.5792 43.026 39.4109 43.2354 39.4109Z" fill="#160942"/>
<path d="M20.8695 39.0361C21.079 39.0361 21.2501 39.2043 21.2501 39.4109C21.2501 39.6174 21.0789 39.7856 20.8695 39.7857H20.1162C19.9068 39.7857 19.7356 39.6174 19.7356 39.4109C19.7356 39.2043 19.9068 39.0361 20.1162 39.0361H20.8695Z" fill="#160942"/>
<path d="M23.3862 39.0361C23.5956 39.0361 23.7661 39.2043 23.7661 39.4109C23.7661 39.6173 23.5956 39.7856 23.3862 39.7857H22.633C22.4235 39.7857 22.2524 39.6188 22.2523 39.4109C22.2523 39.2043 22.4235 39.0361 22.633 39.0361H23.3862Z" fill="#160942"/>
<path d="M21.7516 37.4228C21.961 37.4228 22.132 37.5912 22.1322 37.7976V38.5407C22.1322 38.7472 21.9611 38.9155 21.7516 38.9155C21.5423 38.9153 21.3717 38.7471 21.3717 38.5407V37.7976C21.3719 37.5913 21.5424 37.423 21.7516 37.4228Z" fill="#160942"/>
<defs>
<linearGradient id="paint0_linear_142_708" x1="37.6534" y1="59.2088" x2="26.1376" y2="37.2482" gradientUnits="userSpaceOnUse">
<stop stop-color="#7FCDC3"/>
<stop offset="0.5" stop-color="#2F65AA"/>
<stop offset="1" stop-color="#3D367D"/>
</linearGradient>
</defs>
</svg>
